<svg width="296" height="235" viewBox="0 0 296 235" fill="none" xmlns="http://www.w3.org/2000/svg">
<g clip-path="url(#clip0_53_1165)">
<path d="M34.6055 234.082L69.9106 53.7759H66.7314L31.4263 234.082H34.6055Z" fill="#D1E0D6"/>
<path d="M102.037 234.082L66.7314 53.7759H69.9107L105.216 234.082H102.037Z" fill="#D1E0D6"/>
<path d="M80.7993 116.148H55.8267V118.46H80.7993V116.148Z" fill="#D1E0D6"/>
<path d="M80.0684 116.148L49.7388 142.175H51.7735L82.119 116.148H80.0684Z" fill="#D1E0D6"/>
<path d="M56.5582 116.148L86.9037 142.175H84.8531L54.5076 116.148H56.5582Z" fill="#D1E0D6"/>
<path d="M73.996 107.552L68.3211 53.7759L62.6304 107.552H73.996Z" fill="#97A09B"/>
<path d="M100.034 97.5048L68.3213 53.7759L90.1942 103.198L100.034 97.5048Z" fill="#97A09B"/>
<path d="M117.583 75.736L68.3213 53.7759L111.892 85.6077L117.583 75.736Z" fill="#97A09B"/>
<path d="M121.923 48.0826L68.3213 53.776L121.923 59.4853V48.0826Z" fill="#97A09B"/>
<path d="M111.892 21.9601L68.3213 53.776L117.583 31.8318L111.892 21.9601Z" fill="#97A09B"/>
<path d="M90.1942 4.35373L68.3213 53.7759L100.034 10.063L90.1942 4.35373Z" fill="#97A09B"/>
<path d="M62.6304 0L68.3211 53.7759L73.996 0H62.6304Z" fill="#97A09B"/>
<path d="M36.5925 10.063L68.321 53.7759L46.4322 4.35373L36.5925 10.063Z" fill="#97A09B"/>
<path d="M19.0593 31.8318L68.3211 53.776L24.7342 21.9601L19.0593 31.8318Z" fill="#97A09B"/>
<path d="M14.7197 59.4853L68.3211 53.776L14.7197 48.0826V59.4853Z" fill="#97A09B"/>
<path d="M24.7342 85.6077L68.3211 53.7759L19.0593 75.736L24.7342 85.6077Z" fill="#97A09B"/>
<path d="M46.4322 103.198L68.321 53.7759L36.5925 97.5048L46.4322 103.198Z" fill="#97A09B"/>
<path d="M72.1203 53.7759C72.1203 55.881 70.4194 57.5875 68.3211 57.5875C66.2228 57.5875 64.522 55.881 64.522 53.7759C64.522 51.6708 66.2228 49.9644 68.3211 49.9644C70.4194 49.9644 72.1203 51.6708 72.1203 53.7759Z" fill="#D1E0D6"/>
<path d="M85.7908 139.862H50.8354V142.175H85.7908V139.862Z" fill="#D1E0D6"/>
<path d="M179.625 170.817H5.97681V175.059H179.625V170.817Z" fill="#1D1213"/>
<path d="M179.625 181.374H5.97681V185.616H179.625V181.374Z" fill="#1D1213"/>
<path d="M11.2226 158.792L6.93067 150.547C6.64454 150.005 5.88153 150.005 5.5954 150.547L1.30347 158.792C0.445089 160.435 0 162.253 0 164.103V234.082H12.5261V164.103C12.5261 162.253 12.081 160.435 11.2226 158.792Z" fill="#6B441A"/>
<path d="M40.1213 158.792L35.8294 150.547C35.5432 150.005 34.7802 150.005 34.4941 150.547L30.2022 158.792C29.3438 160.435 28.8987 162.253 28.8987 164.103V234.082H41.4248V164.103C41.4248 162.253 40.9797 160.435 40.1213 158.792Z" fill="#6B441A"/>
<path d="M69.0207 158.792L64.7288 150.547C64.4426 150.005 63.6796 150.005 63.3935 150.547L59.1016 158.792C58.2432 160.435 57.7981 162.253 57.7981 164.103V234.082H70.3242V164.103C70.3242 162.253 69.8791 160.435 69.0207 158.792Z" fill="#6B441A"/>
<path d="M97.9196 158.792L93.6277 150.547C93.3416 150.005 92.5786 150.005 92.2924 150.547L88.0005 158.792C87.1421 160.435 86.697 162.253 86.697 164.103V234.082H99.2231V164.103C99.2231 162.253 98.7621 160.435 97.9196 158.792Z" fill="#6B441A"/>
<path d="M126.803 158.792L122.511 150.547C122.225 150.005 121.462 150.005 121.175 150.547L116.884 158.792C116.025 160.435 115.58 162.253 115.58 164.103V234.082H128.106V164.103C128.106 162.253 127.661 160.435 126.803 158.792Z" fill="#6B441A"/>
<path d="M155.702 158.792L151.41 150.547C151.124 150.005 150.361 150.005 150.074 150.547L145.782 158.792C144.924 160.435 144.479 162.253 144.479 164.103V234.082H157.005V164.103C157.005 162.253 156.56 160.435 155.702 158.792Z" fill="#6B441A"/>
<path d="M184.601 158.792L180.309 150.547C180.022 150.005 179.259 150.005 178.973 150.547L174.681 158.792C173.823 160.435 173.378 162.253 173.378 164.103V234.082H185.904V164.103C185.904 162.253 185.459 160.435 184.601 158.792Z" fill="#6B441A"/>
<path d="M187.293 225.183C189.376 218.58 187.007 214.562 193.286 208.836C196.958 205.487 200.185 206.651 200.678 209.331C201.027 211.181 200.55 213.637 199.358 215.694C195.559 222.217 187.293 225.183 187.293 225.183Z" fill="#59A681"/>
<path d="M186.657 229.632C185.656 224.114 188.517 216.651 193.795 211.037L194.764 211.946C188.994 218.07 187.198 225.119 187.977 229.377L186.657 229.632Z" fill="#334C40"/>
<path d="M187.023 226.235C185.544 221.212 187.388 218.198 182.715 213.78C179.981 211.197 177.517 212.042 177.104 214.051C176.817 215.455 177.135 217.321 178.01 218.883C180.791 223.875 187.023 226.235 187.023 226.235Z" fill="#59A681"/>
<path d="M187.595 229.648L186.291 229.377C186.927 226.203 185.671 220.909 181.427 216.22L182.413 215.327C186.355 219.681 188.453 225.438 187.595 229.648Z" fill="#334C40"/>
<path d="M171.031 234.082C172.43 234.082 178.01 227.766 186.657 227.766C195.304 227.766 203.252 234.082 203.252 234.082H171.031Z" fill="#6B441A"/>
<path d="M207.799 222.679C210.453 214.227 207.417 209.091 215.46 201.756C220.166 197.466 224.299 198.965 224.935 202.377C225.38 204.754 224.776 207.895 223.25 210.527C218.401 218.899 207.799 222.679 207.799 222.679Z" fill="#2E6F58"/>
<path d="M206.988 228.388C205.701 221.323 209.357 211.755 216.112 204.578L217.336 205.742C209.945 213.589 207.64 222.615 208.641 228.069L206.988 228.388Z" fill="#334C40"/>
<path d="M207.465 224.035C205.558 217.592 207.926 213.748 201.95 208.087C198.436 204.77 195.289 205.854 194.78 208.438C194.415 210.224 194.828 212.616 195.941 214.625C199.502 221.02 207.465 224.035 207.465 224.035Z" fill="#2E6F58"/>
<path d="M208.196 228.404L206.527 228.069C207.354 224.003 205.732 217.209 200.296 211.228L201.552 210.08C206.623 215.646 209.293 223.014 208.196 228.404Z" fill="#334C40"/>
<path d="M186.991 234.082C188.771 234.082 195.925 225.996 207.004 225.996C218.084 225.996 228.257 234.082 228.257 234.082H186.991Z" fill="#7B521F"/>
<path d="M186.609 63.2809C198.659 80.3769 212.425 132.096 212.425 132.096H186.148L171.429 94.4269L186.609 63.2809Z" fill="#59A681"/>
<path d="M211.821 129.911L193.699 126.897C191.648 126.562 189.979 124.76 189.487 122.575C183.526 95.7346 196.242 88.287 192.57 74.0456C190.583 69.7876 188.565 66.0717 186.609 63.2809L171.429 94.4269L186.148 132.096H212.425L211.821 129.911Z" fill="#2E6F58"/>
<path d="M186.133 132.096H214.443C215.349 132.096 216.208 132.749 216.542 133.69L220.595 145.205C221.088 146.576 220.277 147.948 218.958 147.948H190.695C189.805 147.948 188.946 147.294 188.596 146.369L184.511 134.855C184.002 133.467 184.813 132.096 186.133 132.096Z" fill="#59A681"/>
<path d="M237.556 207.911V218.469H233.439C231.309 218.469 229.259 217.544 227.764 215.901L224.951 212.807C222.805 210.447 222.089 206.986 223.123 203.877L225.3 197.242L237.556 207.911Z" fill="#D46539"/>
<path d="M233.185 225.247C235.251 212.361 231.134 203.207 220.738 198.741C216.637 196.987 212.186 198.167 210.501 201.181C207.735 206.141 211.455 211.819 216.828 213.35C231.977 217.687 233.185 225.247 233.185 225.247Z" fill="#334C40"/>
<path d="M194.256 147.948C203.364 172.523 212.425 175.904 222.455 198.757C223.488 201.102 223.647 204.036 223.647 207.768V214.259C223.647 215.104 224.41 215.79 225.364 215.79C226.111 215.79 226.779 215.343 227.001 214.705C227.812 212.297 229.704 206.683 230.022 205.998C230.419 205.105 235.983 211.707 235.983 211.707L237.191 218.501C237.302 219.107 237.89 219.553 238.574 219.553C239.337 219.553 239.973 218.995 239.973 218.309V212.775C239.973 211.021 239.607 209.299 238.892 207.736L235.395 199.969L230.626 193.909L215.699 147.98H194.256V147.948Z" fill="#F28D63"/>
<path d="M189.343 190.369L165.913 174.262L143.324 181.454L145.772 218.58H165.007L157.615 196.429L189.343 190.369Z" fill="#1D1213"/>
<path d="M218.545 180.912C212.329 186.924 194.081 190.544 183.255 190.767C172.446 190.991 162.066 185.983 164.991 177.419C167.932 168.839 187.086 168.09 187.086 168.09L218.545 180.912Z" fill="#97A09B"/>
<path d="M168.091 173.4C166.66 174.501 165.547 175.824 165.007 177.403C162.066 185.983 172.446 190.991 183.271 190.752C194.081 190.528 212.345 186.908 218.56 180.896C209.881 189.364 164.625 181.613 168.091 173.4Z" fill="#838E87"/>
<path d="M173.32 141.122C195.082 141.122 223.186 147.868 225.586 165.618C225.793 167.133 225.507 168.68 224.855 170.051C223.313 173.368 220.166 179.843 218.545 180.912C213.315 184.42 195.193 182.219 190.393 176.973C185.592 171.726 181.793 169.094 173.654 173.034C165.515 176.973 157.011 182.889 145.772 181.135L158.092 141.122H173.32Z" fill="#97A09B"/>
<path d="M179.567 166.032C171.413 160.786 161.605 158.457 163.735 150.93C164.736 147.358 170.682 141.887 176.484 141.186C175.419 141.154 174.353 141.138 173.32 141.138H158.108L145.788 181.151C157.027 182.905 165.531 176.989 173.67 173.049C181.809 169.11 185.608 171.742 190.408 176.989C190.393 176.973 187.706 171.279 179.567 166.032Z" fill="#838E87"/>
<path d="M85.5901 147.007C85.9557 143.482 93.3632 136.513 93.3632 136.513L97.7665 141.106L88.197 148.761L85.5901 147.007Z" fill="#97A09B"/>
<path d="M91.1219 146.289C84.8748 149.925 92.3618 139.862 92.3618 139.862L97.7665 141.106L91.1219 146.289Z" fill="#838E87"/>
<path d="M188.199 64.9394C193.35 86.5965 179.52 107.472 178.503 121.331C177.485 135.189 177.787 139.224 173.305 141.122C171.095 142.047 168.631 143.466 166.708 144.678C164.53 146.05 161.78 146.13 159.491 144.934L153.848 141.999L178.471 70.6009L188.199 64.9394Z" fill="#59A681"/>
<path d="M191.967 71.2866C190.091 75.4969 183.43 74.7154 181.761 73.5034C180.092 72.2754 182.159 68.4798 182.159 68.4798L188.883 66.7415L191.967 71.2866Z" fill="#334C40"/>
<path d="M178.185 72.084C178.471 70.6009 190.806 68.8945 191.951 71.2866C191.951 71.2866 192.332 68.6553 189.646 64.0942L178.471 70.6009L178.185 72.084Z" fill="#2E6F58"/>
<path d="M179.504 62.5632L170.968 124.297C170.793 125.605 170.157 126.817 169.188 127.726L153.848 141.999C153.148 142.653 152.29 143.115 151.368 143.355C145.359 144.886 121.897 150.196 109.069 143.977C94.2695 136.8 83.794 148.809 85.9559 143.482C88.1178 138.14 93.6019 134.966 92.4415 129.129C91.2811 123.292 88.7854 121.458 95.4299 111.443C102.074 101.428 103.585 60.3464 124.631 38.6734C141.497 21.2903 160.159 34.6386 162.956 36.8235C163.195 36.9989 163.401 37.2062 163.592 37.4135L176.198 50.9054C176.849 51.6071 177.31 52.4523 177.565 53.3773L179.377 60.3145C179.568 61.0481 179.615 61.8136 179.504 62.5632Z" fill="#59A681"/>
<path d="M163.322 37.7006L163.497 37.3019C163.322 37.1265 163.163 36.967 162.972 36.8075C160.174 34.6227 141.512 21.2744 124.647 38.6575C103.6 60.3465 102.09 101.428 95.4298 111.443C88.7852 121.458 91.265 123.292 92.4413 129.129C93.6017 134.966 88.1176 138.14 85.9557 143.482C84.541 146.975 88.5468 143.036 95.6205 141.919C106.605 127.63 111.66 87.1228 112.629 83.0402C113.599 78.9575 140.352 37.8122 149.095 37.7165C157.853 37.6209 163.719 41.7194 163.719 41.7194L163.322 37.7006Z" fill="#2E6F58"/>
<path d="M163.322 37.7006L165.134 55.4345C165.182 55.9608 165.786 56.2 166.215 55.897C172.08 51.7187 177.278 52.8191 178.518 57.5875L173.32 37.7006L176.134 40.619L176.881 40.1885L172.653 35.7071C172.144 35.1649 171.365 34.9735 170.65 35.2128L163.322 37.7006Z" fill="#2E6F58"/>
<path d="M176.119 40.619L173.321 37.7006L174.354 41.7035L176.119 40.619Z" fill="#334C40"/>
<path d="M113.917 88.3986C113.917 88.3986 175.403 88.3986 183.065 88.3986C190.727 88.3986 204.429 99.5302 205.51 100.615C206.464 101.572 208.832 107.265 208.991 110.518C209.023 111.14 208.387 111.571 207.831 111.284C207.1 110.917 206.194 110.056 205.733 108.11L203.968 115.43C203.809 116.068 202.983 116.275 202.585 115.749C202.045 115.047 201.552 113.931 201.854 112.288L200.376 115.685C200.137 116.228 199.422 116.339 199.041 115.877C198.436 115.143 197.864 113.931 198.675 112.4C198.675 112.4 197.197 110.726 197.085 109.067C197.085 109.067 193.207 108.589 192.062 105.495C190.918 102.401 182.636 104.283 183.383 98.1108C183.383 98.1108 131.753 119.066 117.542 113.5C116.302 113.022 115.364 112.001 114.871 110.773C113.536 107.44 111.135 99.2431 113.917 88.3986Z" fill="#F28D63"/>
<path d="M140.575 88.3986C144.628 83.3113 152.179 71.7491 153.8 58.7038C155.199 47.4925 147.458 27.4781 135.52 31.1779C119.672 36.1058 112.979 54.7328 108.894 92.0028L140.575 88.3986Z" fill="#59A681"/>
<path d="M109.403 87.6331C109.276 88.6857 109.021 90.9184 108.894 92.0188L140.559 88.4146C140.623 88.3348 140.686 88.2551 140.75 88.1754C136.442 87.0112 136.346 85.4164 134.9 84.9061C128.001 82.5139 109.435 87.5534 109.403 87.6331Z" fill="#2E6F58"/>
<path d="M140.988 88.3986C130.544 88.3986 114.728 104.602 114.855 110.773C114.855 110.773 110.801 113.835 109.657 106.882C108.512 99.9289 105.079 98.7806 104.093 94.4588C103.108 90.1369 134.026 82.9285 136.346 85.2569C138.667 87.5853 140.988 88.3986 140.988 88.3986Z" fill="#59A681"/>
<path d="M179.663 38.4502L174.354 41.7035L179.154 60.0913C179.488 61.3512 179.567 62.6749 179.377 63.9826L178.471 70.6009L204.953 55.1954L202.553 38.4502L184.336 36.1059L179.663 38.4502Z" fill="#F28D63"/>
<path d="M204.969 55.1954L202.569 38.4502L184.352 36.1059L179.679 38.4502L174.369 41.7035L177.199 52.548C185.401 47.971 196.369 31.5448 195.002 60.9844L204.969 55.1954Z" fill="#D46539"/>
<path d="M200.757 38.4502C198.929 40.8583 193.286 42.485 189.137 41.3367C184.972 40.1885 179.663 38.4502 179.663 38.4502L186.975 27.3665L211.662 31.9754L200.757 38.4502Z" fill="#1D1213"/>
<path d="M231.102 44.7814C231.102 44.7814 207.719 63.6317 201.329 63.2809C194.939 62.93 195.988 48.0507 199.787 41.0018C199.787 41.0018 196.958 41.3686 195.988 39.71C194.843 37.7644 196.974 33.602 200.328 31.9275C200.328 31.9116 221.422 29.6151 231.102 44.7814Z" fill="#F28D63"/>
<path d="M246.839 55.2591C252.387 52.5958 238.732 35.7231 213.871 29.025C195.432 24.0652 176.5 23.5709 176.5 23.5709C176.5 23.5709 208.737 32.8365 219.578 39.9173C230.435 46.9982 240.195 58.4487 246.839 55.2591Z" fill="#6B441A"/>
<path d="M188.104 24.0971C188.104 24.0971 200.884 6.88949 202.156 5.56582C203.284 4.38568 225.777 8.91485 233.948 14.1936C235.394 15.1345 236.094 16.9047 235.776 18.5952L230.451 46.9982L188.104 24.0971Z" fill="#8F5F23"/>
<path d="M188.199 23.9695L188.215 24.1609L230.435 46.9982L233.407 31.1939C222.121 24.5277 208.88 22.917 192.475 18.2443C190.345 21.083 188.612 23.4114 188.199 23.9695Z" fill="#7B521F"/>
<path d="M172.017 21.8963C174.322 26.2979 181.841 29.0409 185.179 29.8383C198.881 33.1076 221.422 44.6219 232.406 51.2722C243.39 57.9224 246.855 55.2591 246.855 55.2591C246.855 55.2591 244.105 56.7741 233.741 47.1895C223.393 37.6049 208.625 23.3954 191.267 20.5248C174.942 17.8456 172.017 21.8963 172.017 21.8963Z" fill="#8F5F23"/>
<path d="M151.034 104.952C126.014 104.952 94.4127 149.287 85.5904 146.99C85.5904 146.99 80.758 183.543 125.728 183.543L151.034 104.952Z" fill="#97A09B"/>
<path d="M136.155 114.968C123.168 127.008 100.93 168.488 86.2896 157.883C88.6104 168.664 97.0194 183.559 125.728 183.559L146.901 117.822L136.155 114.968Z" fill="#838E87"/>
<path d="M156.773 168.09H117.891L130.099 217.799C130.099 217.799 126.491 224.114 128.398 230.159H177.501V224.928C177.501 223.62 176.993 222.36 176.086 221.419L156.614 211.994C155.533 211.34 154.897 210.144 154.945 208.884L156.773 168.09Z" fill="#BE4824"/>
<path d="M177.517 230.159H128.414V234.082H177.517V230.159Z" fill="#1D1213"/>
<path d="M156.773 168.09C156.773 151.281 175.292 118.428 156.773 106.436C146.027 99.4664 131.339 117.695 124.869 134.711C120.196 146.991 120.562 155.619 126.3 168.09H156.773Z" fill="#97A09B"/>
<path d="M156.932 165.283H135.933C132.261 165.283 128.796 163.465 126.761 160.387C124.472 156.942 121.881 152.397 121.659 149.271C121.531 155.22 123.041 161.041 126.284 168.09H156.757C156.773 167.197 156.836 166.256 156.932 165.283Z" fill="#838E87"/>
<path d="M253.77 194.738C239.098 196.413 232.851 212.584 232.851 223.205L234.902 225.263C234.902 225.263 235.776 220.941 248.715 215.247C265.549 207.848 262.624 193.734 253.77 194.738Z" fill="#2E6F58"/>
<path d="M205.923 234.082C208.323 234.082 217.94 223.205 232.851 223.205C247.761 223.205 261.464 234.082 261.464 234.082H205.923Z" fill="#8F5F23"/>
<path d="M232.771 223.205C232.374 220.191 233.026 217.081 234.075 214.243C235.156 211.372 236.873 208.804 238.796 206.46C240.719 204.116 242.945 202.011 245.456 200.336C247.984 198.694 250.845 197.513 253.818 197.147L253.849 197.306C250.94 197.88 248.254 199.236 245.917 200.99C243.565 202.728 241.53 204.881 239.797 207.242C238.081 209.618 236.761 212.217 235.553 214.849C234.345 217.496 233.423 220.255 232.93 223.205H232.771Z" fill="#334C40"/>
<path d="M25.4871 221.02C28.5391 211.34 25.0579 205.455 34.2617 197.067C39.6504 192.155 44.3715 193.877 45.1028 197.785C45.6114 200.496 44.9279 204.1 43.1793 207.098C37.6157 216.699 25.4871 221.02 25.4871 221.02Z" fill="#59A681"/>
<path d="M24.565 227.559C23.0867 219.473 27.2832 208.517 35.0087 200.304L36.4234 201.644C27.9667 210.638 25.328 220.957 26.4725 227.208L24.565 227.559Z" fill="#334C40"/>
<path d="M25.1059 222.567C22.9281 215.199 25.6463 210.798 18.7792 204.323C14.7734 200.528 11.165 201.771 10.561 204.722C10.1477 206.763 10.6087 209.506 11.8963 211.803C15.9815 219.123 25.1059 222.567 25.1059 222.567Z" fill="#59A681"/>
<path d="M25.9482 227.575L24.0406 227.192C24.9785 222.535 23.1346 214.769 16.9033 207.911L18.334 206.604C24.136 212.983 27.1881 221.403 25.9482 227.575Z" fill="#334C40"/>
<path d="M1.65894 234.082C3.70952 234.082 11.8801 224.832 24.5651 224.832C37.2501 224.832 48.9019 234.082 48.9019 234.082H1.65894Z" fill="#6B441A"/>
<path d="M55.5623 217.368C59.4568 204.977 55.0059 197.45 66.8007 186.701C73.6996 180.417 79.756 182.602 80.678 187.626C81.3138 191.102 80.4554 195.711 78.2141 199.555C71.0927 211.819 55.5623 217.368 55.5623 217.368Z" fill="#2E6F58"/>
<path d="M54.3703 225.741C52.4787 215.391 57.8516 201.357 67.7548 190.847L69.5669 192.554C58.7258 204.068 55.3559 217.289 56.8183 225.279L54.3703 225.741Z" fill="#334C40"/>
<path d="M55.0699 219.346C52.288 209.905 55.7534 204.275 46.9788 195.982C41.8444 191.134 37.2345 192.713 36.4556 196.493C35.9151 199.124 36.5192 202.617 38.1565 205.567C43.3704 214.928 55.0699 219.346 55.0699 219.346Z" fill="#2E6F58"/>
<path d="M56.1346 225.757L53.7025 225.263C54.9106 219.298 52.5421 209.363 44.5623 200.575L46.4062 198.901C53.8296 207.05 57.7401 217.847 56.1346 225.757Z" fill="#334C40"/>
<path d="M25.0422 234.082C27.6651 234.082 38.1406 222.232 54.3704 222.232C70.6003 222.232 85.5266 234.082 85.5266 234.082H25.0422Z" fill="#7B521F"/>
<path d="M92.0279 217.145C88.2765 204.467 92.9499 196.891 81.155 185.744C74.2562 179.221 68.0567 181.342 67.0235 186.43C66.3082 189.954 67.103 194.659 69.3125 198.614C76.3227 211.213 92.0279 217.145 92.0279 217.145Z" fill="#2A5D4B"/>
<path d="M79.1047 190.847C79.1047 190.847 94.7782 207.465 91.1062 225.725" stroke="#334C40" stroke-width="1.5102" stroke-miterlimit="10"/>
<path d="M95.1758 214.482C100.421 197.832 94.4446 187.706 110.277 173.273C119.544 164.82 127.683 167.771 128.923 174.517C129.781 179.189 128.621 185.377 125.617 190.56C116.047 207.018 95.1758 214.482 95.1758 214.482Z" fill="#2A5D4B"/>
<path d="M95.1753 225.725C95.1753 225.725 91.6305 204.291 113.567 182.841" stroke="#334C40" stroke-width="1.5102" stroke-miterlimit="10"/>
<path d="M52.7966 234.082C56.3255 234.082 70.4094 218.134 92.2665 218.134C114.108 218.134 134.2 234.082 134.2 234.082H52.7966Z" fill="#8F5F23"/>
</g>
<defs>
<clipPath id="clip0_53_1165">
<rect width="296" height="234.082" fill="white"/>
</clipPath>
</defs>
</svg>
