<svg width="241" height="245" viewBox="0 0 241 245" fill="none" xmlns="http://www.w3.org/2000/svg">
<path d="M38.1863 151.755C34.6728 151.755 31.2671 154.55 30.0806 158.426C28.894 162.302 29.9881 166.989 32.7157 169.603C34.7344 171.55 37.4158 172.325 40.0355 172.469C42.0389 172.578 44.1655 172.307 45.8298 170.991C47.4478 169.711 48.4803 167.494 48.5111 165.222C48.5574 162.554 46.9393 159.201 45.7373 156.929C44.1192 153.883 41.2992 151.755 38.1863 151.755Z" fill="#BE4824"/>
<path d="M70.1933 167.872C68.8526 166.394 67.7739 164.483 67.5736 162.338C67.3578 160.12 68.0975 157.867 69.3611 156.208C70.6402 154.55 72.397 153.486 74.2616 152.963C78.145 151.881 82.5677 153.396 85.0641 157.037C87.5606 160.679 87.7763 166.358 85.2799 170.018C80.9188 176.4 74.2154 172.271 70.1933 167.872Z" fill="#BE4824"/>
<path d="M65.0773 158.714C61.6871 159.363 58.7899 162.662 58.1273 166.592C57.4184 170.793 59.2985 175.372 62.4884 177.517C65.6629 179.645 69.9007 179.284 72.8749 176.778C74.7241 175.228 76.111 172.848 76.373 170.198C76.7274 166.61 74.7395 164.411 72.8594 161.995C70.9332 159.507 67.9436 158.173 65.0773 158.714Z" fill="#BE4824"/>
<path d="M18.5846 167.259C19.8483 162.157 24.3943 158.516 28.9249 158.804C33.4555 159.093 37.5854 163.131 38.7874 168.251C39.9894 173.371 38.2634 179.194 34.7345 182.529C32.9623 184.206 30.7125 185.287 28.4317 185.071C25.1494 184.765 23.0844 181.051 21.1273 178.383C18.8466 175.3 17.583 171.352 18.5846 167.259Z" fill="#BE4824"/>
<path d="M43.0098 159.94C41.4226 162.77 41.1143 166.34 41.4226 169.711C41.9157 175.029 44.2426 180.546 48.4958 182.511C52.3021 184.278 56.956 182.601 59.5449 178.905C62.1339 175.21 62.6732 169.819 61.2709 165.33C58.5741 156.821 48.388 150.295 43.0098 159.94Z" fill="#BE4824"/>
<path d="M69.5307 168.359C70.9638 165.15 73.7531 163.023 76.6964 161.869C80.7031 160.301 85.357 160.463 88.9321 163.113C92.5073 165.763 94.6647 171.153 93.4165 175.877C92.045 181.123 86.975 184.152 82.2903 183.899C75.7564 183.557 65.2621 177.878 69.5307 168.359Z" fill="#BE4824"/>
<path d="M104.404 62.733C105.005 59.0913 111.816 62.4265 111.678 55.9545C111.616 52.9258 109.782 50.1494 109.721 47.2469C109.659 44.5788 110.722 43.7315 112.14 43.6774C112.679 43.6594 113.249 43.7315 113.789 43.7134C117.241 43.6053 117.703 36.4301 121.771 36.322C122.141 36.3039 122.526 36.358 122.958 36.4662C126.394 37.8904 125.531 31.22 130.201 28.5339C138.399 23.8105 141.604 35.5107 139.539 41.8025C136.365 51.4655 123.328 47.8238 123.528 57.1623C123.605 60.7319 126.995 64.5899 127.072 68.3577C127.134 71.2783 124.699 73.8382 123.328 73.8743C121.34 73.9284 120.276 70.1064 117.996 70.1786C117.95 70.1786 117.888 70.1785 117.842 70.1966C115.191 70.485 112.217 75.2805 109.52 75.3706C108.041 75.4067 106.561 73.694 106.531 71.9633C106.515 70.9718 106.854 69.9262 106.762 68.9707C106.469 66.0321 103.911 65.6175 104.404 62.733Z" fill="#334C40"/>
<path d="M133.005 31.2922C133.606 32.8967 133.344 34.7716 132.636 36.2679C131.927 37.7823 130.879 39.0442 129.646 39.9817C127.15 41.8386 124.252 42.5957 121.895 44.3625C119.506 46.0751 117.903 48.9416 116.856 51.9703C115.808 55.035 115.207 58.2981 114.791 61.5972C113.974 68.1955 114.066 74.992 112.818 81.7165C112.171 85.0517 111.262 88.3508 109.875 91.3975C108.488 94.4262 106.592 97.1845 104.219 99.1315L104.127 98.9873C108.303 94.282 110.322 87.828 111.323 81.3559C112.356 74.8478 112.602 68.0873 113.589 61.3809C114.082 58.0277 114.775 54.6925 115.946 51.5196C117.117 48.4007 118.905 45.372 121.509 43.6053C124.083 41.8566 126.98 41.2256 129.415 39.549C130.617 38.7017 131.665 37.5299 132.389 36.1057C133.113 34.6995 133.421 32.9327 132.882 31.3643L133.005 31.2922Z" fill="#2A5D4B"/>
<path d="M108.765 53.2863C109.135 50.1314 107.825 46.7963 105.529 45.0656C107.332 44.5968 108.796 42.6498 108.95 40.4865C109.104 38.3231 107.964 36.1056 106.253 35.2764C104.928 34.6274 103.325 34.7175 102.231 33.6538C101.153 32.6082 100.921 30.7694 101.153 29.1468C101.384 27.5424 102 26.046 102.339 24.4596C102.909 21.7734 102.586 18.6545 100.906 16.7075C99.2262 14.7605 96.0209 14.6704 94.6802 16.9419C95.1425 14.0754 93.9868 10.9386 91.891 9.37013C89.7952 7.78366 86.8827 7.85578 84.8331 9.51435C81.9822 11.84 81.2579 16.6534 82.3829 20.4934C83.5078 24.3334 86.0813 27.3621 88.8089 29.868C86.7902 27.8128 83.1842 28.624 81.9668 31.4184C80.7494 34.2127 82.3213 38.1068 84.9256 38.7918C86.5128 39.2065 88.6394 38.8639 89.3329 40.5766C89.7644 41.6222 89.3021 42.9022 88.6394 43.7495C87.9614 44.5968 87.083 45.1918 86.3895 46.021C84.4479 48.3647 84.5557 52.5832 86.6053 54.8007C88.6548 57.0181 92.2608 56.8018 94.1101 54.368C92.9235 56.5494 94.4953 59.6322 96.6065 60.4434C101.26 62.2823 108.056 59.4339 108.765 53.2863Z" fill="#334C40"/>
<path d="M85.465 9.00958C86.8365 9.71267 87.9152 11.0467 88.6087 12.5611C89.3329 14.0754 89.8261 15.698 90.3808 17.2844C91.4287 20.4754 92.6924 23.5401 94.4491 26.2624C95.2967 27.6325 96.2213 28.9846 97.0226 30.4449C97.8548 31.8871 98.4866 33.5457 98.8719 35.2403C99.627 38.6476 99.4574 42.3794 98.2709 45.6605L97.8548 44.7952C99.9814 45.1197 101.954 46.3636 103.402 48.2205C104.866 50.0593 105.699 52.5652 105.776 55.0891C105.806 56.3511 105.668 57.6311 105.329 58.839C104.99 60.0468 104.466 61.1465 103.911 62.1741C102.817 64.1933 101.599 66.0321 101.153 68.0332C100.675 70.0163 101.26 72.1436 101.954 74.307C102.647 76.4523 103.495 78.832 103.341 81.41C103.171 83.9339 102.216 86.2595 100.829 88.0804C99.4266 89.8832 97.5158 91.1451 95.497 91.4156L95.4662 91.2353C99.3496 90.0815 102.077 85.7007 102.139 81.3379C102.2 79.1565 101.415 77.1013 100.613 74.938C100.228 73.8383 99.8119 72.7205 99.5961 71.4766C99.365 70.2327 99.3342 68.8625 99.6115 67.5825C100.166 64.9865 101.599 63.0936 102.632 61.2006C103.741 59.3257 104.45 57.3246 104.42 55.1252C104.404 52.9618 103.757 50.7985 102.524 49.1579C101.307 47.5174 99.5653 46.3636 97.7161 46.0211L97.0226 45.8949L97.3 45.1557C98.4404 42.1631 98.6869 38.6837 98.0397 35.4747C97.4387 32.1936 95.5895 29.5074 93.9406 26.659C92.2301 23.8286 91.0127 20.6376 90.0264 17.4106C89.5179 15.8061 89.0556 14.1836 88.3775 12.6873C87.7303 11.1729 86.7132 9.87493 85.3879 9.15381L85.465 9.00958Z" fill="#2A5D4B"/>
<path d="M66.2793 92.6054C66.3563 84.9255 72.0735 77.9126 78.6228 77.4619C79.8556 77.3717 81.2734 77.4078 82.0747 76.3081C82.9377 75.1363 82.5832 73.3335 81.9977 71.9453C81.4275 70.5572 80.6416 69.1329 80.7957 67.6006C81.0114 65.3831 83.0301 64.0851 84.864 63.4902C86.6978 62.9133 88.7473 62.5708 90.0572 60.9482C92.4304 57.9736 90.7352 52.8897 92.3071 49.2661C93.7556 45.9129 98.1938 45.0836 100.459 47.7337C102.724 50.3838 102.031 55.5759 99.1646 57.2886C102.123 56.5314 105.406 58.3162 106.839 61.435C108.272 64.5538 107.717 68.7363 105.544 71.2062C104.003 72.9549 101.892 73.7842 100.028 75.0461C98.163 76.3081 96.4062 78.3993 96.5141 80.9052C96.6836 84.9074 101.337 87.1069 101.538 91.1091C101.707 94.6245 98.4712 96.7879 96.1904 99.0774C91.1051 104.161 86.7132 114.113 78.5766 110.201C72.5666 107.316 66.2022 100.682 66.2793 92.6054Z" fill="#2A5D4B"/>
<path d="M78.4223 46.003C78.4223 46.003 79.686 44.0019 81.15 42.3433C82.6293 40.6848 84.2782 39.3507 84.91 40.3062C85.434 41.1174 83.7389 43.407 81.7201 46.0391C79.686 48.6351 77.3282 51.6638 76.1879 53.1241C74.616 60.4074 73.6144 67.853 73.2137 75.3346L72.2737 75.2625C72.7052 67.258 73.8147 59.3257 75.556 51.5737C75.3403 49.2481 74.616 46.2374 74.2616 43.4791C73.8917 40.7208 73.8763 38.269 74.8626 37.2594C76.0338 36.0516 76.4961 37.62 76.6656 39.4408C76.8505 41.2617 76.8043 43.3529 76.8043 43.3529C76.8043 43.3529 77.2666 40.6848 78.1141 38.0527C78.9463 35.4026 80.1483 32.8246 81.1654 32.8786C83.1687 33.0589 80.5181 40.3603 78.4223 46.003Z" fill="#334C40"/>
<path d="M69.8236 46.9585C69.8236 46.9585 69.8544 44.8493 69.9777 42.758C70.1164 40.6668 70.3783 38.5575 71.2413 38.7558C71.981 38.918 72.243 41.8386 72.0581 45.0476C71.8885 48.2746 71.2567 51.7179 70.8715 53.3224C72.0889 59.524 72.6436 65.8879 72.5358 72.2338L71.7344 72.2158C71.8577 65.5815 71.2259 58.9291 69.8852 52.4751C68.9298 50.8706 67.2809 49.194 65.9094 47.7157C64.5379 46.2374 63.4283 44.9394 63.5824 43.7856C63.7674 42.3794 64.769 42.9203 65.7399 43.8577C66.6953 44.8132 67.5737 46.1833 67.5737 46.1833C67.5737 46.1833 66.7569 44.1822 65.9864 42.109C65.2313 40.0178 64.5071 37.8183 65.0926 37.0792C66.2638 35.5288 69.0068 41.7304 69.8236 46.9585Z" fill="#334C40"/>
<path d="M88.886 36.6465C88.886 36.6465 90.9972 34.9879 93.2471 33.9243C95.497 32.8246 97.8085 32.3018 98.1475 33.6719C98.4403 34.8437 95.7435 36.3761 92.569 38.3051C89.3945 40.18 85.7269 42.5056 84.001 43.7315C79.9481 51.3754 76.8815 59.7404 74.9706 68.4479L73.8765 68.1234C75.9414 58.7669 79.3009 49.8069 83.7698 41.6943C84.2475 38.9361 84.4479 35.1502 85.0643 31.815C85.6344 28.4798 86.6053 25.6314 88.1309 24.9824C89.9339 24.2072 89.7952 26.2444 89.2867 28.3717C89.0401 29.4533 88.7165 30.5891 88.4391 31.4364C88.1617 32.2837 87.9768 32.8787 87.9768 32.8787C87.9768 32.8787 89.4716 30.0663 91.4595 27.5604C93.4166 25.0184 95.8514 22.8371 96.9301 23.468C98.0242 24.1351 97.038 26.0821 95.312 28.5159C93.5553 30.9677 91.0588 33.9784 88.886 36.6465Z" fill="#334C40"/>
<path d="M83.4154 54.5483C83.4154 54.5483 84.5095 53.701 85.6653 53.1061C86.8211 52.5111 88.0231 52.1866 88.208 52.8897C88.3621 53.4847 86.9598 54.368 85.3109 55.3956C83.662 56.3872 81.7357 57.559 80.8265 58.1719C78.6383 62.048 76.8199 66.2304 75.4329 70.5752L74.8782 70.3408C76.373 65.6896 78.3455 61.2367 80.7186 57.1083C81.2118 54.3139 81.3505 49.2661 82.9223 48.563C83.8315 48.1664 83.8007 49.194 83.5541 50.2937C83.323 51.4114 82.9069 52.6193 82.9069 52.6193C82.9069 52.6193 83.662 51.1771 84.6636 49.861C85.6499 48.527 86.8365 47.3551 87.4221 47.6616C88.5778 48.2746 85.6499 51.772 83.4154 54.5483Z" fill="#334C40"/>
<path d="M82.537 23.7204C82.537 23.7204 82.8298 21.8996 83.1996 20.1148C83.5694 18.3301 84.0472 16.5453 84.7868 16.8518C85.4033 17.1222 85.2954 19.7002 84.7252 22.4585C84.1704 25.2168 83.1842 28.1012 82.6294 29.3992C82.8452 34.9699 82.4291 40.5586 81.3658 46.003L80.6877 45.8228C81.7973 40.162 82.1979 34.3029 81.8897 28.4978C81.2733 26.9474 80.0713 25.1987 79.0697 23.7024C78.0834 22.188 77.2821 20.9081 77.5595 19.9346C77.8985 18.7627 78.6844 19.3757 79.4087 20.3492C80.1176 21.3227 80.7031 22.6568 80.7031 22.6568C80.7031 22.6568 80.2563 20.7999 79.8402 18.8709C79.4395 16.9419 79.0697 14.9228 79.6553 14.3819C80.8264 13.2281 82.4907 19.0512 82.537 23.7204Z" fill="#334C40"/>
<path d="M72.1813 33.095C72.1813 33.095 72.1659 31.1119 72.2738 29.1468C72.3971 27.1998 72.6436 25.2167 73.4604 25.397C74.1538 25.5412 74.4004 28.2635 74.2617 31.2381C74.1538 34.2307 73.6607 37.4758 73.3679 39.0082C74.0614 41.8746 74.6624 44.7951 75.0938 47.7337C75.4945 50.6723 75.8181 53.701 75.3866 56.6936L74.6469 56.5133C75.063 53.5928 74.724 50.4199 74.2617 47.3732C73.784 44.3084 73.1367 41.2617 72.3816 38.251C70.4554 35.2764 65.971 32.2837 66.2484 30.1384C66.4179 28.8043 67.3579 29.3091 68.2825 30.1925C69.1763 31.0939 70.0393 32.3739 70.0393 32.3739C70.0393 32.3739 69.238 30.4989 68.4983 28.5339C67.7894 26.5508 67.0959 24.5137 67.6353 23.8106C68.1593 23.1075 69.1147 24.1531 69.9931 26.0641C70.9177 27.975 71.7344 30.6792 72.1813 33.095Z" fill="#334C40"/>
<path d="M70.0085 65.7257C67.1884 66.3386 64.9694 69.0608 63.8136 72.1256C62.6578 75.2084 62.4113 78.6157 62.2264 81.9689C61.4713 95.7964 61.6716 109.696 62.7811 123.505C68.1747 121.576 70.5941 114.419 72.2892 108.128C73.7378 102.773 74.9243 97.1845 76.7273 91.9744C77.7598 88.9457 79.6861 86.2235 80.395 83.0686C81.9976 75.9295 77.5595 64.0851 70.0085 65.7257Z" fill="#BE4824"/>
<path d="M29.7879 51.9883C29.7879 51.9883 30.0344 49.5365 30.6354 47.2289C31.221 44.9213 32.0994 42.8301 33.0394 43.2988C33.8407 43.6954 33.3322 46.6701 32.6696 50.1314C31.9915 53.5748 31.2056 57.559 30.8358 59.488C32.5309 66.7352 34.7962 73.7842 37.6008 80.5266L36.7533 81.0134C33.7637 73.8022 31.3751 66.2485 29.6338 58.5144C28.4626 56.6215 26.5671 54.4221 25.0878 52.2227C23.6084 50.0413 22.5451 47.914 22.992 46.4717C23.5159 44.7411 24.5638 45.8588 25.473 47.3191C26.413 48.7974 27.2452 50.6362 27.2452 50.6362C27.2452 50.6362 26.5363 48.0402 26.1511 45.2639C25.7658 42.4876 25.7196 39.531 26.6288 39.0082C28.4626 37.9986 29.2331 45.8768 29.7879 51.9883Z" fill="#334C40"/>
<path d="M22.7146 57.7753C22.7146 57.7753 21.8517 55.9184 21.0811 54.0255C20.326 52.1325 19.6634 50.1495 20.4956 49.8069C21.2044 49.5185 22.6684 51.8982 23.855 54.8007C25.0724 57.7032 25.9662 61.0744 26.3052 62.6789C29.9728 67.3662 33.1473 72.5763 35.7208 78.183L35.0274 78.6157C32.3306 72.7746 28.9866 67.3482 25.1032 62.4986C23.593 61.6513 21.451 61.1465 19.6326 60.6598C17.8142 60.155 16.304 59.6682 15.9496 58.5685C15.5181 57.2345 16.6122 57.1263 17.8604 57.3967C19.0932 57.6671 20.4339 58.3522 20.4339 58.3522C20.4339 58.3522 18.8929 57.0902 17.3365 55.7201C15.7954 54.332 14.239 52.8356 14.4394 51.8621C14.7938 49.8971 19.7867 53.701 22.7146 57.7753Z" fill="#334C40"/>
<path d="M34.9503 37.8003C34.9503 37.8003 36.0906 35.1502 37.6008 32.9147C39.0956 30.6612 40.8832 28.8764 41.7616 29.868C42.5013 30.7153 40.8061 33.6178 38.8644 37.1152C36.8919 40.5766 34.6729 44.705 33.6866 46.7782C33.3784 55.7742 34.226 64.8242 36.2447 73.4957L35.1506 73.8382C32.9932 64.4997 32.161 54.7827 32.6233 45.1377C31.8836 42.4695 30.4505 39.0622 29.5875 35.7992C28.6783 32.5541 28.3239 29.5254 29.3718 28.1012C30.62 26.3886 31.3597 28.2274 31.8066 30.3727C32.0531 31.4544 32.2381 32.6262 32.3613 33.5276C32.4846 34.429 32.5617 35.06 32.5617 35.06C32.5617 35.06 32.6695 31.7609 33.3476 28.4257C33.9948 25.0905 35.1814 21.7734 36.3988 21.7193C37.6316 21.6652 37.6008 23.9187 37.1231 27.0556C36.6146 30.1744 35.7208 34.2307 34.9503 37.8003Z" fill="#334C40"/>
<path d="M37.7241 56.5494C37.7241 56.5494 38.3097 55.1793 39.0802 54.0074C39.8353 52.8176 40.7445 51.8441 41.2068 52.3489C41.5921 52.7815 40.7445 54.35 39.7429 56.1888C38.7258 58.0097 37.5546 60.137 37.0153 61.1826C36.7533 65.8158 36.9228 70.5031 37.5392 75.1002L36.969 75.2084C36.3064 70.2867 36.1523 65.293 36.4913 60.3353C35.7516 57.613 33.7329 53.1421 34.8116 51.6277C35.4434 50.7444 35.8441 51.6638 36.0906 52.7635C36.3526 53.8632 36.5067 55.1432 36.5067 55.1432C36.5067 55.1432 36.5684 53.4486 36.8612 51.7359C37.1539 50.0233 37.6933 48.2926 38.3251 48.2205C39.5733 48.1123 38.4946 52.8356 37.7241 56.5494Z" fill="#334C40"/>
<path d="M23.9782 30.2285C23.9782 30.2285 23.4697 28.4798 23.0382 26.713C22.6067 24.9463 22.2677 23.1074 23.0382 22.9632C23.6854 22.837 24.6717 25.1446 25.3497 27.8668C26.0432 30.5891 26.3822 33.6538 26.4592 35.1141C29.0019 39.8194 30.9898 44.9394 32.3459 50.2756L31.6833 50.51C30.2656 44.9394 28.139 39.6211 25.4268 34.7355C24.2402 33.744 22.468 32.9147 20.9578 32.1936C19.463 31.4544 18.2148 30.7874 18.0453 29.7778C17.845 28.5699 18.785 28.642 19.8329 29.0747C20.8499 29.5254 21.9287 30.3367 21.9287 30.3367C21.9287 30.3367 20.7575 28.9846 19.5863 27.5423C18.4305 26.1001 17.244 24.5497 17.5367 23.7384C18.0761 22.0799 21.9749 26.1902 23.9782 30.2285Z" fill="#334C40"/>
<path d="M18.9237 44.3625C18.9237 44.3625 18.0761 42.6498 17.3519 40.8831C16.6276 39.1163 16.0112 37.2594 16.7971 36.9349C17.4597 36.6645 18.8158 38.8819 19.9562 41.5501C21.1119 44.2182 22.052 47.3371 22.4526 48.8334C24.271 50.9246 26.0278 53.106 27.6305 55.4316C29.2177 57.7573 30.7741 60.191 31.6679 63.0575L30.9591 63.3279C30.0961 60.5516 28.4626 57.9916 26.7829 55.5939C25.0724 53.1962 23.2231 50.9246 21.3123 48.7433C18.3843 47.265 13.2219 47.2469 12.5593 45.2278C12.1432 43.9839 13.1757 43.8757 14.3469 44.1101C15.5026 44.3805 16.7971 44.9934 16.7971 44.9934C16.7971 44.9934 15.3177 43.8216 13.8537 42.5416C12.3898 41.2256 10.9412 39.8555 11.1107 38.918C11.2802 37.9986 12.5439 38.3772 14.1157 39.5129C15.6567 40.6307 17.506 42.5236 18.9237 44.3625Z" fill="#334C40"/>
<path d="M30.7742 74.0185C28.5859 76.1819 27.7846 79.8235 28.0774 83.1768C28.3702 86.53 29.5876 89.6308 30.8512 92.6595C36.029 105.135 42.0544 117.105 48.8349 128.481C52.7183 123.704 51.8091 116.078 50.6379 109.624C49.6362 104.125 48.3264 98.5907 47.6945 93.02C47.3247 89.793 47.8486 86.3136 47.1398 83.1587C45.5063 75.9656 36.6608 68.2135 30.7742 74.0185Z" fill="#BE4824"/>
<path d="M51.4701 36.5924C51.4701 36.5924 52.179 33.744 53.2577 31.166C54.3364 28.57 55.7234 26.2984 56.7712 27.0556C57.6496 27.7046 56.5555 31.1119 55.1994 35.0601C53.8279 38.9721 52.2252 43.5152 51.4547 45.7146C52.2406 54.6745 53.7354 63.5443 55.9237 72.1617L54.845 72.5403C52.518 63.328 50.9616 53.8452 50.2065 44.2724C49.1432 41.7665 47.2632 38.7197 45.8916 35.7812C44.5047 32.8606 43.6109 30.1023 44.366 28.4798C45.2752 26.5508 46.3231 28.1012 47.1553 30.0663C48.0183 32.0313 48.6963 34.411 48.6963 34.411C48.6963 34.411 48.2802 31.184 48.311 27.7948C48.311 24.4055 48.7579 20.9261 49.9291 20.5115C52.2407 19.7182 51.84 29.219 51.4701 36.5924Z" fill="#334C40"/>
<path d="M42.1162 41.8025C42.1162 41.8025 41.4074 39.4048 40.8064 36.989C40.2208 34.5733 39.7739 32.0674 40.8218 31.8691C41.7002 31.7068 43.0408 34.8437 43.95 38.5575C44.8901 42.2712 45.3986 46.4537 45.5373 48.4548C49.0816 54.8368 51.9633 61.7415 54.0745 68.9707L53.1653 69.3313C50.9617 61.7956 47.9105 54.6024 44.1196 47.9861C42.4861 46.6521 40.0359 45.5343 37.9555 44.5428C35.8905 43.5332 34.18 42.6138 33.9488 41.2256C33.6715 39.567 34.9659 39.6752 36.3991 40.2701C37.8014 40.8831 39.2808 42.0008 39.2808 42.0008C39.2808 42.0008 37.6627 40.1439 36.06 38.1789C34.4728 36.1958 32.8701 34.0685 33.2708 32.9327C34.0721 30.6432 39.3578 36.304 42.1162 41.8025Z" fill="#334C40"/>
<path d="M59.9458 20.9802C59.9458 20.9802 61.7334 18.0957 63.9062 15.8061C66.0637 13.4805 68.4831 11.7859 69.3306 13.1741C70.0703 14.3459 67.5739 17.3926 64.6768 21.0703C61.7642 24.712 58.451 29.0928 56.9408 31.3102C55.0762 41.8927 54.5523 52.7816 55.4769 63.5263L54.1208 63.6885C53.1345 52.1506 53.7817 40.4504 55.9546 29.1469C55.5231 25.8117 54.4136 21.4489 53.9358 17.4106C53.3965 13.3724 53.5044 9.69466 54.9837 8.25242C56.7405 6.52173 57.3107 8.86537 57.4802 11.4975C57.5881 12.8315 57.6189 14.2557 57.6035 15.3554C57.5881 16.4552 57.5881 17.2123 57.5881 17.2123C57.5881 17.2123 58.2815 13.3363 59.6376 9.5324C60.9629 5.7285 62.92 2.08684 64.3685 2.28515C65.8479 2.50149 65.4164 5.16963 64.3223 8.7572C63.2128 12.3448 61.4714 16.9239 59.9458 20.9802Z" fill="#334C40"/>
<path d="M60.0998 43.8036C60.0998 43.8036 61.0244 42.3253 62.1339 41.0994C63.228 39.8735 64.4763 38.918 64.9231 39.6392C65.3084 40.2341 64.0448 41.9107 62.5346 43.8577C61.0244 45.7867 59.2676 48.0222 58.4663 49.1399C57.3722 54.5663 56.7866 60.137 56.7557 65.7257H56.0469C56.0931 59.7584 56.7403 53.7911 57.9731 48.0041C57.5417 44.6149 55.9236 38.8639 57.4492 37.3135C58.343 36.4121 58.6512 37.602 58.7745 38.9541C58.9132 40.3242 58.8669 41.8746 58.8669 41.8746C58.8669 41.8746 59.2214 39.8915 59.8686 37.9265C60.5004 35.9614 61.4404 34.0505 62.1955 34.1226C63.6903 34.2308 61.6408 39.5851 60.0998 43.8036Z" fill="#334C40"/>
<path d="M48.2495 9.49636C48.2495 9.49636 47.9413 7.31498 47.7255 5.11556C47.5252 2.91614 47.4173 0.680672 48.3574 0.680672C49.1433 0.680672 49.9292 3.65529 50.2528 7.02653C50.6072 10.4158 50.4994 14.1115 50.3453 15.8602C52.5643 22.0258 54.0591 28.5339 54.768 35.1682L53.9358 35.2584C53.1962 28.3356 51.5781 21.5571 49.1895 15.1572C47.9567 13.6969 45.9842 12.3268 44.3199 11.1189C42.671 9.89298 41.3149 8.82933 41.2841 7.60342C41.2533 6.12513 42.3628 6.4316 43.5186 7.18878C44.6589 7.94596 45.7993 9.17186 45.7993 9.17186C45.7993 9.17186 44.6435 7.29695 43.4877 5.3319C42.3628 3.34882 41.2224 1.25757 41.7001 0.356168C42.6248 -1.50072 46.5544 4.25022 48.2495 9.49636Z" fill="#334C40"/>
<path d="M39.8971 25.0545C39.8971 25.0545 39.1882 22.819 38.618 20.5655C38.0633 18.312 37.6472 15.9684 38.6335 15.7701C39.4656 15.6078 40.6984 18.5464 41.5922 21.9717C42.5168 25.397 43.1024 29.2911 43.3336 31.166C45.1366 34.0685 46.8317 37.0431 48.3573 40.162C49.8521 43.2808 51.2698 46.5259 51.8554 50.1134L50.9616 50.2576C50.4068 46.7782 48.8966 43.371 47.3094 40.1439C45.6913 36.9169 43.8883 33.7981 41.9775 30.7694C38.7721 28.3356 32.6543 27.1277 32.2074 24.5858C31.93 23.0173 33.1628 23.1255 34.5189 23.6844C35.8442 24.2613 37.2619 25.2889 37.2619 25.2889C37.2619 25.2889 35.7055 23.5582 34.1799 21.7013C32.6697 19.8264 31.1749 17.8433 31.5448 16.7977C31.8992 15.7521 33.3323 16.4732 34.9966 18.2039C36.6609 19.8985 38.541 22.5486 39.8971 25.0545Z" fill="#334C40"/>
<path d="M48.9276 62.8592C45.9688 64.9144 44.4124 69.0428 44.1966 73.0631C43.9809 77.0833 44.9055 81.0495 45.8764 84.9255C49.8984 100.862 55.0146 116.438 61.1324 131.438C66.526 126.678 66.7263 117.43 66.4336 109.534C66.1716 102.809 65.5552 95.9406 65.7401 89.1981C65.848 85.3041 67.05 81.3018 66.7418 77.4078C66.0329 68.5561 56.8792 57.3607 48.9276 62.8592Z" fill="#BE4824"/>
<path d="M141.835 168.882H6.30273V244.005H141.835V168.882Z" fill="#6B441A"/>
<path d="M16.042 147.519H6.30273V244.005H16.042V147.519Z" fill="#6B441A"/>
<path d="M141.82 147.519H132.081V244.005H141.82V147.519Z" fill="#6B441A"/>
<path d="M148.138 219.559H0V240.056H148.138V219.559Z" fill="#6B441A"/>
<path d="M148.138 192.39H0V212.888H148.138V192.39Z" fill="#6B441A"/>
<path d="M148.138 165.222H0V185.72H148.138V165.222Z" fill="#6B441A"/>
<path d="M12.8984 175.462C12.8984 176.58 12.1279 177.481 11.1725 177.481C10.217 177.481 9.44653 176.58 9.44653 175.462C9.44653 174.344 10.217 173.443 11.1725 173.443C12.1279 173.443 12.8984 174.344 12.8984 175.462Z" fill="#6B441A"/>
<path d="M12.8984 202.63C12.8984 203.748 12.1279 204.649 11.1725 204.649C10.217 204.649 9.44653 203.748 9.44653 202.63C9.44653 201.513 10.217 200.611 11.1725 200.611C12.1279 200.611 12.8984 201.513 12.8984 202.63Z" fill="#6B441A"/>
<path d="M12.8984 229.798C12.8984 230.916 12.1279 231.818 11.1725 231.818C10.217 231.818 9.44653 230.916 9.44653 229.798C9.44653 228.681 10.217 227.779 11.1725 227.779C12.1279 227.779 12.8984 228.681 12.8984 229.798Z" fill="#6B441A"/>
<path d="M136.966 177.481C137.919 177.481 138.692 176.577 138.692 175.462C138.692 174.347 137.919 173.443 136.966 173.443C136.012 173.443 135.24 174.347 135.24 175.462C135.24 176.577 136.012 177.481 136.966 177.481Z" fill="#6B441A"/>
<path d="M138.692 202.63C138.692 203.748 137.921 204.649 136.966 204.649C136.01 204.649 135.24 203.748 135.24 202.63C135.24 201.513 136.01 200.611 136.966 200.611C137.921 200.611 138.692 201.513 138.692 202.63Z" fill="#6B441A"/>
<path d="M136.966 231.818C137.919 231.818 138.692 230.914 138.692 229.798C138.692 228.683 137.919 227.779 136.966 227.779C136.012 227.779 135.24 228.683 135.24 229.798C135.24 230.914 136.012 231.818 136.966 231.818Z" fill="#6B441A"/>
<path d="M141.835 72.396H6.30273V147.519H141.835V72.396Z" fill="#6B441A"/>
<path d="M16.042 51.0328H6.30273V147.519H16.042V51.0328Z" fill="#6B441A"/>
<path d="M141.82 51.0328H132.081V147.519H141.82V51.0328Z" fill="#6B441A"/>
<path d="M148.138 123.073H0V143.571H148.138V123.073Z" fill="#6B441A"/>
<path d="M148.138 95.9045H0V116.402H148.138V95.9045Z" fill="#6B441A"/>
<path d="M148.138 68.7363H0V89.2342H148.138V68.7363Z" fill="#6B441A"/>
<path d="M12.8984 78.9762C12.8984 80.094 12.1279 80.9954 11.1725 80.9954C10.217 80.9954 9.44653 80.094 9.44653 78.9762C9.44653 77.8585 10.217 76.9571 11.1725 76.9571C12.1279 76.9571 12.8984 77.8765 12.8984 78.9762Z" fill="#6B441A"/>
<path d="M12.8984 106.162C12.8984 107.28 12.1279 108.182 11.1725 108.182C10.217 108.182 9.44653 107.28 9.44653 106.162C9.44653 105.045 10.217 104.143 11.1725 104.143C12.1279 104.143 12.8984 105.045 12.8984 106.162Z" fill="#6B441A"/>
<path d="M12.8984 133.331C12.8984 134.448 12.1279 135.35 11.1725 135.35C10.217 135.35 9.44653 134.448 9.44653 133.331C9.44653 132.213 10.217 131.311 11.1725 131.311C12.1279 131.311 12.8984 132.213 12.8984 133.331Z" fill="#6B441A"/>
<path d="M136.966 80.9954C137.919 80.9954 138.692 80.0914 138.692 78.9762C138.692 77.8611 137.919 76.9571 136.966 76.9571C136.012 76.9571 135.24 77.8611 135.24 78.9762C135.24 80.0914 136.012 80.9954 136.966 80.9954Z" fill="#6B441A"/>
<path d="M138.692 106.162C138.692 107.28 137.921 108.182 136.966 108.182C136.01 108.182 135.24 107.28 135.24 106.162C135.24 105.045 136.01 104.143 136.966 104.143C137.921 104.125 138.692 105.045 138.692 106.162Z" fill="#6B441A"/>
<path d="M136.966 135.35C137.919 135.35 138.692 134.446 138.692 133.331C138.692 132.215 137.919 131.311 136.966 131.311C136.012 131.311 135.24 132.215 135.24 133.331C135.24 134.446 136.012 135.35 136.966 135.35Z" fill="#6B441A"/>
<path d="M175.337 118.349C175.337 118.349 174.412 116.114 173.226 114.167C172.039 112.202 170.622 110.561 169.866 111.355C169.219 112.022 170.514 114.654 172.101 117.682C173.688 120.675 175.537 124.172 176.431 125.849C176.832 133.331 176.632 140.866 175.846 148.33L176.786 148.474C177.618 140.524 177.787 132.483 177.294 124.479C177.88 122.243 179.066 119.431 179.852 116.817C180.654 114.203 181.054 111.769 180.253 110.579C179.282 109.137 178.604 110.579 178.142 112.328C177.664 114.077 177.387 116.15 177.387 116.15C177.387 116.15 177.34 113.428 176.924 110.651C176.524 107.875 175.753 105.063 174.736 104.919C172.717 104.594 174.166 112.346 175.337 118.349Z" fill="#334C40"/>
<path d="M183.628 121.144C183.628 121.144 183.936 119.071 184.136 116.979C184.337 114.906 184.414 112.779 183.52 112.779C182.78 112.779 182.041 115.591 181.732 118.782C181.393 121.991 181.471 125.507 181.578 127.165C179.406 132.988 177.849 139.118 176.955 145.391L177.741 145.536C178.666 138.991 180.346 132.573 182.688 126.534C183.875 125.164 185.755 123.866 187.357 122.73C188.944 121.558 190.239 120.531 190.27 119.359C190.301 117.935 189.253 118.241 188.143 118.962C187.064 119.683 185.97 120.837 185.97 120.837C185.97 120.837 187.08 119.052 188.174 117.178C189.253 115.285 190.316 113.284 189.854 112.418C188.944 110.687 185.261 116.186 183.628 121.144Z" fill="#334C40"/>
<path d="M166.522 106.866C166.522 106.866 164.704 104.792 162.67 103.242C160.636 101.673 158.448 100.664 157.893 101.944C157.43 103.026 159.819 105.135 162.639 107.695C165.459 110.219 168.695 113.302 170.206 114.888C172.979 123.271 174.674 132.159 175.183 141.137L176.308 141.047C175.769 131.402 173.873 121.883 170.76 112.923C170.714 110.111 171.13 106.343 171.053 102.935C171.022 99.5281 170.514 96.5175 169.127 95.562C167.478 94.4082 167.293 96.4454 167.447 98.6267C167.524 99.7445 167.663 100.916 167.786 101.818C167.925 102.719 168.017 103.332 168.017 103.332C168.017 103.332 167 100.249 165.444 97.3468C163.918 94.4262 161.869 91.7401 160.713 92.1547C159.526 92.5693 160.189 94.6966 161.514 97.473C162.839 100.285 164.812 103.783 166.522 106.866Z" fill="#334C40"/>
<path d="M169.081 125.651C169.081 125.651 168.141 124.569 167.093 123.758C166.045 122.928 164.92 122.334 164.627 123.001C164.38 123.559 165.613 124.731 167.077 126.083C168.541 127.417 170.252 128.986 171.038 129.779C172.579 134.07 173.704 138.559 174.382 143.138L174.952 143.03C174.228 138.126 172.995 133.331 171.3 128.77C171.253 125.903 171.916 120.927 170.483 119.882C169.651 119.287 169.527 120.314 169.589 121.432C169.635 122.568 169.851 123.848 169.851 123.848C169.851 123.848 169.327 122.261 168.572 120.765C167.817 119.251 166.831 117.827 166.214 118.007C164.997 118.367 167.324 122.442 169.081 125.651Z" fill="#334C40"/>
<path d="M174.813 95.544C174.813 95.544 174.813 93.6871 174.736 91.8482C174.644 90.0094 174.459 88.1525 173.688 88.2967C173.041 88.4229 172.748 90.9829 172.872 93.8133C172.979 96.6437 173.503 99.6904 173.827 101.097C172.733 106.523 172.255 112.112 172.455 117.682L173.149 117.646C172.949 111.841 173.488 106 174.705 100.357C175.553 98.9693 177.001 97.509 178.234 96.2651C179.452 94.9851 180.438 93.9034 180.315 92.8939C180.176 91.668 179.298 92.1006 178.419 92.9119C177.572 93.7231 176.786 94.895 176.786 94.895C176.786 94.895 177.525 93.1643 178.234 91.3615C178.928 89.5587 179.621 87.6477 179.113 86.9807C178.142 85.6105 175.584 90.9649 174.813 95.544Z" fill="#334C40"/>
<path d="M183.489 107.01C183.489 107.01 183.813 105.063 184.013 103.116C184.198 101.169 184.275 99.1856 183.443 99.1676C182.734 99.1676 182.071 101.782 181.732 104.738C181.378 107.695 181.347 111.012 181.378 112.562C180.238 115.231 179.19 117.971 178.296 120.765C177.433 123.577 176.647 126.462 176.585 129.509L177.341 129.491C177.387 126.534 178.234 123.487 179.159 120.603C180.114 117.682 181.224 114.834 182.441 112.04C184.799 109.534 189.684 107.551 189.761 105.387C189.807 104.053 188.806 104.342 187.758 105.009C186.725 105.694 185.693 106.775 185.693 106.775C185.693 106.775 186.772 105.099 187.804 103.332C188.821 101.547 189.823 99.6904 189.391 98.8791C188.975 98.0679 187.881 98.8972 186.71 100.574C185.554 102.25 184.321 104.738 183.489 107.01Z" fill="#334C40"/>
<path d="M180.484 139.55C183.165 140.758 184.922 143.913 185.569 147.194C186.217 150.457 185.924 153.883 185.569 157.218C184.121 170.973 181.732 184.602 178.465 197.907C173.472 194.842 172.224 187.288 171.546 180.744C170.976 175.174 170.683 169.423 169.743 163.906C169.204 160.715 167.74 157.614 167.54 154.369C167.077 146.978 173.318 136.305 180.484 139.55Z" fill="#BE4824"/>
<path d="M216.159 136.612C216.159 136.612 216.236 134.142 215.974 131.762C215.712 129.383 215.126 127.147 214.125 127.435C213.277 127.67 213.37 130.717 213.554 134.25C213.755 137.766 213.986 141.858 214.094 143.823C211.443 150.656 208.253 157.2 204.57 163.347L205.341 163.978C209.27 157.416 212.645 150.403 215.419 143.084C216.837 141.425 219.01 139.604 220.751 137.711C222.508 135.837 223.833 133.926 223.602 132.411C223.325 130.608 222.138 131.51 221.028 132.79C219.903 134.07 218.825 135.746 218.825 135.746C218.825 135.746 219.888 133.313 220.628 130.644C221.383 127.976 221.83 125.074 220.998 124.371C219.364 123.037 217.53 130.662 216.159 136.612Z" fill="#334C40"/>
<path d="M222.369 143.625C222.369 143.625 223.479 141.948 224.496 140.235C225.497 138.505 226.422 136.666 225.636 136.179C224.973 135.764 223.217 137.856 221.645 140.488C220.058 143.12 218.717 146.275 218.147 147.807C213.893 151.755 210.056 156.316 206.759 161.364L207.39 161.923C210.842 156.641 214.88 151.918 219.379 147.843C220.982 147.284 223.17 147.176 225.035 147.032C226.9 146.87 228.456 146.671 228.949 145.662C229.55 144.436 228.487 144.111 227.223 144.147C225.975 144.202 224.557 144.616 224.557 144.616C224.557 144.616 226.252 143.661 227.978 142.597C229.689 141.515 231.43 140.326 231.369 139.316C231.245 137.315 225.79 140.145 222.369 143.625Z" fill="#334C40"/>
<path d="M212.984 121.649C212.984 121.649 212.214 118.818 211.027 116.33C209.856 113.824 208.33 111.733 207.329 112.562C206.481 113.265 207.76 116.438 209.209 120.242C210.688 124.028 212.322 128.517 213.015 130.735C212.106 139.676 210.041 148.438 206.882 156.641L207.914 157.182C211.305 148.366 213.447 138.919 214.294 129.31C215.388 126.805 217.253 123.704 218.563 120.657C219.903 117.628 220.659 114.69 219.811 113.085C218.809 111.174 217.838 112.851 217.099 114.87C216.714 115.898 216.359 117.015 216.128 117.881C215.881 118.746 215.727 119.341 215.727 119.341C215.727 119.341 216.066 116.06 215.851 112.635C215.666 109.209 214.941 105.73 213.755 105.441C212.537 105.153 212.275 107.406 212.322 110.579C212.368 113.806 212.707 117.971 212.984 121.649Z" fill="#334C40"/>
<path d="M207.699 139.622C207.699 139.622 207.298 138.162 206.697 136.864C206.111 135.548 205.341 134.412 204.817 134.845C204.37 135.206 205.002 136.918 205.742 138.919C206.497 140.902 207.375 143.228 207.76 144.364C207.406 148.997 206.589 153.576 205.356 157.993L205.911 158.209C207.236 153.486 208.069 148.564 208.408 143.607C209.517 141.065 212.106 137.008 211.243 135.314C210.75 134.322 210.226 135.17 209.825 136.197C209.409 137.243 209.086 138.487 209.086 138.487C209.086 138.487 209.255 136.81 209.193 135.043C209.132 133.295 208.824 131.492 208.223 131.311C207.021 130.951 207.437 135.837 207.699 139.622Z" fill="#334C40"/>
<path d="M224.85 116.186C224.85 116.186 225.59 114.545 226.268 112.887C226.931 111.21 227.516 109.48 226.777 109.173C226.16 108.939 224.866 111.03 223.833 113.59C222.785 116.15 222.03 119.125 221.753 120.549C218.609 124.731 215.943 129.419 213.878 134.43L214.51 134.791C216.667 129.545 219.487 124.695 222.816 120.387C224.126 119.629 225.991 119.143 227.578 118.71C229.165 118.259 230.475 117.827 230.783 116.871C231.153 115.717 230.198 115.609 229.103 115.844C228.04 116.096 226.854 116.691 226.854 116.691C226.854 116.691 228.194 115.573 229.55 114.365C230.891 113.157 232.263 111.841 232.093 110.976C231.769 109.227 227.362 112.562 224.85 116.186Z" fill="#334C40"/>
<path d="M227.917 131.077C227.917 131.077 228.98 129.545 229.935 127.922C230.891 126.3 231.754 124.587 231.014 124.118C230.398 123.74 228.749 125.669 227.269 128.103C225.759 130.518 224.419 133.421 223.818 134.827C221.737 136.558 219.718 138.397 217.808 140.38C215.928 142.381 214.063 144.508 212.799 147.158L213.462 147.555C214.695 144.977 216.652 142.741 218.64 140.704C220.643 138.649 222.785 136.756 224.973 134.953C228.055 134.034 233.172 134.971 234.096 133.096C234.682 131.942 233.665 131.636 232.478 131.654C231.292 131.69 229.951 132.069 229.951 132.069C229.951 132.069 231.569 131.185 233.202 130.194C234.82 129.166 236.439 128.084 236.392 127.129C236.346 126.192 235.052 126.318 233.341 127.165C231.646 128.012 229.566 129.527 227.917 131.077Z" fill="#334C40"/>
<path d="M212.214 158.155C214.094 160.697 214.371 164.447 213.632 167.692C212.892 170.937 211.258 173.785 209.609 176.544C202.814 187.901 195.247 198.61 187.003 208.58C183.813 203.135 185.754 195.78 187.773 189.614C189.499 184.368 191.549 179.14 192.936 173.767C193.737 170.649 193.691 167.115 194.816 164.141C197.389 157.362 207.175 151.359 212.214 158.155Z" fill="#BE4824"/>
<path d="M196.834 117.376C196.834 117.376 196.511 114.419 195.802 111.679C195.093 108.921 194.014 106.415 192.889 106.974C191.934 107.46 192.55 111.03 193.367 115.176C194.199 119.305 195.154 124.082 195.617 126.39C193.629 135.079 190.947 143.571 187.619 151.683L188.636 152.26C192.18 143.589 195 134.521 197.035 125.218C198.421 122.947 200.687 120.278 202.443 117.646C204.216 115.032 205.464 112.454 204.94 110.724C204.308 108.65 203.06 109.984 201.966 111.769C200.856 113.554 199.87 115.771 199.87 115.771C199.87 115.771 200.718 112.653 201.149 109.317C201.596 105.982 201.627 102.449 200.533 101.818C198.344 100.574 197.466 110.02 196.834 117.376Z" fill="#59A681"/>
<path d="M205.356 124.263C205.356 124.263 206.373 122.027 207.298 119.756C208.192 117.484 208.978 115.086 207.976 114.69C207.128 114.365 205.387 117.232 203.985 120.711C202.551 124.19 201.488 128.247 201.087 130.176C196.711 135.837 192.935 142.11 189.884 148.853L190.732 149.376C193.922 142.345 197.913 135.8 202.551 129.977C204.354 128.95 206.913 128.319 209.101 127.724C211.274 127.111 213.092 126.516 213.508 125.2C214.017 123.614 212.707 123.469 211.212 123.794C209.748 124.136 208.13 124.966 208.13 124.966C208.13 124.966 209.979 123.433 211.828 121.793C213.662 120.116 215.527 118.313 215.28 117.142C214.818 114.744 208.839 119.341 205.356 124.263Z" fill="#59A681"/>
<path d="M190.562 100.393C190.562 100.393 189.175 97.2206 187.357 94.5524C185.539 91.8663 183.397 89.7209 182.349 90.9468C181.47 91.9744 183.504 95.4358 185.862 99.6003C188.251 103.729 190.932 108.668 192.119 111.156C192.535 121.937 191.579 132.79 189.206 143.228L190.516 143.643C193.043 132.429 193.999 120.765 193.382 109.191C194.245 105.982 195.941 101.872 196.973 97.9777C198.052 94.0837 198.452 90.442 197.189 88.7294C195.679 86.6922 194.816 88.9097 194.276 91.4696C193.999 92.7677 193.768 94.1738 193.629 95.2555C193.49 96.3372 193.398 97.0944 193.398 97.0944C193.398 97.0944 193.244 93.1282 192.412 89.144C191.626 85.1418 190.177 81.1757 188.729 81.1216C187.249 81.0675 187.311 83.7717 187.896 87.5215C188.528 91.2713 189.622 96.1209 190.562 100.393Z" fill="#59A681"/>
<path d="M187.342 122.892C187.342 122.892 186.617 121.252 185.693 119.846C184.768 118.44 183.674 117.268 183.135 117.881C182.672 118.403 183.69 120.278 184.922 122.478C186.155 124.659 187.573 127.201 188.236 128.445C188.59 134.016 188.405 139.622 187.681 145.139L188.374 145.265C189.145 139.37 189.299 133.367 188.867 127.417C189.746 124.154 192.134 118.764 190.84 116.961C190.085 115.916 189.607 117.015 189.314 118.331C188.991 119.647 188.837 121.198 188.837 121.198C188.837 121.198 188.759 119.161 188.39 117.105C188.02 115.05 187.357 112.977 186.617 112.905C185.076 112.797 186.386 118.458 187.342 122.892Z" fill="#59A681"/>
<path d="M203.676 91.2172C203.676 91.2172 204.277 89.108 204.786 86.9807C205.279 84.8534 205.68 82.654 204.755 82.4737C203.985 82.3294 202.798 85.1058 202.027 88.3869C201.211 91.6679 200.825 95.3457 200.733 97.0944C197.713 102.773 195.355 108.921 193.752 115.339L194.554 115.609C196.218 108.921 198.73 102.521 201.966 96.6437C203.384 95.4358 205.51 94.4262 207.313 93.5609C209.116 92.6595 210.596 91.8663 210.796 90.6584C211.027 89.1981 209.887 89.3063 208.638 89.8291C207.421 90.3699 206.127 91.3615 206.127 91.3615C206.127 91.3615 207.529 89.7209 208.931 87.9902C210.318 86.2415 211.72 84.3846 211.366 83.4111C210.719 81.392 206.065 86.3497 203.676 91.2172Z" fill="#59A681"/>
<path d="M209.825 108.128C209.825 108.128 210.827 106.054 211.69 103.927C212.537 101.8 213.277 99.5642 212.322 99.1856C211.52 98.8791 209.902 101.547 208.561 104.756C207.19 107.965 206.08 111.715 205.603 113.5C203.43 116.024 201.349 118.656 199.423 121.45C197.528 124.263 195.679 127.183 194.631 130.626L195.494 130.933C196.511 127.598 198.468 124.515 200.471 121.63C202.505 118.746 204.709 116.006 207.005 113.374C210.503 111.571 216.713 111.517 217.484 109.083C217.977 107.587 216.744 107.46 215.326 107.749C213.94 108.073 212.399 108.831 212.399 108.831C212.399 108.831 214.171 107.424 215.927 105.856C217.669 104.27 219.41 102.611 219.194 101.493C218.994 100.393 217.469 100.844 215.604 102.232C213.708 103.639 211.505 105.91 209.825 108.128Z" fill="#59A681"/>
<path d="M195.786 143.787C198.437 146.365 199.408 150.728 199.069 154.73C198.73 158.732 197.297 162.482 195.802 166.124C189.669 181.123 182.518 195.545 174.443 209.229C169.759 203.514 170.806 194.373 172.178 186.621C173.334 180.023 174.89 173.353 175.614 166.682C176.046 162.806 175.383 158.642 176.215 154.856C178.126 146.239 188.682 136.882 195.786 143.787Z" fill="#E7663F"/>
<path d="M147.922 162.572C148.415 159.075 147.26 155.163 144.702 153.288C142.128 151.413 138.245 152.17 136.735 155.235C135.055 154.658 134.901 151.791 135.825 150.043C136.75 148.312 138.306 147.14 139.246 145.427C140.464 143.21 140.448 140.145 139.216 137.928C137.983 135.71 135.579 134.484 133.36 134.899C131.788 135.206 130.386 136.233 128.891 136.864C127.396 137.513 125.547 137.711 124.329 136.504C122.48 134.683 123.251 131.275 123.651 128.481C124.268 124.082 123.466 119.449 121.432 115.681C120.076 113.157 117.626 110.868 115.191 111.733C113.095 112.472 112.001 115.339 112.202 117.881C112.402 120.423 113.604 122.694 114.821 124.821C112.309 122.947 108.626 125.362 107.948 128.77C107.286 132.177 108.981 135.728 111.369 137.838C113.758 139.947 116.717 140.884 119.598 141.804C117.241 141.768 115.006 143.931 114.59 146.635C114.174 149.34 115.653 152.278 117.872 153.179C113.635 152.981 108.765 153.702 106.361 157.795C104.08 161.707 105.313 167.584 108.58 170.36C111.847 173.155 116.563 172.992 120.045 170.595C123.312 168.341 125.547 166.737 127.951 170.919C129.384 173.425 130.555 175.444 133.36 175.588C139.447 175.913 146.905 169.711 147.922 162.572Z" fill="#2E6F58"/>
<path d="M115.592 114.527C118.319 118.385 119.599 123.289 120.739 128.012C121.864 132.79 122.619 137.675 123.898 142.363C125.177 147.068 126.718 151.665 128.444 156.154C130.155 160.661 132.158 164.988 134.177 169.351L134.115 169.405C131.696 165.348 129.507 161.058 127.751 156.533C125.963 152.026 124.607 147.302 123.374 142.561C122.157 137.784 121.448 132.898 120.415 128.121C119.367 123.379 118.181 118.494 115.546 114.6L115.592 114.527Z" fill="#59A681"/>
<path d="M110.738 129.076C113.234 130.428 115.9 131.33 118.304 132.97C119.506 133.763 120.646 134.773 121.54 136.053C122.403 137.351 122.989 138.901 123.158 140.524H123.127C122.742 138.973 122.141 137.531 121.247 136.341C120.384 135.115 119.306 134.142 118.15 133.295C115.823 131.618 113.172 130.608 110.722 129.13L110.738 129.076Z" fill="#59A681"/>
<path d="M135.979 138.541C134.639 139.983 133.514 141.678 132.528 143.444C131.541 145.229 130.709 147.122 130.108 149.123C129.523 151.124 129.122 153.198 129.106 155.307C129.06 157.398 129.43 159.507 130.247 161.418L130.216 161.436C129.199 159.634 128.737 157.452 128.721 155.289C128.737 153.125 129.153 150.998 129.815 148.997C131.141 145.013 133.236 141.353 135.949 138.505L135.979 138.541Z" fill="#59A681"/>
<path d="M109.936 159.76C111.878 160.427 113.928 160.355 115.931 160.301C117.95 160.228 119.968 160.084 122.002 160.138C124.021 160.174 126.086 160.409 128.012 161.292C129.908 162.193 131.588 163.87 132.451 166.033L132.42 166.051C131.372 164.032 129.769 162.464 127.889 161.707C126.025 160.877 124.006 160.625 122.002 160.499C119.999 160.409 117.98 160.499 115.946 160.517C113.928 160.517 111.863 160.535 109.936 159.796V159.76Z" fill="#59A681"/>
<path d="M118.967 146.473C120.276 146.419 121.617 146.545 122.896 146.996C123.543 147.212 124.175 147.519 124.715 148.005C125.239 148.51 125.685 149.177 125.84 149.952L125.809 149.971C125.454 149.322 125.023 148.781 124.499 148.366C123.99 147.915 123.405 147.609 122.819 147.338C121.602 146.816 120.292 146.581 118.997 146.509L118.967 146.473Z" fill="#59A681"/>
<path d="M159.434 149.844C163.055 148.781 165.767 144.436 165.521 140.055C165.274 135.692 162.1 131.798 158.386 131.293C156.429 131.041 154.395 131.6 152.53 130.861C148.138 129.13 147.845 121.865 149.448 116.781C151.066 111.697 153.778 106.451 152.499 101.241C150.819 94.4443 142.005 92.5333 137.844 97.6532C133.683 102.773 135.024 112.13 140.002 116.15C137.058 113.41 132.296 113.915 129.831 117.232C127.35 120.549 127.566 126.119 130.278 129.166C132.235 131.366 135.039 132.123 137.443 133.583C139.847 135.043 142.128 137.964 141.45 141.047C140.741 144.292 137.397 145.463 135.363 147.825C133.005 150.547 132.574 155.235 134.377 158.48C136.18 161.725 140.032 163.149 143.099 161.725C140.972 162.716 142.683 170.54 143.33 172.037C144.979 175.841 148.154 177.752 151.451 179.176C156.475 181.357 160.882 181.483 165.428 177.932C170.622 173.876 176.123 166.051 173.904 158.39C171.993 151.845 165.089 147.591 159.434 149.844Z" fill="#59A681"/>
<path d="M146.258 96.0307C143.731 109.75 144.039 124.1 146.874 137.675C148.323 144.454 150.373 151.052 152.992 157.326C155.52 163.672 158.756 169.585 162.393 175.156L162.331 175.21C158.324 169.964 155.057 163.978 152.299 157.723C149.633 151.395 147.614 144.706 146.273 137.838C143.546 124.118 143.423 109.678 146.181 96.0127L146.258 96.0307Z" fill="#D1E0D6"/>
<path d="M144.332 118.782C144.101 115.627 143.515 112.562 142.76 109.552C141.943 106.559 140.911 103.621 139.663 100.826L139.693 100.808C141.05 103.548 142.159 106.451 143.053 109.444C143.5 110.94 143.854 112.472 144.132 114.041C144.347 115.609 144.471 117.214 144.378 118.8H144.332V118.782Z" fill="#D1E0D6"/>
<path d="M144.625 123.614C144.501 122.027 144.501 120.405 144.748 118.818C144.995 117.232 145.38 115.681 145.919 114.221C146.952 111.264 148.416 108.506 150.234 106.144L150.265 106.18C148.523 108.614 147.167 111.409 146.212 114.365C145.734 115.843 145.38 117.376 145.133 118.908C144.825 120.441 144.763 122.027 144.656 123.614H144.625Z" fill="#D1E0D6"/>
<path d="M145.935 134.448C145.349 132.646 144.794 130.861 143.885 129.274C143.037 127.67 142.036 126.156 140.865 124.821C138.522 122.171 135.687 120.116 132.62 118.782L132.636 118.746C135.748 119.954 138.661 121.937 141.08 124.551C142.313 125.831 143.361 127.363 144.224 129.022C145.102 130.681 145.611 132.555 145.981 134.412L145.935 134.448Z" fill="#D1E0D6"/>
<path d="M151.96 155.902C151.498 154.117 151.159 152.26 151.189 150.367C151.174 148.474 151.513 146.599 152.068 144.833C153.147 141.281 155.212 138.198 157.785 135.999L157.8 136.035C156.537 137.171 155.443 138.541 154.518 140.037C153.578 141.533 152.854 143.192 152.345 144.941C151.852 146.689 151.559 148.528 151.559 150.367C151.451 152.206 151.729 154.045 151.975 155.884L151.96 155.902Z" fill="#D1E0D6"/>
<path d="M234.697 168.882H99.1646V244.005H234.697V168.882Z" fill="#1D1213"/>
<path d="M108.904 147.519H99.1646V244.005H108.904V147.519Z" fill="#6B441A"/>
<path d="M234.682 147.519H224.943V244.005H234.682V147.519Z" fill="#6B441A"/>
<path d="M241 219.559H92.8618V240.056H241V219.559Z" fill="#8F5F23"/>
<path d="M241 192.39H92.8618V212.888H241V192.39Z" fill="#8F5F23"/>
<path d="M241 165.222H92.8618V185.72H241V165.222Z" fill="#8F5F23"/>
<path d="M104.034 177.481C104.988 177.481 105.76 176.577 105.76 175.462C105.76 174.347 104.988 173.443 104.034 173.443C103.081 173.443 102.308 174.347 102.308 175.462C102.308 176.577 103.081 177.481 104.034 177.481Z" fill="#D1E0D6"/>
<path d="M105.76 202.63C105.76 203.748 104.99 204.649 104.034 204.649C103.079 204.649 102.308 203.748 102.308 202.63C102.308 201.513 103.079 200.611 104.034 200.611C104.99 200.611 105.76 201.513 105.76 202.63Z" fill="#D1E0D6"/>
<path d="M104.034 231.818C104.988 231.818 105.76 230.914 105.76 229.798C105.76 228.683 104.988 227.779 104.034 227.779C103.081 227.779 102.308 228.683 102.308 229.798C102.308 230.914 103.081 231.818 104.034 231.818Z" fill="#D1E0D6"/>
<path d="M231.553 175.462C231.553 176.58 230.783 177.481 229.827 177.481C228.872 177.481 228.102 176.58 228.102 175.462C228.102 174.344 228.872 173.443 229.827 173.443C230.783 173.443 231.553 174.344 231.553 175.462Z" fill="#D1E0D6"/>
<path d="M231.553 202.63C231.553 203.748 230.783 204.649 229.827 204.649C228.872 204.649 228.102 203.748 228.102 202.63C228.102 201.513 228.872 200.611 229.827 200.611C230.783 200.611 231.553 201.513 231.553 202.63Z" fill="#D1E0D6"/>
<path d="M231.553 229.798C231.553 230.916 230.783 231.818 229.827 231.818C228.872 231.818 228.102 230.916 228.102 229.798C228.102 228.681 228.872 227.779 229.827 227.779C230.783 227.779 231.553 228.681 231.553 229.798Z" fill="#D1E0D6"/>
</svg>
