<svg width="653" height="446" viewBox="0 0 653 446" fill="none" xmlns="http://www.w3.org/2000/svg">
<g filter="url(#filter0_d_6_746)">
<path d="M588.085 425.818C588.085 425.818 558.615 363.671 584.526 350.089C610.438 336.507 602.569 382.085 602.569 382.085C602.569 382.085 593.117 416.166 592.846 425.818C592.576 435.471 588.085 425.818 588.085 425.818Z" fill="#ADEAC9"/>
<path d="M591.102 430.209C583.163 384.47 591.032 354.6 591.102 354.309L592.104 354.59C592.024 354.88 584.226 384.541 592.104 430.028L591.102 430.209Z" fill="#50D171"/>
<path d="M587.473 425.337C587.473 425.337 582.371 409.971 569.771 405.2C557.171 400.428 542.707 389.051 550.215 379.93C557.723 370.808 578.362 382.325 584.927 407.705C589.388 425.006 587.473 425.337 587.473 425.337Z" fill="#ADEAC9"/>
<path d="M586.962 425.508C581.189 407.886 573.3 397.581 567.707 392.038C561.692 386.024 556.881 384.18 556.831 384.17L557.212 383.167C557.412 383.238 562.224 385.102 568.408 391.186C574.112 396.81 582.131 407.224 587.985 425.137L586.962 425.508Z" fill="#50D171"/>
<path d="M591.112 427.222C591.112 427.222 596.214 411.865 608.804 407.094C621.394 402.323 635.868 390.946 628.37 381.824C620.873 372.703 600.214 384.21 593.658 409.59C589.198 426.841 591.112 427.222 591.112 427.222Z" fill="#ADEAC9"/>
<path d="M591.623 427.392L590.621 427.061C596.475 409.189 604.504 398.734 610.207 393.101C616.422 386.976 621.233 385.082 621.394 385.082L621.775 386.084C621.554 386.124 602.659 393.682 591.623 427.392Z" fill="#50D171"/>
<path d="M591.573 430.209C591.573 430.209 597.648 421.398 606.519 420.696C615.39 419.995 626.707 415.444 623.559 408.257C620.412 401.07 605.246 404.588 596.405 419.483C590.39 429.617 591.573 430.209 591.573 430.209Z" fill="#ADEAC9"/>
<path d="M591.864 430.409L591.282 430.008C604.704 410.342 618.417 409.029 618.557 409.019L618.617 409.73C615.666 410.198 612.83 411.218 610.257 412.737C605.687 415.203 598.78 420.285 591.864 430.409Z" fill="#50D171"/>
<path d="M591.864 430.409C591.864 430.409 585.79 421.598 576.919 420.897C568.048 420.195 556.731 415.644 559.878 408.457C563.026 401.27 578.182 404.789 587.033 419.684C593.007 429.818 591.864 430.409 591.864 430.409Z" fill="#ADEAC9"/>
<path d="M591.573 430.61C578.362 411.224 564.96 409.971 564.83 409.971V409.259C564.97 409.259 578.683 410.582 592.114 430.249L591.573 430.61Z" fill="#50D171"/>
<path d="M564.459 430.92C564.459 430.92 583.504 413.018 596.445 420.486C596.445 420.486 608.864 411.996 615.66 419.724C615.66 419.724 638.995 419.473 645.01 431.231L564.459 430.92Z" fill="#ADEAC9"/>
<path d="M43.9464 425.818C43.9464 425.818 14.4866 363.671 40.398 350.089C66.3093 336.507 58.4407 382.085 58.4407 382.085C58.4407 382.085 48.9983 416.166 48.7277 425.818C48.457 435.471 43.9464 425.818 43.9464 425.818Z" fill="#ADEAC9"/>
<path d="M46.9635 430.209C39.0347 384.47 46.9033 354.6 46.9635 354.309L47.9658 354.59C47.8957 354.88 40.0872 384.541 47.9658 430.028L46.9635 430.209Z" fill="#50D171"/>
<path d="M43.3448 425.337C43.3448 425.337 38.2327 409.971 25.6429 405.2C13.0531 400.428 -1.47132 389.051 6.07656 379.9C13.6244 370.748 34.2332 382.295 40.7888 407.675C45.2493 425.006 43.3448 425.337 43.3448 425.337Z" fill="#ADEAC9"/>
<path d="M42.8237 425.508C37.0801 407.886 29.1714 397.581 23.5681 392.038C17.5539 386.024 12.7525 384.18 12.7024 384.17L13.0833 383.167C13.2838 383.238 18.0952 385.102 24.2698 391.186C29.9733 396.81 38.0023 407.224 43.8562 425.137L42.8237 425.508Z" fill="#50D171"/>
<path d="M46.9736 427.222C46.9736 427.222 52.0857 411.865 64.6755 407.094C77.2653 402.323 91.7897 390.926 84.2419 381.824C76.694 372.723 56.1253 384.21 49.5296 409.59C45.0992 426.841 46.9736 427.222 46.9736 427.222Z" fill="#ADEAC9"/>
<path d="M47.4948 427.392L46.4924 427.061C52.3463 409.189 60.3753 398.734 66.0788 393.101C72.2835 386.976 77.1049 385.082 77.2653 385.082L77.6462 386.084C77.4257 386.124 58.5209 393.682 47.4948 427.392Z" fill="#50D171"/>
<path d="M47.4444 430.209C47.4444 430.209 53.5188 421.398 62.3898 420.696C71.2608 419.995 82.5776 415.444 79.4302 408.257C76.2827 401.07 61.1369 404.588 52.316 419.483C46.3017 429.617 47.4444 430.209 47.4444 430.209Z" fill="#ADEAC9"/>
<path d="M47.7354 430.409L47.1039 430.018C60.5357 410.352 74.2482 409.039 74.3885 409.029V409.74C71.4409 410.209 68.6081 411.229 66.0387 412.747C61.5581 415.203 54.6518 420.285 47.7354 430.409Z" fill="#50D171"/>
<path d="M47.7353 430.409C47.7353 430.409 41.6609 421.598 32.7899 420.897C23.9189 420.195 12.6021 415.644 15.7495 408.457C18.897 401.27 34.0629 404.789 42.9038 419.684C48.878 429.818 47.7353 430.409 47.7353 430.409Z" fill="#ADEAC9"/>
<path d="M47.4445 430.61C34.2031 411.224 20.8315 409.971 20.7012 409.971L20.7513 409.259C20.8916 409.259 34.6041 410.582 48.0359 430.249L47.4445 430.61Z" fill="#50D171"/>
<path d="M20.3304 430.92C20.3304 430.92 39.3755 413.018 52.3162 420.486C52.3162 420.486 64.7356 411.996 71.5317 419.724C71.5317 419.724 94.867 419.473 100.881 431.231L20.3304 430.92Z" fill="#ADEAC9"/>
<path d="M116.608 47.713H580.427C582.553 47.713 584.593 48.5578 586.097 50.0617C587.601 51.5655 588.446 53.6052 588.446 55.732V76.7818H108.589V55.732C108.589 53.6052 109.434 51.5655 110.938 50.0617C112.442 48.5578 114.482 47.713 116.608 47.713Z" fill="#76DFFF"/>
<path d="M108.589 76.7618H588.446V422.581C588.446 424.707 587.601 426.747 586.097 428.251C584.593 429.755 582.553 430.6 580.427 430.6H116.608C114.482 430.6 112.442 429.755 110.938 428.251C109.434 426.747 108.589 424.707 108.589 422.581V76.7618Z" fill="#E6F6FF"/>
<path d="M565.491 200.966H441.468C439.835 200.966 438.511 202.29 438.511 203.923V277.658C438.511 279.291 439.835 280.615 441.468 280.615H565.491C567.124 280.615 568.448 279.291 568.448 277.658V203.923C568.448 202.29 567.124 200.966 565.491 200.966Z" fill="#76DFFF"/>
<path d="M468.452 246.845C478.682 246.845 486.975 238.551 486.975 228.321C486.975 218.09 478.682 209.797 468.452 209.797C458.221 209.797 449.928 218.09 449.928 228.321C449.928 238.551 458.221 246.845 468.452 246.845Z" fill="#FFAB2F"/>
<path d="M561.051 223.239H494.644V233.413H561.051V223.239Z" fill="white"/>
<path d="M561.041 257.189H449.918V267.363H561.041V257.189Z" fill="white"/>
<path d="M565.491 97.4608H441.468C439.835 97.4608 438.511 98.7847 438.511 100.418V174.152C438.511 175.786 439.835 177.109 441.468 177.109H565.491C567.124 177.109 568.448 175.786 568.448 174.152V100.418C568.448 98.7847 567.124 97.4608 565.491 97.4608Z" fill="#76DFFF"/>
<path d="M468.452 143.339C478.682 143.339 486.975 135.046 486.975 124.816C486.975 114.585 478.682 106.292 468.452 106.292C458.221 106.292 449.928 114.585 449.928 124.816C449.928 135.046 458.221 143.339 468.452 143.339Z" fill="#FFAB2F"/>
<path d="M561.051 119.724H494.644V129.898H561.051V119.724Z" fill="white"/>
<path d="M561.041 153.684H449.918V163.858H561.041V153.684Z" fill="white"/>
<path d="M565.752 311.899H356.527C354.893 311.899 353.57 313.222 353.57 314.856V408.638C353.57 410.271 354.893 411.595 356.527 411.595H565.752C567.385 411.595 568.709 410.271 568.709 408.638V314.856C568.709 313.222 567.385 311.899 565.752 311.899Z" fill="#BBE8FC"/>
<path d="M515.744 356.574H434.301V366.748H515.744V356.574Z" fill="white"/>
<path d="M560.219 380.13H434.06V390.304H560.219V380.13Z" fill="white"/>
<path d="M408.991 318.143H373.427C368.638 318.143 364.756 322.023 364.756 326.809C364.756 331.595 368.638 335.474 373.427 335.474H408.991C413.779 335.474 417.661 331.595 417.661 326.809C417.661 322.023 413.779 318.143 408.991 318.143Z" fill="#6ADB97"/>
<path d="M472.341 318.143H436.777C431.988 318.143 428.106 322.023 428.106 326.809C428.106 331.595 431.988 335.474 436.777 335.474H472.341C477.129 335.474 481.011 331.595 481.011 326.809C481.011 322.023 477.129 318.143 472.341 318.143Z" fill="#62B9F9"/>
<path d="M416.98 369.655C416.279 362.96 412.992 356.803 407.819 352.495C402.646 348.188 395.996 346.069 389.284 346.592C382.573 347.114 376.331 350.236 371.887 355.292C367.443 360.349 365.148 366.94 365.491 373.663C365.835 380.386 368.789 386.709 373.726 391.286C378.662 395.863 385.19 398.333 391.92 398.168C398.65 398.004 405.049 395.219 409.756 390.406C414.463 385.594 417.105 379.134 417.12 372.402C417.12 371.47 417.07 370.558 416.98 369.655ZM391.349 388.229C388.337 388.226 385.388 387.362 382.85 385.741C380.311 384.12 378.288 381.808 377.018 379.077C375.747 376.346 375.283 373.309 375.678 370.323C376.074 367.337 377.313 364.526 379.251 362.22C381.189 359.914 383.744 358.209 386.617 357.304C389.491 356.4 392.562 356.335 395.471 357.115C398.38 357.896 401.006 359.491 403.041 361.712C405.075 363.933 406.433 366.689 406.956 369.655C407.118 370.562 407.198 371.481 407.197 372.402C407.198 374.482 406.789 376.543 405.993 378.465C405.196 380.387 404.029 382.133 402.557 383.604C401.085 385.074 399.337 386.239 397.414 387.033C395.49 387.827 393.43 388.233 391.349 388.229Z" fill="#2897FA"/>
<path d="M416.98 369.655H406.956C406.302 366 404.383 362.692 401.535 360.31C398.687 357.927 395.092 356.623 391.379 356.624V346.681C397.726 346.688 403.847 349.035 408.571 353.274C413.295 357.514 416.289 363.346 416.98 369.655Z" fill="#F9C82B"/>
<path d="M324.641 97.4608H137.398C131.862 97.4608 127.374 101.949 127.374 107.485V401.501C127.374 407.037 131.862 411.524 137.398 411.524H324.641C330.177 411.524 334.665 407.037 334.665 401.501V107.485C334.665 101.949 330.177 97.4608 324.641 97.4608Z" fill="#2897FA"/>
<path d="M304.193 209.246H163.86V227.288H304.193V209.246Z" fill="#62B9F9"/>
<path d="M310.528 303.058H146.409V321.1H310.528V303.058Z" fill="#62B9F9"/>
<path d="M246.646 334.572H146.409V352.615H246.646V334.572Z" fill="#62B9F9"/>
<path d="M284.145 244.479H183.908V262.522H284.145V244.479Z" fill="#62B9F9"/>
<path d="M234.026 194.551C252.782 194.551 267.987 179.346 267.987 160.59C267.987 141.834 252.782 126.63 234.026 126.63C215.271 126.63 200.066 141.834 200.066 160.59C200.066 179.346 215.271 194.551 234.026 194.551Z" fill="#E6F6FF"/>
<path d="M144.815 67.2593C147.583 67.2593 149.827 65.0154 149.827 62.2474C149.827 59.4794 147.583 57.2355 144.815 57.2355C142.047 57.2355 139.803 59.4794 139.803 62.2474C139.803 65.0154 142.047 67.2593 144.815 67.2593Z" fill="#2898FB"/>
<path d="M125.72 67.2593C128.488 67.2593 130.732 65.0154 130.732 62.2474C130.732 59.4794 128.488 57.2355 125.72 57.2355C122.952 57.2355 120.708 59.4794 120.708 62.2474C120.708 65.0154 122.952 67.2593 125.72 67.2593Z" fill="#78C2FF"/>
<path d="M466.878 52.7449H186.213C180.677 52.7449 176.189 57.2327 176.189 62.7686C176.189 68.3046 180.677 72.7924 186.213 72.7924H466.878C472.414 72.7924 476.902 68.3046 476.902 62.7686C476.902 57.2327 472.414 52.7449 466.878 52.7449Z" fill="white"/>
<path d="M580.286 61.7663C580.286 63.7488 579.698 65.6868 578.597 67.3352C577.496 68.9835 575.93 70.2683 574.099 71.027C572.267 71.7857 570.252 71.9842 568.307 71.5974C566.363 71.2106 564.577 70.256 563.175 68.8541C561.773 67.4523 560.818 65.6662 560.431 63.7218C560.045 61.7774 560.243 59.7619 561.002 57.9303C561.761 56.0987 563.045 54.5333 564.694 53.4318C566.342 52.3304 568.28 51.7425 570.263 51.7425C572.921 51.7425 575.471 52.7986 577.351 54.6784C579.23 56.5582 580.286 59.1078 580.286 61.7663Z" fill="#CAF0F9"/>
<path d="M570.263 60.9343C571.818 60.9343 573.079 59.6732 573.079 58.1176C573.079 56.562 571.818 55.301 570.263 55.301C568.707 55.301 567.446 56.562 567.446 58.1176C567.446 59.6732 568.707 60.9343 570.263 60.9343Z" fill="#78C2FF"/>
<path d="M576.277 66.2769V69.7752C574.542 71.0765 572.431 71.78 570.263 71.78C568.094 71.78 565.983 71.0765 564.248 69.7752V66.2769C564.248 65.2135 564.671 64.1937 565.423 63.4418C566.175 62.6899 567.195 62.2674 568.258 62.2674H572.267C573.331 62.2674 574.351 62.6899 575.103 63.4418C575.854 64.1937 576.277 65.2135 576.277 66.2769Z" fill="#78C2FF"/>
<path d="M597.818 201.648C599.579 205.478 602.728 208.498 606.629 210.098C612.934 212.483 608.884 218.678 608.884 218.678C608.884 218.678 612.102 223.559 608.052 225.584C604.002 227.609 601.978 227.368 601.035 227.128C601.035 227.128 598.89 234.034 588.776 230.135C578.662 226.236 586.872 220.111 586.872 220.111C586.872 220.111 582.662 213.927 588.806 207.572C588.806 207.572 590.47 205.416 589.969 200.645" fill="#070707"/>
<path d="M620.01 280.294C620.191 277.186 615.5 273.087 617.003 269.709C620.271 262.651 623.952 255.793 628.029 249.17C628.741 244.058 620.131 233.673 615.209 232.13L603.421 229.674C601.355 229.032 599.143 229.032 597.076 229.674L590.15 233.122C585.218 234.676 579.023 240.53 579.735 245.642C579.735 245.642 584.476 279.131 593.768 289.265L620.01 280.294Z" fill="#E8878B"/>
<path d="M600.414 238.565C601.282 238.565 602.141 238.383 602.935 238.031C603.728 237.679 604.439 237.163 605.021 236.519C605.603 235.875 606.043 235.116 606.313 234.29C606.583 233.465 606.677 232.592 606.589 231.729L605.065 216.864C604.948 215.711 604.408 214.642 603.549 213.864C602.69 213.086 601.573 212.655 600.414 212.654C599.254 212.653 598.134 213.083 597.273 213.861C596.411 214.639 595.87 215.709 595.753 216.864L594.239 231.729C594.151 232.592 594.245 233.465 594.515 234.29C594.785 235.116 595.225 235.875 595.807 236.519C596.389 237.163 597.1 237.679 597.894 238.031C598.687 238.383 599.546 238.565 600.414 238.565Z" fill="#E8878B"/>
<path d="M594.717 215.134C595.226 213.437 594.263 211.649 592.567 211.14C590.87 210.631 589.082 211.594 588.573 213.291C588.064 214.987 589.026 216.776 590.723 217.285C592.42 217.794 594.208 216.831 594.717 215.134Z" stroke="white" stroke-width="0.476704" stroke-miterlimit="10"/>
<path d="M594.56 228.682C594.56 228.682 603.582 228.682 605.356 219.56L595.763 216.884L594.56 228.682Z" fill="#D6656D"/>
<path d="M600.414 222.878H600.424C605.921 222.878 610.378 218.421 610.378 212.924V203.953C610.378 198.456 605.921 193.999 600.424 193.999H600.414C594.917 193.999 590.461 198.456 590.461 203.953V212.924C590.461 218.421 594.917 222.878 600.414 222.878Z" fill="#E8878B"/>
<path d="M605.697 203.482C605.697 203.482 604.754 201.788 597.377 201.547C597.377 201.547 592.135 205.837 589.037 200.354C585.94 194.871 594.721 182.863 600.354 192.145C600.354 192.145 605.506 190.19 611.661 193.809C614.558 195.62 616.713 198.407 617.735 201.668C619.5 205.496 622.647 208.515 626.546 210.118C632.861 212.503 628.812 218.698 628.812 218.698C628.812 218.698 632.029 223.579 627.98 225.604C623.93 227.629 621.905 227.388 620.963 227.148C620.963 227.148 618.818 234.054 608.694 230.155C598.57 226.256 606.789 220.131 606.789 220.131C606.789 220.131 601.607 215.961 607.681 212.634C607.671 212.603 607.291 205.667 605.697 203.482Z" fill="#070707"/>
<path d="M607.731 212.443C609.075 212.443 610.167 210.669 610.167 209.246C610.167 207.822 609.075 207.301 607.731 207.301V212.443Z" fill="#E8878B"/>
<path d="M609.085 208.965C608.804 209.179 608.581 209.46 608.436 209.782C608.291 210.104 608.228 210.457 608.253 210.809C608.496 210.643 608.791 210.569 609.085 210.599" stroke="#B73D46" stroke-width="0.286022" stroke-miterlimit="10"/>
<path d="M598.63 208.614C598.63 208.614 598.189 212.623 597.628 213.375C597.066 214.127 599.081 213.886 599.081 213.886" stroke="#B73D46" stroke-width="0.286022" stroke-miterlimit="10"/>
<path d="M600.254 217.254C599.544 217.59 598.769 217.764 597.983 217.764C597.198 217.764 596.423 217.59 595.713 217.254" stroke="#B73D46" stroke-width="0.286022" stroke-miterlimit="10"/>
<path d="M592.676 209.125C593.169 209.125 593.568 208.726 593.568 208.233C593.568 207.74 593.169 207.341 592.676 207.341C592.183 207.341 591.784 207.74 591.784 208.233C591.784 208.726 592.183 209.125 592.676 209.125Z" fill="#070707"/>
<path d="M594.801 207.04L595.122 206.649C594.401 206.049 593.498 205.711 592.56 205.691C591.622 205.671 590.705 205.97 589.959 206.539L590.28 206.93C590.93 206.423 591.736 206.158 592.56 206.178C593.384 206.198 594.176 206.503 594.801 207.04Z" fill="#070707"/>
<path d="M603.06 209.346C603.553 209.346 603.952 208.946 603.952 208.454C603.952 207.961 603.553 207.562 603.06 207.562C602.568 207.562 602.168 207.961 602.168 208.454C602.168 208.946 602.568 209.346 603.06 209.346Z" fill="#070707"/>
<path d="M605.185 207.261L605.506 206.87C604.787 206.27 603.884 205.933 602.947 205.915C602.011 205.897 601.096 206.198 600.354 206.77L600.664 207.161C601.314 206.653 602.119 206.385 602.943 206.403C603.767 206.422 604.559 206.725 605.185 207.261Z" fill="#070707"/>
<path d="M608.954 214.177C608.954 214.177 606.168 217.465 608.884 218.678" stroke="white" stroke-width="0.476704" stroke-miterlimit="10"/>
<path d="M626.356 222.878C626.356 222.878 625.514 226.005 620.341 224.782" stroke="white" stroke-width="0.476704" stroke-miterlimit="10"/>
<path d="M589.959 223.409C589.959 223.409 586.11 225.855 591.603 228.772" stroke="white" stroke-width="0.476704" stroke-miterlimit="10"/>
<path d="M605.379 201.861C606.037 199.666 604.791 197.352 602.596 196.694C600.401 196.035 598.088 197.281 597.429 199.476C596.77 201.671 598.016 203.985 600.211 204.643C602.406 205.302 604.72 204.056 605.379 201.861Z" fill="#070707"/>
<path d="M587.945 256.307L555.989 284.113C553.292 286.468 549.604 287.19 547.148 284.574C546.546 283.93 546.077 283.173 545.77 282.347C545.462 281.52 545.321 280.641 545.356 279.76C545.39 278.879 545.599 278.014 545.971 277.214C546.342 276.414 546.868 275.696 547.519 275.101L581.96 243.797L587.945 256.307Z" fill="#E8878B"/>
<path d="M563.757 260.357C563.757 260.357 564.96 267.604 570.583 271.383L575.255 267.323L567.416 256.999L563.757 260.357Z" fill="#D6656D"/>
<path d="M545.043 252.869L557.733 276.655L545.915 282.599L536.964 256.537C536.693 255.717 536.714 254.828 537.024 254.022C537.387 252.99 538.012 252.071 538.838 251.355C539.781 250.623 541.364 250.764 542.587 251.034C543.104 251.148 543.59 251.37 544.014 251.686C544.437 252.002 544.788 252.406 545.043 252.869Z" fill="#E8878B"/>
<path d="M545.173 252.257C545.206 252.806 545.331 253.345 545.544 253.851L547.288 258.021C547.288 258.021 547.96 259.705 544.101 261.279C540.242 262.852 539.891 261.429 539.891 261.429L534.628 252.688L533.516 251.065C532.819 250.06 532.395 248.893 532.283 247.677L531.802 242.554C531.766 242.248 531.833 241.939 531.993 241.676C532.153 241.413 532.396 241.21 532.684 241.101C533.255 240.9 534.027 241.101 534.819 242.504C536.402 245.401 535.611 247.035 539.76 247.516C540.794 247.104 541.908 246.929 543.018 247.005C543.43 247.046 543.823 247.197 544.156 247.442C544.49 247.687 544.751 248.017 544.913 248.398L545.173 252.257Z" fill="#E8878B"/>
<path d="M536.102 235.969C536.164 235.887 536.246 235.823 536.341 235.783C536.435 235.743 536.539 235.729 536.641 235.742C536.743 235.756 536.839 235.796 536.921 235.858C537.002 235.921 537.065 236.004 537.104 236.099C537.261 236.467 537.335 236.866 537.321 237.266C537.307 237.666 537.206 238.058 537.024 238.415C536.172 240.419 535.37 241.752 536.112 244.429C536.854 247.105 537.976 249.782 537.976 249.782L535.581 248.849C535.581 248.849 533.055 245.642 533.125 242.284C533.135 239.658 535.17 237.041 536.102 235.969Z" fill="#E8878B"/>
<path d="M542.507 250.884C543.863 250.884 544.963 249.785 544.963 248.428C544.963 247.072 543.863 245.972 542.507 245.972C541.151 245.972 540.051 247.072 540.051 248.428C540.051 249.785 541.151 250.884 542.507 250.884Z" fill="#E8878B"/>
<path d="M540.201 241.011L541.896 242.374C542.401 242.783 542.808 243.301 543.088 243.888L544.822 247.626L540.312 247.326C540.312 247.326 541.003 245.652 540.041 244.72C539.334 243.945 538.852 242.992 538.648 241.963C538.625 241.772 538.657 241.579 538.741 241.407C538.824 241.234 538.956 241.089 539.119 240.988C539.283 240.888 539.472 240.837 539.664 240.841C539.855 240.845 540.042 240.904 540.201 241.011Z" fill="#E8878B"/>
<path d="M537.976 235.137C538.06 235.089 538.154 235.064 538.25 235.062C538.346 235.061 538.441 235.084 538.526 235.129C538.611 235.173 538.683 235.239 538.736 235.319C538.789 235.4 538.82 235.492 538.828 235.588C538.853 235.986 538.79 236.385 538.642 236.756C538.495 237.127 538.268 237.46 537.976 237.733C536.483 239.357 535.28 240.319 535.089 243.036C534.97 244.921 534.947 246.811 535.019 248.699L533.085 247.005C533.085 247.005 531.791 243.136 533.004 239.988C533.927 237.563 536.723 235.828 537.976 235.137Z" fill="#E8878B"/>
<path d="M536.713 234.405C536.791 234.35 536.882 234.315 536.978 234.304C537.073 234.293 537.169 234.306 537.258 234.341C537.347 234.377 537.425 234.435 537.486 234.509C537.547 234.583 537.588 234.672 537.605 234.766C537.668 235.162 537.643 235.567 537.53 235.952C537.417 236.337 537.221 236.692 536.954 236.991C535.611 238.735 534.508 239.808 534.558 242.534C534.613 244.422 534.763 246.305 535.009 248.178L532.193 246.744C532.193 246.744 531.391 242.264 532.193 239.728C532.994 237.192 535.53 235.197 536.713 234.405Z" fill="#E8878B"/>
<path d="M586.461 234.485C586.461 234.485 580.798 235.768 565.582 258.161C565.582 258.161 567.656 268.676 576.798 271.513C576.798 271.513 587.273 265.278 591.202 258.602" fill="#FFAB2F"/>
<path d="M578.783 270.571C569.421 266.401 567.105 256.658 567.005 256.247L568.007 256.026C568.007 256.127 570.313 265.689 579.204 269.649L578.783 270.571Z" fill="white"/>
<path d="M553.854 269.348L553.162 271.934" stroke="black" stroke-width="0.286022" stroke-miterlimit="10"/>
<path d="M604.774 436.664H572.769C572.267 433.657 574.402 433.025 574.402 433.025C579.867 431.823 584.962 429.323 589.258 425.738C593.598 422.41 593.397 414.812 593.397 414.812H604.283L604.774 436.664Z" fill="#E8878B"/>
<path d="M574.402 433.025C575.849 432.714 577.278 432.326 578.683 431.863C580.713 431.116 582.662 430.163 584.496 429.016C587.333 430.61 595.192 432.825 604.804 434.028V436.634H572.769C572.267 433.647 574.402 433.025 574.402 433.025Z" fill="#1C3D4F"/>
<path d="M572.698 436.664V437.957H604.193L604.504 436.664H572.698Z" fill="#FFF3F3"/>
<path d="M593.397 414.812L591.513 376.722C591.56 375.377 592.127 374.102 593.096 373.167C594.065 372.232 595.359 371.709 596.705 371.71C597.419 371.711 598.125 371.859 598.779 372.145C599.434 372.43 600.022 372.847 600.508 373.37C600.994 373.893 601.368 374.51 601.605 375.183C601.842 375.857 601.938 376.571 601.887 377.283L604.273 414.752C604.273 414.752 601.467 417.549 598.53 417.368C596.578 417.125 594.768 416.223 593.397 414.812Z" fill="#E8878B"/>
<path d="M596.405 393.071C599.306 394.448 602.497 395.108 605.707 394.995L606.108 389.492L596.605 388.229L596.405 393.071Z" fill="#DD7A81"/>
<path d="M582.281 277.076C582.281 277.076 574.793 294.016 578.061 316.64C578.602 329.671 583.394 369.154 587.945 402.784H606.99C605.987 387.447 605.456 362.508 601.787 348.084C597.597 331.605 598.78 322.644 600.103 318.344C600.646 317.32 601.122 316.262 601.527 315.176C601.566 315.12 601.61 315.066 601.657 315.016V314.946C606.378 302.206 602.659 285.406 602.659 285.406C596.475 277.567 590.46 275.442 585.679 275.522" fill="#64C3F9"/>
<path d="M593.548 308.27L592.666 344.355L594.43 368.312L601.286 402.784H604.293L603.391 384.741L599.893 368.643L596.314 316.64C596.314 316.64 596.786 310.285 593.548 308.27Z" fill="#41B1D8"/>
<path d="M621.153 436.664H589.147C588.646 433.657 590.781 433.025 590.781 433.025C596.245 431.82 601.339 429.321 605.637 425.738C609.977 422.41 609.776 414.812 609.776 414.812H620.662L621.153 436.664Z" fill="#E8878B"/>
<path d="M590.781 433.025C592.227 432.713 593.656 432.325 595.061 431.863C597.091 431.114 599.039 430.161 600.875 429.016C603.712 430.61 611.571 432.825 621.173 434.028V436.634H589.147C588.646 433.647 590.781 433.025 590.781 433.025Z" fill="#1C3D4F"/>
<path d="M589.067 436.664V437.957H620.562L620.883 436.664H589.067Z" fill="#FFF3F3"/>
<path d="M609.776 414.812L607.892 376.722C607.939 375.377 608.506 374.102 609.475 373.167C610.444 372.232 611.738 371.709 613.084 371.71C613.798 371.71 614.505 371.857 615.16 372.142C615.815 372.427 616.404 372.844 616.89 373.367C617.377 373.89 617.75 374.508 617.987 375.182C618.224 375.856 618.319 376.571 618.266 377.283L620.662 414.752C620.662 414.752 617.855 417.549 614.918 417.368C612.962 417.13 611.147 416.228 609.776 414.812Z" fill="#E8878B"/>
<path d="M612.803 393.071C615.71 394.445 618.902 395.105 622.115 394.995L622.516 389.492L613.014 388.229L612.803 393.071Z" fill="#DD7A81"/>
<path d="M586.441 293.796L588.526 301.173C588.526 301.173 578.913 299.85 592.666 302.336C593.488 307.929 594.36 313.101 594.43 316.64C593.748 328.779 599.763 369.154 604.323 402.784H623.369L619.078 315.016L618.988 285.406C618.988 285.406 614.327 282.649 591.844 279.251" fill="#64C3F9"/>
<path d="M612.863 231.629C612.863 231.629 606.629 248.178 594.209 247.456C594.209 247.456 586.08 245.752 588.957 233.543L585.649 234.776C585.649 234.776 569.611 261.98 587.383 283.892C590.752 287.157 595.042 289.307 599.673 290.051C604.305 290.795 609.053 290.097 613.274 288.052L619.239 285.165C619.239 285.165 619.67 276.004 620.632 273.849C621.594 271.693 631.718 246.574 622.376 235.077C619.533 233.171 616.267 231.987 612.863 231.629Z" fill="#FFAB2F"/>
<path d="M580.587 281.898C580.587 281.898 589.418 289.205 600.103 290.087L585.068 268.325C583.334 272.767 581.838 277.297 580.587 281.898Z" fill="#FFAB2F"/>
<path d="M579.855 284.744C584.855 288.622 590.656 291.337 596.836 292.693C607.02 294.888 618.978 288.824 618.978 288.824" stroke="black" stroke-width="0.286022" stroke-miterlimit="10"/>
<path d="M580.708 271.513C580.708 271.513 576.387 260.998 581.399 244.79" stroke="black" stroke-width="0.286022" stroke-miterlimit="10"/>
<path d="M634.956 254.322L647.616 294.748C648.698 298.166 647.876 301.825 644.498 303.028C643.667 303.321 642.785 303.447 641.905 303.397C641.024 303.348 640.162 303.124 639.369 302.739C638.575 302.354 637.866 301.815 637.283 301.154C636.699 300.493 636.252 299.723 635.968 298.888L621.103 254.783L634.956 254.322Z" fill="#E8878B"/>
<path d="M628.019 274.931C628.019 274.931 635.136 276.745 640.84 273.097L638.995 267.203L626.385 270.21L628.019 274.931Z" fill="#D6656D"/>
<path d="M617.124 283.361L643.185 290.097L639.567 302.817L614.327 291.791C613.535 291.442 612.892 290.824 612.513 290.047C611.998 289.083 611.746 288.001 611.781 286.909C611.881 285.717 613.054 284.644 614.087 283.902C614.525 283.6 615.022 283.395 615.546 283.302C616.07 283.208 616.608 283.229 617.124 283.361Z" fill="#E8878B"/>
<path d="M617.505 232.37C617.505 232.37 637.141 237.833 642.754 269.919C642.754 269.919 632.991 276.104 626.055 272.154C626.055 272.154 620.993 259.875 617.364 254.733" fill="#FFAB2F"/>
<path d="M621.624 262.341L617.364 254.733" stroke="black" stroke-width="0.286022" stroke-miterlimit="10"/>
<path d="M628.751 271.152C627.581 271.153 626.413 271.076 625.253 270.922L625.383 269.919C631.023 270.612 636.737 269.507 641.712 266.762L642.243 267.614C638.126 269.938 633.478 271.157 628.751 271.152Z" fill="white"/>
<path d="M613.866 282.078C614.446 282.135 615.006 282.318 615.508 282.614C616.011 282.91 616.442 283.312 616.773 283.792L617.334 284.604C617.761 285.224 618.061 285.923 618.218 286.659C618.374 287.396 618.384 288.156 618.246 288.896C618.108 289.637 617.826 290.342 617.415 290.973C617.004 291.604 616.472 292.148 615.851 292.573L613.555 293.305C613.555 293.305 603.882 287.912 606.178 287.832C610.127 287.691 612.332 287.551 612.332 287.551" fill="#E8878B"/>
<path d="M615.901 292.032C615.901 292.032 604.784 291.43 606.879 290.448C614.487 286.809 609.285 286.098 609.285 286.098C608.096 285.973 606.929 285.686 605.817 285.246C605.735 285.203 605.663 285.145 605.604 285.075C605.546 285.004 605.502 284.922 605.476 284.834C605.45 284.746 605.442 284.654 605.452 284.563C605.462 284.471 605.491 284.383 605.536 284.303L605.657 284.083C605.805 283.822 606.044 283.626 606.328 283.531C607.742 283.09 609.145 282.659 611.18 281.857C611.724 281.649 612.307 281.561 612.889 281.601C613.471 281.641 614.037 281.807 614.548 282.088L615.41 282.559C616.74 283.295 617.724 284.528 618.145 285.989C618.566 287.449 618.389 289.017 617.655 290.348L615.901 292.032Z" fill="#E8878B"/>
<path d="M601.126 287.771C601.126 287.771 603.872 295.5 613.555 293.305L614.217 287.371L601.126 287.771Z" fill="#E8878B"/>
<path d="M632.64 287.371L634.575 289.265" stroke="black" stroke-width="0.286022" stroke-miterlimit="10"/>
<path d="M582.682 285.416H612.503C612.769 285.416 613.024 285.522 613.212 285.709C613.399 285.897 613.505 286.152 613.505 286.418V286.679C613.505 286.945 613.399 287.2 613.212 287.388C613.024 287.576 612.769 287.681 612.503 287.681H582.682V285.396V285.416Z" fill="#7988BF"/>
<path d="M542.778 260.266H576.728C576.953 260.258 577.174 260.326 577.356 260.458C577.538 260.591 577.67 260.781 577.73 260.998L585.318 287.681H549.614L541.815 261.539C541.774 261.391 541.767 261.234 541.796 261.082C541.824 260.931 541.888 260.788 541.981 260.664C542.074 260.541 542.194 260.441 542.333 260.372C542.471 260.303 542.623 260.267 542.778 260.266Z" fill="#A0BAEA"/>
<path d="M541.474 260.266H575.425C575.65 260.258 575.871 260.326 576.053 260.458C576.235 260.591 576.367 260.781 576.427 260.998L584.015 287.681H549.062C548.839 287.69 548.618 287.624 548.437 287.493C548.255 287.362 548.122 287.174 548.06 286.96L540.472 261.539C540.429 261.387 540.423 261.227 540.454 261.072C540.485 260.917 540.552 260.772 540.649 260.648C540.747 260.524 540.873 260.425 541.016 260.358C541.16 260.292 541.317 260.26 541.474 260.266Z" fill="#B8CAFC"/>
<path d="M561.101 278.119C563.177 278.119 564.86 276.436 564.86 274.36C564.86 272.284 563.177 270.601 561.101 270.601C559.025 270.601 557.342 272.284 557.342 274.36C557.342 276.436 559.025 278.119 561.101 278.119Z" fill="white"/>
<path d="M137.438 143.58C177.086 143.58 209.228 111.439 209.228 71.79C209.228 32.1415 177.086 0 137.438 0C97.7892 0 65.6477 32.1415 65.6477 71.79C65.6477 111.439 97.7892 143.58 137.438 143.58Z" fill="#FAB6D8"/>
<path d="M140.425 30.412C140.425 30.412 146.69 18.3835 159.75 28.5777C172.811 38.7718 169.393 54.4389 169.393 54.4389C169.393 54.4389 167.82 65.465 180.099 65.1543C192.378 64.8435 203.614 66.9786 202.832 78.4758C202.832 78.967 202.742 79.4782 202.682 79.9092C201.529 88.0585 193.661 93.5716 185.542 92.5291L181.953 92.078C179.751 91.7964 177.514 92.0908 175.461 92.9324C173.407 93.7739 171.606 95.1339 170.235 96.8794L166.316 101.891C164.412 104.315 161.699 105.972 158.673 106.561C155.648 107.15 152.511 106.631 149.837 105.099L113.752 84.3999C110.845 82.7722 108.692 80.0698 107.755 76.8728C106.818 73.6757 107.171 70.2387 108.74 67.2994C110.606 64.0116 113.227 61.2148 116.388 59.14C128.667 50.7802 125.008 40.3355 125.008 40.3355C125.008 40.3355 123.434 24.6584 140.425 30.412Z" fill="black"/>
<path d="M152.423 87.3568L181.071 112.266C183.497 114.381 186.794 115.022 188.99 112.677C189.532 112.101 189.954 111.423 190.232 110.682C190.509 109.941 190.636 109.153 190.605 108.362C190.575 107.572 190.387 106.796 190.052 106.079C189.718 105.362 189.244 104.719 188.659 104.187L157.786 76.1202L152.423 87.3568Z" fill="#E8878B"/>
<path d="M174.104 90.9855C174.104 90.9855 173.032 97.4808 167.98 100.849L163.8 97.2302L170.817 87.9783L174.104 90.9855Z" fill="#D6656D"/>
<path d="M190.884 84.2696L179.507 105.55L190.102 110.883L198.121 87.5173C198.387 86.789 198.387 85.9902 198.121 85.2619C197.793 84.3305 197.218 83.5058 196.457 82.8763C195.615 82.2147 194.192 82.335 193.099 82.5856C192.63 82.6898 192.19 82.8942 191.807 83.1849C191.425 83.4756 191.11 83.8456 190.884 84.2696Z" fill="#E8878B"/>
<path d="M154.237 67.159C154.237 67.159 158.838 68.9833 172.471 89.0509C172.471 89.0509 170.606 98.4832 162.447 101.079C162.447 101.079 153.055 95.4861 149.526 89.5019" fill="white"/>
<path d="M182.986 99.0445L183.607 101.36" stroke="black" stroke-width="0.286022" stroke-miterlimit="10"/>
<path d="M201.529 86.1139L200.938 75.9198L195.986 77.5537C196.084 76.3002 196.014 75.0393 195.776 73.8048C195.748 73.7126 195.701 73.6271 195.639 73.5535C195.576 73.4798 195.5 73.4196 195.414 73.3765C195.327 73.3334 195.233 73.3083 195.137 73.3026C195.041 73.297 194.944 73.3109 194.854 73.3437L194.603 73.4239C194.302 73.5243 194.051 73.7359 193.901 74.0153C193.18 75.3885 192.458 76.7518 191.235 78.6964C190.913 79.2169 190.709 79.8019 190.638 80.4098C190.567 81.0178 190.631 81.6339 190.824 82.2147L191.145 83.2171C191.392 83.9687 191.785 84.6641 192.301 85.2636C192.818 85.863 193.448 86.3547 194.154 86.7104C194.861 87.0661 195.631 87.2788 196.42 87.3364C197.209 87.3941 198.002 87.2954 198.753 87.0461L201.529 86.1139Z" fill="#E8878B"/>
<path d="M206.838 69.5681L200.097 66.7994C199.273 66.4608 198.33 66.8546 197.991 67.6791L191.007 84.684C190.668 85.5085 191.062 86.4513 191.886 86.79L198.627 89.5587C199.451 89.8973 200.394 89.5035 200.733 88.6791L207.718 71.6741C208.056 70.8496 207.662 69.9068 206.838 69.5681Z" fill="#60B1F4"/>
<path d="M197.611 67.1363L190.36 84.7903C190.095 85.4356 190.403 86.1735 191.048 86.4385L198.438 89.4738C199.083 89.7388 199.821 89.4306 200.086 88.7854L207.337 71.1314C207.602 70.4861 207.294 69.7482 206.649 69.4832L199.259 66.4479C198.614 66.1829 197.876 66.4911 197.611 67.1363Z" fill="#C0E6FF"/>
<path d="M197.83 67.271L191.47 82.7554C191.251 83.2879 191.505 83.897 192.038 84.1157L199.353 87.1206C199.886 87.3393 200.495 87.0849 200.714 86.5524L207.074 71.068C207.293 70.5355 207.038 69.9264 206.506 69.7077L199.19 66.7028C198.657 66.4841 198.048 66.7385 197.83 67.271Z" fill="white"/>
<path d="M207.438 71.6781L207.428 71.6743C207.341 71.6385 207.242 71.6801 207.206 71.7672L206.776 72.8149C206.74 72.902 206.782 73.0015 206.869 73.0373L206.878 73.0411C206.965 73.0769 207.065 73.0353 207.1 72.9482L207.531 71.9005C207.566 71.8134 207.525 71.7139 207.438 71.6781Z" fill="#C0E6FF"/>
<path d="M194.914 87.5272C195.39 87.5272 195.776 87.1413 195.776 86.6652C195.776 86.1891 195.39 85.8032 194.914 85.8032C194.438 85.8032 194.052 86.1891 194.052 86.6652C194.052 87.1413 194.438 87.5272 194.914 87.5272Z" fill="#60B1F4"/>
<path d="M204.215 69.231L201.832 68.2522C201.765 68.2249 201.69 68.2546 201.664 68.3186C201.638 68.3826 201.67 68.4567 201.737 68.484L204.12 69.4628C204.186 69.4901 204.262 69.4604 204.288 69.3964C204.314 69.3324 204.281 69.2583 204.215 69.231Z" fill="#60B1F4"/>
<path d="M201.503 68.2514C201.529 68.1876 201.499 68.1146 201.435 68.0884C201.371 68.0622 201.298 68.0927 201.272 68.1565C201.246 68.2203 201.276 68.2933 201.34 68.3195C201.404 68.3457 201.477 68.3152 201.503 68.2514Z" fill="#60B1F4"/>
<path d="M199.595 79.388C199.62 79.1062 199.753 78.845 199.966 78.6584C200.179 78.4718 200.455 78.3742 200.738 78.3856L205.369 78.536C205.546 78.5419 205.72 78.5842 205.88 78.6602C206.04 78.7362 206.183 78.8443 206.299 78.9778C206.416 79.1113 206.504 79.2673 206.557 79.4361C206.611 79.605 206.63 79.783 206.612 79.9593C206.595 80.1285 206.546 80.2929 206.466 80.4429C206.386 80.593 206.277 80.7258 206.146 80.8338C206.015 80.9418 205.863 81.0228 205.701 81.0723C205.538 81.1218 205.367 81.1387 205.198 81.1221L200.587 80.5808C200.443 80.5696 200.303 80.5295 200.174 80.4631C200.046 80.3966 199.932 80.3051 199.839 80.1939C199.747 80.0827 199.678 79.9541 199.636 79.8157C199.594 79.6773 199.58 79.5318 199.595 79.388Z" fill="#E8878B"/>
<path d="M199.825 81.4027C199.856 81.1334 199.988 80.8858 200.195 80.7107C200.401 80.5355 200.667 80.446 200.938 80.4605L204.727 80.671C204.898 80.6795 205.066 80.723 205.219 80.7987C205.373 80.8745 205.509 80.981 205.62 81.1116C205.731 81.2421 205.814 81.394 205.864 81.5579C205.913 81.7218 205.929 81.8941 205.91 82.0643C205.893 82.2296 205.845 82.39 205.766 82.5364C205.688 82.6828 205.581 82.8123 205.453 82.9175C205.325 83.0227 205.177 83.1016 205.018 83.1495C204.859 83.1975 204.692 83.2136 204.526 83.197L200.768 82.6056C200.625 82.5922 200.487 82.5499 200.362 82.4813C200.236 82.4127 200.126 82.3193 200.038 82.2068C199.95 82.0942 199.885 81.9649 199.849 81.8266C199.812 81.6884 199.804 81.5442 199.825 81.4027Z" fill="#E8878B"/>
<path d="M199.685 83.2872C199.715 83.0283 199.845 82.7913 200.047 82.6266C200.25 82.462 200.508 82.3825 200.768 82.4051L203.614 82.6357C203.779 82.6419 203.942 82.6815 204.091 82.7521C204.24 82.8227 204.374 82.9229 204.484 83.0465C204.593 83.1702 204.677 83.3148 204.729 83.4716C204.781 83.6284 204.801 83.7941 204.787 83.9588C204.735 84.2686 204.565 84.5462 204.313 84.7331C204.06 84.9201 203.745 85.0018 203.434 84.9612L200.617 84.3698C200.485 84.3609 200.355 84.3258 200.236 84.2663C200.117 84.2069 200.011 84.1244 199.924 84.0237C199.838 83.923 199.772 83.8059 199.731 83.6795C199.69 83.5531 199.674 83.4197 199.685 83.2872Z" fill="#E8878B"/>
<path d="M199.364 84.7206C199.394 84.4761 199.512 84.251 199.697 84.0883C199.882 83.9257 200.12 83.8367 200.367 83.8385L202.542 84.2595C202.704 84.2681 202.863 84.3097 203.008 84.3818C203.154 84.4539 203.283 84.555 203.388 84.6789C203.494 84.8028 203.572 84.9469 203.62 85.1023C203.667 85.2577 203.682 85.4211 203.664 85.5826C203.617 85.885 203.456 86.1576 203.213 86.3442C202.971 86.5307 202.666 86.6169 202.361 86.585L200.206 85.7931C199.956 85.7535 199.731 85.621 199.575 85.4221C199.419 85.2232 199.343 84.9726 199.364 84.7206Z" fill="#E8878B"/>
<path d="M205.649 81.1421L200.417 80.5608" stroke="#B73D46" stroke-width="0.286022" stroke-miterlimit="10"/>
<path d="M204.526 83.177L200.497 82.5154" stroke="#B73D46" stroke-width="0.286022" stroke-miterlimit="10"/>
<path d="M203.434 85.0013L199.855 83.9688" stroke="#B73D46" stroke-width="0.286022" stroke-miterlimit="10"/>
<path d="M123.906 168.9C124.837 169.127 125.786 169.275 126.742 169.341L128.747 169.441C131.754 169.441 135.002 169.12 137.768 169.09C142.68 169.09 147.602 168.93 152.513 168.679C152.921 168.66 153.33 168.718 153.716 168.85C153.928 168.814 154.143 168.793 154.358 168.79C154.639 168.793 154.918 168.83 155.19 168.9C155.861 151.719 151.06 116.265 151.06 116.265C151.06 116.265 126.502 83.608 114.744 111.043C105.592 132.404 103.257 158.505 102.715 169.02C108.429 169.672 114.143 168.93 119.886 169.02L121.791 169.07C122.449 168.751 123.204 168.69 123.906 168.9Z" fill="#4D36B2"/>
<path d="M142.51 64.0216C142.51 64.0216 117.691 63.0192 114.553 69.7652C111.416 76.5111 114.814 111.043 114.814 111.043C114.814 111.043 113.441 115.303 133.859 118.06C151.1 120.405 151.1 116.225 151.1 116.225C151.1 116.225 162.076 97.6813 161.033 82.5254C159.991 67.3695 151.912 66.1566 151.912 66.1566L142.51 64.0216Z" fill="white"/>
<path d="M159.75 87.7778C159.75 87.7778 163.058 94.6641 158.748 98.5634C156.989 104.773 154.429 110.728 151.13 116.275" stroke="black" stroke-width="0.286022" stroke-miterlimit="10"/>
<path d="M141.056 70.7976C140.306 70.5904 139.607 70.2276 139.006 69.7328C138.405 69.238 137.914 68.6223 137.566 67.9256C137.218 67.229 137.021 66.4669 136.987 65.689C136.952 64.9111 137.082 64.1347 137.368 63.4102L142.239 50.9406C142.621 49.9802 143.343 49.1935 144.267 48.7297C145.19 48.266 146.252 48.1574 147.251 48.4247C148.252 48.7028 149.114 49.343 149.67 50.221C150.226 51.0989 150.435 52.1521 150.258 53.1759L148.003 66.3772C147.872 67.1418 147.583 67.8707 147.154 68.5168C146.724 69.1628 146.164 69.7118 145.51 70.1282C144.856 70.5447 144.121 70.8194 143.354 70.9347C142.587 71.05 141.804 71.0033 141.056 70.7976Z" fill="#E8878B"/>
<path d="M148.504 63.6607C148.504 63.6607 140.715 61.4956 141.367 53.1859H150.288L148.504 63.6607Z" fill="#D6656D"/>
<path d="M144.073 134.318C140.926 137.656 138.921 140.663 134.912 141.665C133.909 150.687 133.909 158.706 132.305 168.098" stroke="black" stroke-width="0.286022" stroke-miterlimit="10"/>
<path d="M102.776 86.5049L91.4288 122.741C90.4264 125.808 91.1982 129.096 94.2254 130.168C95.7302 130.686 97.379 130.587 98.8107 129.892C100.242 129.197 101.34 127.962 101.863 126.459L115.195 86.9158L102.776 86.5049Z" fill="#E8878B"/>
<path d="M109 104.989C109 104.989 102.605 106.612 97.5031 103.335L99.157 98.0522L110.454 100.779L109 104.989Z" fill="#D6656D"/>
<path d="M118.763 112.547L95.3981 118.561L98.6558 129.978L121.279 120.054C121.984 119.735 122.558 119.183 122.903 118.491C123.363 117.624 123.591 116.654 123.565 115.674C123.475 114.611 122.422 113.669 121.5 113.008C121.104 112.737 120.655 112.556 120.182 112.476C119.71 112.397 119.226 112.421 118.763 112.547Z" fill="#E8878B"/>
<path d="M118.413 66.8282C118.413 66.8282 100.811 71.7198 95.7789 100.488C95.7789 100.488 104.53 106.031 110.754 102.493C110.754 102.493 115.295 91.4666 118.543 86.8757" fill="white"/>
<path d="M114.724 93.7019L118.543 86.8757" stroke="black" stroke-width="0.286022" stroke-miterlimit="10"/>
<path d="M121.68 111.394C121.16 111.442 120.656 111.604 120.206 111.869C119.755 112.134 119.369 112.496 119.074 112.927L118.573 113.649C117.801 114.773 117.507 116.156 117.755 117.496C118.003 118.836 118.773 120.023 119.896 120.796L121.961 121.458C121.961 121.458 129.579 118.1 127.524 118.029C123.986 117.899 123.054 116.295 123.054 116.295" fill="#E8878B"/>
<path d="M119.856 120.285C119.856 120.285 129.88 119.744 127.965 118.861C121.149 115.604 125.82 114.962 125.82 114.962C126.886 114.854 127.932 114.598 128.927 114.2C129 114.162 129.065 114.109 129.117 114.044C129.17 113.98 129.208 113.906 129.232 113.827C129.255 113.748 129.262 113.665 129.253 113.582C129.244 113.5 129.218 113.421 129.178 113.348L129.068 113.158C129.005 113.04 128.92 112.936 128.817 112.852C128.713 112.767 128.594 112.705 128.466 112.667C127.193 112.266 125.94 111.885 124.116 111.163C123.631 110.973 123.11 110.893 122.59 110.927C122.07 110.962 121.564 111.111 121.109 111.364L120.337 111.795C119.742 112.121 119.218 112.562 118.794 113.093C118.371 113.623 118.057 114.232 117.87 114.885C117.684 115.537 117.629 116.22 117.708 116.894C117.787 117.568 118 118.22 118.332 118.811L119.856 120.285Z" fill="#E8878B"/>
<path d="M133.107 116.496C133.107 116.496 130.641 123.422 121.961 121.508L121.37 116.185L125.008 117.187C126.829 117.659 128.74 117.659 130.561 117.187L133.107 116.496Z" fill="#E8878B"/>
<path d="M135.473 113.589C135.491 113.504 135.488 113.417 135.464 113.334C135.44 113.251 135.396 113.175 135.335 113.113C135.274 113.051 135.199 113.006 135.117 112.98C135.034 112.955 134.946 112.951 134.862 112.968C134.513 113.051 134.187 113.212 133.908 113.437C133.629 113.662 133.403 113.947 133.248 114.271C132.245 115.975 131.744 117.278 129.469 118.14C127.193 119.002 124.637 119.693 124.637 119.693L126.642 120.906C126.642 120.906 130.301 120.997 132.656 119.132C134.431 117.699 135.212 114.832 135.473 113.589Z" fill="#E8878B"/>
<path d="M136.435 114.471C136.461 114.389 136.465 114.302 136.449 114.217C136.432 114.133 136.395 114.054 136.34 113.987C136.285 113.921 136.215 113.869 136.136 113.836C136.056 113.803 135.97 113.791 135.884 113.799C135.528 113.852 135.188 113.983 134.888 114.182C134.588 114.381 134.336 114.644 134.15 114.952C133.007 116.556 132.386 117.789 130.04 118.461C128.409 118.915 126.757 119.286 125.089 119.573L127.093 121.578C127.093 121.578 131.103 121.087 133.107 119.713C135.112 118.34 136.064 115.694 136.435 114.471Z" fill="#E8878B"/>
<path d="M104.851 116.135L103.116 117.839" stroke="black" stroke-width="0.286022" stroke-miterlimit="10"/>
<path d="M146.429 31.9757C146.429 31.9757 159.54 30.2516 157.144 48.6953C155.611 60.4231 146.589 59.3205 146.589 59.3205C146.589 59.3205 139.894 60.403 136.506 46.7106C133.117 33.0182 146.429 31.9757 146.429 31.9757Z" fill="#E8878B"/>
<path d="M136.977 51.7425C138.975 51.7425 140.595 50.1224 140.595 48.1239C140.595 46.1255 138.975 44.5054 136.977 44.5054C134.978 44.5054 133.358 46.1255 133.358 48.1239C133.358 50.1224 134.978 51.7425 136.977 51.7425Z" fill="#E8878B"/>
<path d="M148.554 46.1693C148.554 46.1693 149.847 49.5874 150.459 50.0786C151.07 50.5698 149.316 50.8504 149.316 50.8504" stroke="#B73D46" stroke-width="0.286022" stroke-miterlimit="10"/>
<path d="M149.075 54.0279C149.765 54.1626 150.476 54.1426 151.157 53.9693C151.839 53.7959 152.473 53.4736 153.015 53.0255" stroke="#B73D46" stroke-width="0.286022" stroke-miterlimit="10"/>
<path d="M153.636 45.3073C154.079 45.3073 154.438 44.9482 154.438 44.5054C154.438 44.0625 154.079 43.7035 153.636 43.7035C153.193 43.7035 152.834 44.0625 152.834 44.5054C152.834 44.9482 153.193 45.3073 153.636 45.3073Z" fill="#070707"/>
<path d="M151.521 43.944L151.16 43.6734C151.652 42.9932 152.36 42.4999 153.168 42.2741C153.977 42.0483 154.838 42.1035 155.611 42.4305L155.43 42.8414C154.752 42.5458 153.991 42.4942 153.279 42.6951C152.566 42.8961 151.945 43.3373 151.521 43.944Z" fill="#070707"/>
<path d="M144.665 47.8232C145.108 47.8232 145.467 47.4642 145.467 47.0213C145.467 46.5784 145.108 46.2194 144.665 46.2194C144.222 46.2194 143.863 46.5784 143.863 47.0213C143.863 47.4642 144.222 47.8232 144.665 47.8232Z" fill="#070707"/>
<path d="M142.56 46.46L142.189 46.1893C142.682 45.5083 143.392 45.0147 144.202 44.7889C145.012 44.5632 145.875 44.6187 146.65 44.9464L146.459 45.3574C145.782 45.0605 145.023 45.0082 144.312 45.2093C143.6 45.4105 142.981 45.8526 142.56 46.46Z" fill="#070707"/>
<path d="M144.665 36.8973C145.801 37.8692 147.142 38.5715 148.588 38.9516C150.034 39.3318 151.547 39.38 153.015 39.0925C156.022 38.5613 157.245 42.1598 157.245 42.1598L157.365 29.2793L134.711 32.9781V43.944L135.984 44.5054C136.365 42.4458 137.428 40.5746 139.004 39.1942C140.579 37.8137 142.573 37.0045 144.665 36.8973Z" fill="black"/>
<path d="M137.889 40.2954C137.889 40.2954 135.192 43.0419 137.889 45.3073C139.773 46.891 138.34 54.5191 137.378 55.5716C137.378 55.5716 139.673 48.555 137.378 46.47L134.671 43.9541C134.671 43.9541 133.228 37.609 137.889 40.2954Z" fill="black"/>
<path d="M133.388 399.626H70.2085V415.785H133.388V399.626Z" fill="#1F627F"/>
<path d="M78.889 406.152L71.7521 352.966C71.2814 350.055 71.858 347.072 73.3795 344.547C74.901 342.021 77.2688 340.117 80.0618 339.173L96.5408 333.59C98.9588 332.776 101.568 332.72 104.019 333.43L120.728 338.291C123.559 339.115 126.007 340.915 127.636 343.372C129.266 345.829 129.972 348.784 129.629 351.713L125.83 406.152" fill="#55AAFF"/>
<path d="M99.959 344.025C98.935 344.046 97.9178 343.853 96.9731 343.457C96.0284 343.061 95.1772 342.471 94.4745 341.726C93.7718 340.981 93.2331 340.096 92.8932 339.13C92.5534 338.164 92.4199 337.137 92.5014 336.116L93.9147 318.554C94.0238 317.192 94.6348 315.919 95.6294 314.982C96.624 314.045 97.9312 313.51 99.2975 313.482C100.666 313.45 101.997 313.927 103.033 314.822C104.069 315.717 104.734 316.965 104.901 318.324L107.066 335.795C107.192 336.812 107.104 337.844 106.807 338.825C106.51 339.805 106.01 340.713 105.34 341.488C104.67 342.264 103.845 342.89 102.919 343.327C101.992 343.764 100.983 344.002 99.959 344.025Z" fill="#E8878B"/>
<path d="M106.585 331.936C106.585 331.936 96.5609 333.59 93.6641 325.731L105.542 323.516L106.585 331.936Z" fill="#D6656D"/>
<path d="M98.7617 293.102L98.7517 293.102C92.2706 293.242 87.1303 298.61 87.2706 305.091L87.4997 315.673C87.64 322.154 93.0077 327.295 99.4887 327.154L99.4988 327.154C105.98 327.014 111.12 321.646 110.98 315.165L110.751 304.583C110.61 298.101 105.243 292.961 98.7617 293.102Z" fill="#E8878B"/>
<path d="M98.766 292.894C84.1414 293.214 87.359 308.661 87.359 308.661L87.4492 312.56H87.8602L88.8626 306.877C88.9469 306.099 89.1782 305.343 89.5442 304.651L91.0277 301.714C91.5695 300.696 92.4897 299.93 93.5903 299.584C94.6909 299.237 95.8836 299.336 96.9117 299.86C97.5327 300.176 98.2196 300.341 98.9164 300.341C99.6132 300.341 100.3 300.176 100.921 299.86L101.262 299.68C102.286 299.144 103.48 299.032 104.586 299.368C105.692 299.703 106.622 300.46 107.176 301.474L108.539 303.97C108.881 304.594 109.111 305.272 109.221 305.975L110.484 312.039H110.895L110.815 308.14C110.815 308.14 113.752 292.573 98.766 292.894Z" fill="#070707"/>
<path d="M110.985 314.595C112.569 314.595 113.802 312.44 113.761 310.766C113.721 309.092 112.428 308.501 110.855 308.531L110.985 314.595Z" fill="#E8878B"/>
<path d="M112.509 310.455C112.181 310.716 111.924 311.054 111.759 311.439C111.595 311.824 111.528 312.244 111.566 312.66C111.856 312.45 112.213 312.353 112.569 312.39" stroke="#B73D46" stroke-width="0.476704" stroke-miterlimit="10"/>
<path d="M87.4994 315.106C85.9157 315.106 84.5925 313.101 84.5524 311.397C84.5123 309.693 85.7854 309.082 87.3691 309.042L87.4994 315.106Z" fill="#E8878B"/>
<path d="M85.8855 311.037C86.2166 311.286 86.4812 311.613 86.656 311.989C86.8308 312.365 86.9104 312.778 86.8879 313.192C86.5906 313.001 86.2362 312.919 85.8855 312.961" stroke="#B73D46" stroke-width="0.476704" stroke-miterlimit="10"/>
<path d="M76.1727 382.105L77.3756 361.306" stroke="black" stroke-width="0.286022" stroke-miterlimit="10"/>
<path d="M129.038 378.807C129.038 378.807 111.406 380.932 109.461 381.814C107.517 382.696 106.715 374.527 93.8345 381.674C93.8345 381.674 75.5111 379.96 75.1703 380.972C74.8295 381.985 77.2552 394.003 77.2552 394.003L121.279 384.911L129.038 378.807Z" fill="#429EEA"/>
<path d="M124.537 402.654C124.537 402.654 106.003 402.393 101.302 400.458C96.601 398.524 79.0494 403.646 79.0494 403.646L77.8265 396.218L104.961 390.094L124.708 399.666L124.537 402.654Z" fill="#429EEA"/>
<path d="M84.1916 381.513C84.1916 381.513 78.9292 381.243 75.1101 383.127C71.2911 385.012 75.2705 390.595 75.2705 390.595L82.1869 390.244L103.748 394.194L105.472 385.323L84.1916 381.513Z" fill="#E8878B"/>
<path d="M91.2082 382.776C91.2082 382.776 87.4292 387.548 89.875 391.688L91.2082 391.928L93.8244 383.298L91.2082 382.776Z" fill="#DD7A81"/>
<path d="M128.757 402.102L92.4812 394.334C92.1554 394.268 91.8537 394.114 91.6083 393.89C91.3629 393.666 91.183 393.379 91.0879 393.061C89.5342 387.909 93.0125 383.528 94.6363 381.844C94.8577 381.611 95.1354 381.439 95.4426 381.344C95.7498 381.249 96.0762 381.235 96.3905 381.303L126.923 387.808L124.287 360.293L120.638 338.291C137.337 343.143 136.776 353.958 136.776 353.958L141.638 396.94C141.741 397.85 141.629 398.771 141.31 399.629C140.991 400.487 140.474 401.258 139.802 401.879C139.129 402.5 138.319 402.954 137.438 403.203C136.557 403.453 135.63 403.491 134.731 403.315L128.757 402.102Z" fill="#55AAFF"/>
<path d="M126.923 387.919L111.887 391.417L101.693 396.288L105.332 397.06L124.377 391.858C125.173 391.643 125.868 391.153 126.336 390.473C126.804 389.794 127.016 388.97 126.933 388.149L126.923 387.919Z" fill="#429EEA"/>
<path d="M126.923 387.919L126.271 381.112C123.726 380.488 121.084 380.369 118.493 380.762L97.3828 385.483L99.4978 394.274L120.868 389.392L126.923 387.919Z" fill="#E8878B"/>
<path d="M111.496 382.335C111.496 382.335 115.506 386.946 113.21 391.186L111.847 391.427L108.84 382.927L111.496 382.335Z" fill="#DD7A81"/>
<path d="M74.5488 403.275L110.454 393.933C110.776 393.851 111.071 393.684 111.307 393.449C111.543 393.215 111.713 392.922 111.797 392.6C113.12 387.387 109.462 383.167 107.788 381.574C107.555 381.353 107.27 381.195 106.96 381.114C106.65 381.034 106.324 381.033 106.013 381.113L75.7617 388.921L77.2352 361.316L79.9216 339.173C63.4526 344.746 64.485 355.532 64.485 355.532L61.4779 398.634C61.4128 399.547 61.5639 400.461 61.919 401.305C62.2741 402.148 62.8232 402.895 63.5215 403.486C64.2199 404.077 65.0479 404.495 65.9381 404.705C66.8283 404.916 67.7557 404.914 68.6449 404.698L74.5488 403.275Z" fill="#55AAFF"/>
<path d="M126.772 381.002L124.878 362.358" stroke="black" stroke-width="0.286022" stroke-miterlimit="10"/>
<path d="M98.8864 312.35C98.8864 312.35 98.4754 317.141 97.884 317.983C97.2926 318.825 99.6081 318.554 99.6081 318.554" stroke="#B73D46" stroke-width="0.476704" stroke-miterlimit="10"/>
<path d="M97.6736 321.952C98.5796 322.155 99.5193 322.153 100.424 321.947C101.33 321.74 102.177 321.335 102.906 320.76" stroke="#B73D46" stroke-width="0.476704" stroke-miterlimit="10"/>
<path d="M126.923 387.919C126.923 387.919 128.847 390.054 128.867 391.046" stroke="black" stroke-width="0.286022" stroke-miterlimit="10"/>
<path d="M75.7616 388.921C75.2677 389.192 74.841 389.57 74.5131 390.029C74.1852 390.487 73.9644 391.012 73.8671 391.567" stroke="black" stroke-width="0.286022" stroke-miterlimit="10"/>
<path d="M101.212 382.325L93.8845 384.23" stroke="black" stroke-width="0.286022" stroke-miterlimit="10"/>
<path d="M105.262 312.66C105.832 312.66 106.294 312.198 106.294 311.628C106.294 311.058 105.832 310.595 105.262 310.595C104.691 310.595 104.229 311.058 104.229 311.628C104.229 312.198 104.691 312.66 105.262 312.66Z" fill="#070707"/>
<path d="M102.796 310.245L102.425 309.794C103.264 309.091 104.317 308.697 105.411 308.675C106.504 308.653 107.573 309.005 108.439 309.673L108.068 310.124C107.313 309.527 106.373 309.211 105.41 309.233C104.447 309.255 103.523 309.613 102.796 310.245Z" fill="#070707"/>
<path d="M93.233 312.921C93.8032 312.921 94.2655 312.459 94.2655 311.889C94.2655 311.318 93.8032 310.856 93.233 310.856C92.6628 310.856 92.2006 311.318 92.2006 311.889C92.2006 312.459 92.6628 312.921 93.233 312.921Z" fill="#070707"/>
<path d="M90.7773 310.505L90.4064 310.054C91.2435 309.349 92.2975 308.952 93.3922 308.93C94.4869 308.908 95.5559 309.262 96.4206 309.934L96.0598 310.385C95.3032 309.786 94.3613 309.471 93.3968 309.493C92.4323 309.515 91.5058 309.873 90.7773 310.505Z" fill="#070707"/>
<path d="M112.068 290.277C112.068 290.277 118.763 303.308 110.765 304.581C110.765 304.581 102.084 300.061 93.2631 302.146C93.2631 302.146 90.1858 302.416 89.4942 304.641L89.3939 299.63L98.7661 293.114C98.7661 293.114 100.47 289.235 99.6883 288.483L112.068 290.277Z" fill="#070707"/>
<path d="M109.892 293.635C109.892 293.635 112.028 299.7 108.229 300.071" stroke="white" stroke-width="0.476704" stroke-miterlimit="10"/>
<path d="M93.233 317.031C96.0896 317.031 98.4053 314.715 98.4053 311.859C98.4053 309.002 96.0896 306.686 93.233 306.686C90.3765 306.686 88.0608 309.002 88.0608 311.859C88.0608 314.715 90.3765 317.031 93.233 317.031Z" stroke="#F9EAEC" stroke-width="0.476704" stroke-miterlimit="10"/>
<path d="M105.261 317.031C108.118 317.031 110.434 314.715 110.434 311.859C110.434 309.002 108.118 306.686 105.261 306.686C102.405 306.686 100.089 309.002 100.089 311.859C100.089 314.715 102.405 317.031 105.261 317.031Z" stroke="#F9EAEC" stroke-width="0.476704" stroke-miterlimit="10"/>
<path d="M98.4153 311.859H100.089" stroke="#F9EAEC" stroke-width="0.476704" stroke-miterlimit="10"/>
<path d="M117.801 436.083C117.801 436.083 145.066 441.736 151.882 433.396C151.882 433.396 158.097 423.373 148.775 422.801L118.964 425.909" fill="white"/>
<path d="M124.106 437.135C132.596 438.248 147 439.14 151.671 433.396C151.671 433.396 157.886 423.373 148.564 422.811L128.978 424.816C128.948 425.277 128.406 436.383 124.106 437.135Z" fill="#1C3D4F"/>
<path d="M117.801 436.083L104.289 435.501C104.289 435.501 99.6281 419.744 108.249 419.293L118.964 425.909" fill="#E8878B"/>
<path d="M111.406 421.268C111.406 421.268 115.556 431.612 108.65 436.083L101.833 435.281L105.783 417.769L111.406 421.268Z" fill="#D6656D"/>
<path d="M88.2011 431.642C88.2011 431.642 46.1716 426.009 37.9822 407.405C29.7928 388.801 41.9315 385.643 41.9315 385.643C52.1056 381.975 107.767 417.579 107.767 417.579C107.767 417.579 112.007 429.447 101.833 437.917L50.9729 414.472" fill="#346E94"/>
<path d="M95.0976 409.76C95.0976 409.76 82.0667 416.927 74.589 425.357L84.2619 429.818L98.225 411.655L95.0976 409.76Z" fill="#1F627F"/>
<path d="M81.0441 436.083C80.9038 436.083 78.3077 436.654 74.5788 437.135C66.0987 438.248 51.6846 439.14 47.0135 433.396C47.0135 433.396 40.7988 423.373 50.1209 422.811L69.7073 424.816L79.9315 425.879" fill="white"/>
<path d="M81.0642 436.083L94.5661 435.501C94.5661 435.501 99.2272 419.744 90.6469 419.293L79.9315 425.909C79.9315 425.909 79.7811 426.289 79.6007 426.911" fill="#E8878B"/>
<path d="M87.7802 421.067C87.7802 421.067 85.0137 430.67 90.216 435.281L96.8417 434.719L93.6341 417.769L87.7802 421.067Z" fill="#D6656D"/>
<path d="M147.892 414.472L97.022 437.917C86.8579 429.447 91.0879 417.579 91.0879 417.579C91.0879 417.579 146.76 381.975 156.934 385.643C156.934 385.643 169.083 388.751 160.883 407.405C152.684 426.059 110.644 431.642 110.644 431.642" fill="#346E94"/>
<path d="M143.602 416.446L124.698 428.805L112.599 430.74L143.602 416.446Z" fill="#1F627F"/>
<path d="M74.5788 437.135C66.0988 438.248 51.6846 439.14 47.0135 433.396C47.0135 433.396 40.7988 423.373 50.1209 422.811L69.7073 424.816C69.7374 425.277 70.2786 436.383 74.5788 437.135Z" fill="#1C3D4F"/>
<path d="M133.889 358.97H71.3612C70.7246 358.97 70.2085 359.486 70.2085 360.123V400.268C70.2085 400.905 70.7246 401.421 71.3612 401.421H133.889C134.526 401.421 135.042 400.905 135.042 400.268V360.123C135.042 359.486 134.526 358.97 133.889 358.97Z" fill="#B8CAFC"/>
<path d="M133.659 401.421H71.5918C70.8278 401.421 70.2085 402.04 70.2085 402.804V403.165C70.2085 403.929 70.8278 404.548 71.5918 404.548H133.659C134.423 404.548 135.042 403.929 135.042 403.165V402.804C135.042 402.04 134.423 401.421 133.659 401.421Z" fill="#D5E4EF"/>
<path d="M102.625 385.262C106.296 385.262 109.271 382.287 109.271 378.617C109.271 374.946 106.296 371.971 102.625 371.971C98.9549 371.971 95.9795 374.946 95.9795 378.617C95.9795 382.287 98.9549 385.262 102.625 385.262Z" fill="white"/>
<path d="M553.102 134.749C585.952 134.749 612.583 108.119 612.583 75.2682C612.583 42.4178 585.952 15.7874 553.102 15.7874C520.252 15.7874 493.621 42.4178 493.621 75.2682C493.621 108.119 520.252 134.749 553.102 134.749Z" fill="#B7EEF7"/>
<path d="M549.082 81.1923L531.451 87.9282C528.463 89.0736 525.978 91.2407 524.436 94.0447C522.895 96.8487 522.397 100.108 523.031 103.245L533.135 157.904C533.535 159.892 534.523 161.715 535.971 163.135C537.418 164.556 539.259 165.51 541.254 165.873L543.75 166.334C553.471 168.111 563.479 167.495 572.909 164.54L575.335 163.778C577.27 163.17 578.98 161.996 580.243 160.408C581.506 158.82 582.265 156.89 582.421 154.867L585.749 99.3954C585.998 96.2012 585.106 93.0223 583.233 90.4236C581.359 87.8249 578.624 85.9747 575.515 85.2018L557.312 83.0968C554.646 82.4252 551.669 80.1899 549.082 81.1923Z" fill="#79C4BD"/>
<path d="M547.008 175.576C558.034 174.974 565.502 177.811 576.568 177.15C576.768 177.15 584.657 179.154 584.847 179.154L582.482 155.649C582.482 155.649 566.344 159.177 533.135 157.944L532.724 170.253C535.841 174.734 541.334 175.876 547.008 175.576Z" fill="#346E94"/>
<path d="M540.633 158.114C541.855 161.001 542.517 164.57 541.264 167.547" stroke="#5DABCE" stroke-width="0.286022" stroke-miterlimit="10"/>
<path d="M553.242 92.3286C552.133 92.3968 551.022 92.2315 549.98 91.8435C548.939 91.4555 547.99 90.8533 547.196 90.0759C546.401 89.2985 545.779 88.3631 545.368 87.3302C544.958 86.2973 544.768 85.1897 544.813 84.0791L545.584 64.9739C545.648 63.4914 546.258 62.0849 547.296 61.0247C548.334 59.9644 549.727 59.3253 551.208 59.2303C552.689 59.1432 554.15 59.6068 555.31 60.5319C556.471 61.4571 557.248 62.7785 557.493 64.2421L560.6 83.1068C560.782 84.2041 560.731 85.3274 560.451 86.4038C560.17 87.4802 559.667 88.4857 558.974 89.3551C558.28 90.2246 557.411 90.9386 556.424 91.4508C555.437 91.9631 554.353 92.2621 553.242 92.3286Z" fill="#E8878B"/>
<path d="M559.958 79.1875C559.958 79.1875 548.441 79.8992 545.444 68.3819L557.472 64.2121L559.958 79.1875Z" fill="#D6656D"/>
<path d="M552.893 32.5651L546.26 32.9731C541.066 33.2926 537.114 37.7622 537.434 42.9562L538.547 61.0549C538.866 66.2489 543.336 70.2004 548.53 69.8809L555.163 69.4729C560.357 69.1534 564.309 64.6839 563.989 59.4899L562.876 41.3911C562.556 36.1972 558.087 32.2456 552.893 32.5651Z" fill="#E8878B"/>
<path d="M549.494 31.3242C533.646 32.3266 537.876 50.1688 537.876 50.1688L538.137 54.3988H538.588L539.37 48.1941C539.429 47.3447 539.65 46.5145 540.021 45.7483L541.555 42.5508C542.099 41.4224 543.065 40.5528 544.244 40.1292C545.423 39.7055 546.722 39.7616 547.86 40.2854C548.553 40.603 549.312 40.7505 550.074 40.7157C550.836 40.6808 551.579 40.4646 552.24 40.0849L552.601 39.8744C553.688 39.2488 554.978 39.0747 556.193 39.3896C557.407 39.7044 558.45 40.4832 559.096 41.5584L560.68 44.2047C561.072 44.8759 561.35 45.6076 561.502 46.3698L563.136 52.8852H563.587L563.326 48.6051C563.326 48.6051 565.732 30.3218 549.494 31.3242Z" fill="#070707"/>
<path d="M563.757 55.5917C565.471 55.4814 566.764 53.1258 566.604 51.3215C566.444 49.5173 565.06 48.9159 563.346 49.0261L563.757 55.5917Z" fill="#E8878B"/>
<path d="M565.231 51.0309C564.888 51.3288 564.624 51.7074 564.463 52.1325C564.302 52.5576 564.249 53.016 564.309 53.4666C564.594 53.2428 564.948 53.1227 565.311 53.1258" stroke="#B73D46" stroke-width="0.286022" stroke-miterlimit="10"/>
<path d="M538.267 57.1353C536.553 57.2355 535.019 55.0604 534.909 53.2461C534.799 51.4318 536.152 50.67 537.866 50.5698L538.267 57.1353Z" fill="#E8878B"/>
<path d="M536.372 52.805C536.751 53.0584 537.061 53.4016 537.274 53.8039C537.487 54.2062 537.598 54.6551 537.595 55.1105C537.266 54.9162 536.88 54.8419 536.503 54.9" stroke="#B73D46" stroke-width="0.286022" stroke-miterlimit="10"/>
<path d="M508.136 164.449L515.403 106.312C515.403 106.312 513.829 94.6641 531.441 87.9081L529.436 112.035L521.227 166.895L508.136 164.449Z" fill="#79C4BD"/>
<path d="M608.433 156.28L591.613 100.147C591.613 100.147 591.232 88.3993 572.729 84.6605L578.673 108.136L595.883 160.841L608.433 156.28Z" fill="#79C4BD"/>
<path d="M527.542 127.622L529.486 112.055" stroke="black" stroke-width="0.286022" stroke-miterlimit="10"/>
<path d="M550.456 51.502C550.456 51.502 550.205 56.7143 549.584 57.6565C548.962 58.5988 551.478 58.1978 551.478 58.1978" stroke="#B73D46" stroke-width="0.286022" stroke-miterlimit="10"/>
<path d="M548.07 62.6383C550.165 62.9636 552.305 62.8337 554.345 62.2574C554.345 62.2574 552.521 67.0087 548.07 62.6383Z" fill="white"/>
<path d="M584.306 125.517L577.63 107.364" stroke="black" stroke-width="0.286022" stroke-miterlimit="10"/>
<path d="M556.4 52.1535C556.992 52.1535 557.472 51.6733 557.472 51.081C557.472 50.4886 556.992 50.0084 556.4 50.0084C555.808 50.0084 555.327 50.4886 555.327 51.081C555.327 51.6733 555.808 52.1535 556.4 52.1535Z" fill="#070707"/>
<path d="M553.824 49.6776L553.433 49.2065C554.296 48.4759 555.38 48.0584 556.51 48.022C557.64 47.9856 558.75 48.3324 559.658 49.006L559.277 49.4872C558.487 48.8814 557.511 48.5691 556.516 48.6039C555.521 48.6386 554.569 49.0182 553.824 49.6776Z" fill="#070707"/>
<path d="M543.86 52.5745C544.453 52.5745 544.933 52.0943 544.933 51.502C544.933 50.9096 544.453 50.4294 543.86 50.4294C543.268 50.4294 542.788 50.9096 542.788 51.502C542.788 52.0943 543.268 52.5745 543.86 52.5745Z" fill="#070707"/>
<path d="M541.274 50.1187L540.883 49.6576C541.746 48.9269 542.831 48.5095 543.961 48.4731C545.091 48.4367 546.2 48.7835 547.108 49.4571L546.727 49.9383C545.938 49.3329 544.963 49.02 543.968 49.0529C542.974 49.0858 542.022 49.4625 541.274 50.1187Z" fill="#070707"/>
</g>
<defs>
<filter id="filter0_d_6_746" x="0" y="0" width="652.063" height="445.957" filterUnits="userSpaceOnUse" color-interpolation-filters="sRGB">
<feFlood flood-opacity="0" result="BackgroundImageFix"/>
<feColorMatrix in="SourceAlpha" type="matrix" values="0 0 0 0 0 0 0 0 0 0 0 0 0 0 0 0 0 0 127 0" result="hardAlpha"/>
<feOffset dy="4"/>
<feGaussianBlur stdDeviation="2"/>
<feComposite in2="hardAlpha" operator="out"/>
<feColorMatrix type="matrix" values="0 0 0 0 0 0 0 0 0 0 0 0 0 0 0 0 0 0 0.25 0"/>
<feBlend mode="normal" in2="BackgroundImageFix" result="effect1_dropShadow_6_746"/>
<feBlend mode="normal" in="SourceGraphic" in2="effect1_dropShadow_6_746" result="shape"/>
</filter>
</defs>
</svg>
