<svg width="180" height="24" viewBox="0 0 180 24" fill="none" xmlns="http://www.w3.org/2000/svg">
<path d="M15.5375 10.0373V13.5521H4.12198V10.0373H15.5375ZM5.4588 1.13021V23H0.95266V1.13021H5.4588ZM18.7519 1.13021V23H14.2608V1.13021H18.7519ZM37.3472 19.4852V23H25.7064V19.4852H37.3472ZM27.1784 1.13021V23H22.6722V1.13021H27.1784ZM35.8302 10.0373V13.462H25.7064V10.0373H35.8302ZM37.3322 1.13021V4.66002H25.7064V1.13021H37.3322ZM54.035 19.4852V23H43.025V19.4852H54.035ZM44.482 1.13021V23H39.9758V1.13021H44.482ZM70.6776 19.4852V23H59.6676V19.4852H70.6776ZM61.1246 1.13021V23H56.6185V1.13021H61.1246ZM90.2343 11.5544V12.5908C90.2343 14.2531 90.009 15.7451 89.5584 17.0669C89.1078 18.3887 88.4719 19.5153 87.6508 20.4465C86.8296 21.3678 85.8483 22.0737 84.7068 22.5644C83.5752 23.0551 82.3185 23.3004 80.9366 23.3004C79.5648 23.3004 78.308 23.0551 77.1665 22.5644C76.0349 22.0737 75.0536 21.3678 74.2225 20.4465C73.3913 19.5153 72.7455 18.3887 72.2848 17.0669C71.8342 15.7451 71.6089 14.2531 71.6089 12.5908V11.5544C71.6089 9.88213 71.8342 8.3901 72.2848 7.07831C72.7354 5.75651 73.3713 4.62998 74.1924 3.69871C75.0236 2.76744 76.0049 2.05647 77.1364 1.5658C78.278 1.07513 79.5347 0.829798 80.9066 0.829798C82.2885 0.829798 83.5452 1.07513 84.6767 1.5658C85.8183 2.05647 86.7996 2.76744 87.6207 3.69871C88.4519 4.62998 89.0927 5.75651 89.5433 7.07831C90.004 8.3901 90.2343 9.88213 90.2343 11.5544ZM85.6831 12.5908V11.5244C85.6831 10.3628 85.5779 9.34139 85.3677 8.46019C85.1574 7.57899 84.8469 6.83798 84.4364 6.23716C84.0258 5.63635 83.5251 5.18573 82.9343 4.88532C82.3435 4.5749 81.6676 4.41969 80.9066 4.41969C80.1455 4.41969 79.4696 4.5749 78.8788 4.88532C78.298 5.18573 77.8024 5.63635 77.3918 6.23716C76.9912 6.83798 76.6858 7.57899 76.4755 8.46019C76.2653 9.34139 76.1601 10.3628 76.1601 11.5244V12.5908C76.1601 13.7424 76.2653 14.7638 76.4755 15.655C76.6858 16.5362 76.9963 17.2822 77.4068 17.893C77.8174 18.4939 78.3181 18.9495 78.9089 19.2599C79.4997 19.5703 80.1756 19.7255 80.9366 19.7255C81.6977 19.7255 82.3736 19.5703 82.9644 19.2599C83.5552 18.9495 84.0509 18.4939 84.4514 17.893C84.852 17.2822 85.1574 16.5362 85.3677 15.655C85.5779 14.7638 85.6831 13.7424 85.6831 12.5908Z" fill="#416D50"/>
<path d="M112.525 17.2772C112.525 16.8867 112.465 16.5362 112.344 16.2258C112.234 15.9053 112.024 15.6149 111.714 15.3546C111.403 15.0842 110.968 14.8189 110.407 14.5585C109.846 14.2981 109.12 14.0278 108.229 13.7474C107.237 13.427 106.296 13.0665 105.405 12.6659C104.524 12.2654 103.743 11.7997 103.062 11.269C102.391 10.7283 101.86 10.1024 101.47 9.39146C101.089 8.68049 100.899 7.85437 100.899 6.91309C100.899 6.00184 101.099 5.17572 101.5 4.43471C101.9 3.68369 102.461 3.04281 103.182 2.51209C103.903 1.97135 104.754 1.55579 105.735 1.26539C106.727 0.974996 107.813 0.829798 108.995 0.829798C110.607 0.829798 112.014 1.12019 113.216 1.70099C114.417 2.28178 115.348 3.07786 116.009 4.08924C116.68 5.10062 117.016 6.25719 117.016 7.55897H112.54C112.54 6.91809 112.404 6.35733 112.134 5.87667C111.874 5.38601 111.473 5.00048 110.932 4.7201C110.402 4.43972 109.731 4.29953 108.92 4.29953C108.139 4.29953 107.488 4.41969 106.967 4.66002C106.446 4.89033 106.056 5.20576 105.795 5.60631C105.535 5.99684 105.405 6.43744 105.405 6.92811C105.405 7.29861 105.495 7.63407 105.675 7.93448C105.866 8.23489 106.146 8.51527 106.516 8.77562C106.887 9.03598 107.343 9.28131 107.883 9.51163C108.424 9.74194 109.05 9.96725 109.761 10.1875C110.953 10.548 111.999 10.9536 112.9 11.4042C113.811 11.8548 114.572 12.3605 115.183 12.9213C115.794 13.482 116.255 14.1179 116.565 14.8289C116.876 15.5398 117.031 16.3459 117.031 17.2472C117.031 18.1985 116.846 19.0496 116.475 19.8006C116.105 20.5517 115.569 21.1875 114.868 21.7082C114.167 22.2289 113.331 22.6245 112.359 22.8949C111.388 23.1652 110.302 23.3004 109.1 23.3004C108.019 23.3004 106.952 23.1602 105.901 22.8798C104.849 22.5894 103.893 22.1538 103.032 21.5731C102.181 20.9923 101.5 20.2513 100.989 19.35C100.478 18.4488 100.223 17.3823 100.223 16.1507H104.744C104.744 16.8316 104.849 17.4074 105.059 17.878C105.27 18.3487 105.565 18.7292 105.946 19.0196C106.336 19.31 106.797 19.5203 107.328 19.6504C107.868 19.7806 108.459 19.8457 109.1 19.8457C109.881 19.8457 110.522 19.7356 111.023 19.5153C111.533 19.295 111.909 18.9895 112.149 18.599C112.399 18.2085 112.525 17.7679 112.525 17.2772ZM134.68 10.0373V13.5521H123.264V10.0373H134.68ZM124.601 1.13021V23H120.095V1.13021H124.601ZM137.894 1.13021V23H133.403V1.13021H137.894ZM159.779 11.5544V12.5908C159.779 14.2531 159.554 15.7451 159.103 17.0669C158.652 18.3887 158.017 19.5153 157.196 20.4465C156.374 21.3678 155.393 22.0737 154.251 22.5644C153.12 23.0551 151.863 23.3004 150.481 23.3004C149.109 23.3004 147.853 23.0551 146.711 22.5644C145.58 22.0737 144.598 21.3678 143.767 20.4465C142.936 19.5153 142.29 18.3887 141.83 17.0669C141.379 15.7451 141.154 14.2531 141.154 12.5908V11.5544C141.154 9.88213 141.379 8.3901 141.83 7.07831C142.28 5.75651 142.916 4.62998 143.737 3.69871C144.568 2.76744 145.55 2.05647 146.681 1.5658C147.823 1.07513 149.079 0.829798 150.451 0.829798C151.833 0.829798 153.09 1.07513 154.221 1.5658C155.363 2.05647 156.344 2.76744 157.165 3.69871C157.997 4.62998 158.637 5.75651 159.088 7.07831C159.549 8.3901 159.779 9.88213 159.779 11.5544ZM155.228 12.5908V11.5244C155.228 10.3628 155.123 9.34139 154.912 8.46019C154.702 7.57899 154.392 6.83798 153.981 6.23716C153.571 5.63635 153.07 5.18573 152.479 4.88532C151.888 4.5749 151.212 4.41969 150.451 4.41969C149.69 4.41969 149.014 4.5749 148.424 4.88532C147.843 5.18573 147.347 5.63635 146.937 6.23716C146.536 6.83798 146.231 7.57899 146.02 8.46019C145.81 9.34139 145.705 10.3628 145.705 11.5244V12.5908C145.705 13.7424 145.81 14.7638 146.02 15.655C146.231 16.5362 146.541 17.2822 146.952 17.893C147.362 18.4939 147.863 18.9495 148.454 19.2599C149.044 19.5703 149.72 19.7255 150.481 19.7255C151.242 19.7255 151.918 19.5703 152.509 19.2599C153.1 18.9495 153.596 18.4939 153.996 17.893C154.397 17.2822 154.702 16.5362 154.912 15.655C155.123 14.7638 155.228 13.7424 155.228 12.5908ZM171.54 15.2044H165.967V11.6896H171.54C172.401 11.6896 173.102 11.5494 173.643 11.269C174.184 10.9786 174.579 10.5781 174.83 10.0674C175.08 9.55669 175.205 8.9809 175.205 8.34003C175.205 7.68914 175.08 7.08332 174.83 6.52255C174.579 5.96179 174.184 5.51118 173.643 5.17071C173.102 4.83025 172.401 4.66002 171.54 4.66002H167.53V23H163.023V1.13021H171.54C173.252 1.13021 174.719 1.44063 175.941 2.06148C177.173 2.67231 178.114 3.51846 178.765 4.59993C179.416 5.68141 179.741 6.91809 179.741 8.30999C179.741 9.72191 179.416 10.9436 178.765 11.975C178.114 13.0064 177.173 13.8025 175.941 14.3632C174.719 14.924 173.252 15.2044 171.54 15.2044Z" fill="white" fill-opacity="0.97"/>
<path d="M15.5375 10.0373H16.3471V9.22782H15.5375V10.0373ZM15.5375 13.5521V14.3617H16.3471V13.5521H15.5375ZM4.12198 13.5521H3.31245V14.3617H4.12198V13.5521ZM4.12198 10.0373V9.22782H3.31245V10.0373H4.12198ZM5.4588 1.13021H6.26832V0.320684H5.4588V1.13021ZM5.4588 23V23.8095H6.26832V23H5.4588ZM0.95266 23H0.143136V23.8095H0.95266V23ZM0.95266 1.13021V0.320684H0.143136V1.13021H0.95266ZM18.7519 1.13021H19.5614V0.320684H18.7519V1.13021ZM18.7519 23V23.8095H19.5614V23H18.7519ZM14.2608 23H13.4513V23.8095H14.2608V23ZM14.2608 1.13021V0.320684H13.4513V1.13021H14.2608ZM14.728 10.0373V13.5521H16.3471V10.0373H14.728ZM15.5375 12.7426H4.12198V14.3617H15.5375V12.7426ZM4.9315 13.5521V10.0373H3.31245V13.5521H4.9315ZM4.12198 10.8469H15.5375V9.22782H4.12198V10.8469ZM4.64927 1.13021V23H6.26832V1.13021H4.64927ZM5.4588 22.1905H0.95266V23.8095H5.4588V22.1905ZM1.76218 23V1.13021H0.143136V23H1.76218ZM0.95266 1.93973H5.4588V0.320684H0.95266V1.93973ZM17.9424 1.13021V23H19.5614V1.13021H17.9424ZM18.7519 22.1905H14.2608V23.8095H18.7519V22.1905ZM15.0703 23V1.13021H13.4513V23H15.0703ZM14.2608 1.93973H18.7519V0.320684H14.2608V1.93973ZM37.3472 19.4852H38.1568V18.6757H37.3472V19.4852ZM37.3472 23V23.8095H38.1568V23H37.3472ZM25.7064 23H24.8969V23.8095H25.7064V23ZM25.7064 19.4852V18.6757H24.8969V19.4852H25.7064ZM27.1784 1.13021H27.9879V0.320684H27.1784V1.13021ZM27.1784 23V23.8095H27.9879V23H27.1784ZM22.6722 23H21.8627V23.8095H22.6722V23ZM22.6722 1.13021V0.320684H21.8627V1.13021H22.6722ZM35.8302 10.0373H36.6397V9.22782H35.8302V10.0373ZM35.8302 13.462V14.2715H36.6397V13.462H35.8302ZM25.7064 13.462H24.8969V14.2715H25.7064V13.462ZM25.7064 10.0373V9.22782H24.8969V10.0373H25.7064ZM37.3322 1.13021H38.1417V0.320684H37.3322V1.13021ZM37.3322 4.66002V5.46954H38.1417V4.66002H37.3322ZM25.7064 4.66002H24.8969V5.46954H25.7064V4.66002ZM25.7064 1.13021V0.320684H24.8969V1.13021H25.7064ZM36.5377 19.4852V23H38.1568V19.4852H36.5377ZM37.3472 22.1905H25.7064V23.8095H37.3472V22.1905ZM26.5159 23V19.4852H24.8969V23H26.5159ZM25.7064 20.2947H37.3472V18.6757H25.7064V20.2947ZM26.3689 1.13021V23H27.9879V1.13021H26.3689ZM27.1784 22.1905H22.6722V23.8095H27.1784V22.1905ZM23.4818 23V1.13021H21.8627V23H23.4818ZM22.6722 1.93973H27.1784V0.320684H22.6722V1.93973ZM35.0206 10.0373V13.462H36.6397V10.0373H35.0206ZM35.8302 12.6525H25.7064V14.2715H35.8302V12.6525ZM26.5159 13.462V10.0373H24.8969V13.462H26.5159ZM25.7064 10.8469H35.8302V9.22782H25.7064V10.8469ZM36.5227 1.13021V4.66002H38.1417V1.13021H36.5227ZM37.3322 3.85049H25.7064V5.46954H37.3322V3.85049ZM26.5159 4.66002V1.13021H24.8969V4.66002H26.5159ZM25.7064 1.93973H37.3322V0.320684H25.7064V1.93973ZM54.035 19.4852H54.8445V18.6757H54.035V19.4852ZM54.035 23V23.8095H54.8445V23H54.035ZM43.025 23H42.2155V23.8095H43.025V23ZM43.025 19.4852V18.6757H42.2155V19.4852H43.025ZM44.482 1.13021H45.2915V0.320684H44.482V1.13021ZM44.482 23V23.8095H45.2915V23H44.482ZM39.9758 23H39.1663V23.8095H39.9758V23ZM39.9758 1.13021V0.320684H39.1663V1.13021H39.9758ZM53.2254 19.4852V23H54.8445V19.4852H53.2254ZM54.035 22.1905H43.025V23.8095H54.035V22.1905ZM43.8345 23V19.4852H42.2155V23H43.8345ZM43.025 20.2947H54.035V18.6757H43.025V20.2947ZM43.6724 1.13021V23H45.2915V1.13021H43.6724ZM44.482 22.1905H39.9758V23.8095H44.482V22.1905ZM40.7853 23V1.13021H39.1663V23H40.7853ZM39.9758 1.93973H44.482V0.320684H39.9758V1.93973ZM70.6776 19.4852H71.4872V18.6757H70.6776V19.4852ZM70.6776 23V23.8095H71.4872V23H70.6776ZM59.6676 23H58.8581V23.8095H59.6676V23ZM59.6676 19.4852V18.6757H58.8581V19.4852H59.6676ZM61.1246 1.13021H61.9342V0.320684H61.1246V1.13021ZM61.1246 23V23.8095H61.9342V23H61.1246ZM56.6185 23H55.809V23.8095H56.6185V23ZM56.6185 1.13021V0.320684H55.809V1.13021H56.6185ZM69.8681 19.4852V23H71.4872V19.4852H69.8681ZM70.6776 22.1905H59.6676V23.8095H70.6776V22.1905ZM60.4772 23V19.4852H58.8581V23H60.4772ZM59.6676 20.2947H70.6776V18.6757H59.6676V20.2947ZM60.3151 1.13021V23H61.9342V1.13021H60.3151ZM61.1246 22.1905H56.6185V23.8095H61.1246V22.1905ZM57.428 23V1.13021H55.809V23H57.428ZM56.6185 1.93973H61.1246V0.320684H56.6185V1.93973ZM87.6508 20.4465L88.2551 20.9852L88.258 20.9819L87.6508 20.4465ZM84.7068 22.5644L84.3871 21.8207L84.3847 21.8217L84.7068 22.5644ZM77.1665 22.5644L76.8444 23.3071L76.8468 23.3081L77.1665 22.5644ZM74.2225 20.4465L73.6185 20.9856L73.6214 20.9888L74.2225 20.4465ZM72.2848 17.0669L71.5186 17.3281L71.5204 17.3333L72.2848 17.0669ZM72.2848 7.07831L73.0504 7.34131L73.0511 7.33952L72.2848 7.07831ZM74.1924 3.69871L73.5885 3.15967L73.5852 3.16332L74.1924 3.69871ZM77.1364 1.5658L76.8168 0.822065L76.8144 0.823098L77.1364 1.5658ZM84.6767 1.5658L84.3547 2.30851L84.357 2.30953L84.6767 1.5658ZM87.6207 3.69871L87.0135 4.2341L87.0168 4.23773L87.6207 3.69871ZM89.5433 7.07831L88.7771 7.33953L88.7795 7.34652L89.5433 7.07831ZM85.3677 8.46019L84.5802 8.6481L85.3677 8.46019ZM82.9343 4.88532L82.5578 5.60201L82.5674 5.60692L82.9343 4.88532ZM78.8788 4.88532L79.2507 5.60437L79.2553 5.60195L78.8788 4.88532ZM77.3918 6.23716L76.7234 5.78041L76.7182 5.78812L77.3918 6.23716ZM76.4755 15.655L75.6877 15.8409L75.6881 15.8429L76.4755 15.655ZM77.4068 17.893L76.7349 18.3446L76.7384 18.3498L77.4068 17.893ZM78.9089 19.2599L78.5323 19.9765L78.9089 19.2599ZM82.9644 19.2599L83.3409 19.9765L82.9644 19.2599ZM84.4514 17.893L85.125 18.3421L85.1284 18.337L84.4514 17.893ZM85.3677 15.655L86.1551 15.8429L86.1555 15.8409L85.3677 15.655ZM89.4248 11.5544V12.5908H91.0438V11.5544H89.4248ZM89.4248 12.5908C89.4248 14.1807 89.2092 15.5823 88.7921 16.8057L90.3246 17.3281C90.8087 15.908 91.0438 14.3255 91.0438 12.5908H89.4248ZM88.7921 16.8057C88.3717 18.0391 87.7858 19.0693 87.0436 19.9111L88.258 20.9819C89.1579 19.9612 89.8438 18.7383 90.3246 17.3281L88.7921 16.8057ZM87.0464 19.9079C86.3046 20.7402 85.4207 21.3764 84.3871 21.8207L85.0264 23.3081C86.2759 22.7711 87.3547 21.9954 88.2551 20.9852L87.0464 19.9079ZM84.3847 21.8217C83.3664 22.2633 82.2211 22.4909 80.9366 22.4909V24.1099C82.4159 24.1099 83.784 23.8469 85.0288 23.3071L84.3847 21.8217ZM80.9366 22.4909C79.6632 22.4909 78.5167 22.2636 77.4862 21.8207L76.8468 23.3081C78.0994 23.8465 79.4663 24.1099 80.9366 24.1099V22.4909ZM77.4885 21.8217C76.4639 21.3774 75.5776 20.74 74.8235 19.9043L73.6214 20.9888C74.5296 21.9955 75.606 22.7701 76.8444 23.3071L77.4885 21.8217ZM74.8264 19.9075C74.0743 19.0648 73.4791 18.034 73.0493 16.8005L71.5204 17.3333C72.0118 18.7435 72.7084 19.9657 73.6185 20.9855L74.8264 19.9075ZM73.0511 16.8057C72.634 15.5823 72.4184 14.1807 72.4184 12.5908H70.7994C70.7994 14.3255 71.0345 15.908 71.5186 17.3281L73.0511 16.8057ZM72.4184 12.5908V11.5544H70.7994V12.5908H72.4184ZM72.4184 11.5544C72.4184 9.95379 72.6342 8.5531 73.0504 7.34131L71.5192 6.81531C71.0343 8.2271 70.7994 9.81047 70.7994 11.5544H72.4184ZM73.0511 7.33952C73.4715 6.10613 74.0574 5.07594 74.7996 4.23409L73.5852 3.16332C72.6853 4.18401 71.9994 5.40689 71.5186 6.8171L73.0511 7.33952ZM74.7964 4.23773C75.5504 3.39289 76.4359 2.75193 77.4585 2.3085L76.8144 0.823098C75.5739 1.36101 74.4967 2.14199 73.5885 3.15968L74.7964 4.23773ZM77.4561 2.30953C78.4866 1.86659 79.6331 1.63932 80.9066 1.63932V0.0202746C79.4363 0.0202746 78.0694 0.283674 76.8168 0.822069L77.4561 2.30953ZM80.9066 1.63932C82.191 1.63932 83.3363 1.86693 84.3547 2.3085L84.9988 0.823098C83.754 0.283331 82.3859 0.0202746 80.9066 0.0202746V1.63932ZM84.357 2.30953C85.3886 2.75292 86.2717 3.39277 87.0135 4.23409L88.2279 3.16332C87.3275 2.14211 86.2479 1.36001 84.9964 0.822069L84.357 2.30953ZM87.0168 4.23773C87.7677 5.07911 88.3573 6.10807 88.7771 7.33952L90.3096 6.8171C89.8282 5.40495 89.1361 4.18084 88.2247 3.15968L87.0168 4.23773ZM88.7795 7.34652C89.2045 8.55665 89.4248 9.9555 89.4248 11.5544H91.0438C91.0438 9.80876 90.8035 8.22354 90.3071 6.81011L88.7795 7.34652ZM86.4926 12.5908V11.5244H84.8736V12.5908H86.4926ZM86.4926 11.5244C86.4926 10.3163 86.3835 9.22947 86.1551 8.27229L84.5802 8.6481C84.7724 9.45332 84.8736 10.4093 84.8736 11.5244H86.4926ZM86.1551 8.27229C85.9273 7.31765 85.5829 6.48011 85.1048 5.78044L83.768 6.69389C84.111 7.19586 84.3875 7.84034 84.5802 8.6481L86.1551 8.27229ZM85.1048 5.78044C84.6252 5.07867 84.0248 4.53161 83.3013 4.16373L82.5674 5.60692C83.0255 5.83985 83.4264 6.19402 83.768 6.69389L85.1048 5.78044ZM83.3109 4.1687C82.5885 3.78917 81.7802 3.61016 80.9066 3.61016V5.22921C81.555 5.22921 82.0985 5.36063 82.5578 5.60195L83.3109 4.1687ZM80.9066 3.61016C80.0329 3.61016 79.2246 3.78917 78.5023 4.1687L79.2553 5.60195C79.7146 5.36063 80.2582 5.22921 80.9066 5.22921V3.61016ZM78.5069 4.16629C77.7941 4.53496 77.2009 5.08171 76.7234 5.78044L78.0602 6.69389C78.4038 6.19098 78.8019 5.83651 79.2507 5.60436L78.5069 4.16629ZM76.7182 5.78812C76.253 6.48594 75.9152 7.32073 75.6881 8.27229L77.263 8.6481C77.4565 7.83725 77.7295 7.19002 78.0654 6.68621L76.7182 5.78812ZM75.6881 8.27229C75.4597 9.22947 75.3506 10.3163 75.3506 11.5244H76.9696C76.9696 10.4093 77.0708 9.45332 77.263 8.6481L75.6881 8.27229ZM75.3506 11.5244V12.5908H76.9696V11.5244H75.3506ZM75.3506 12.5908C75.3506 13.7897 75.4599 14.8755 75.6877 15.8409L77.2634 15.4691C77.0706 14.652 76.9696 13.695 76.9696 12.5908H75.3506ZM75.6881 15.8429C75.9159 16.7972 76.2596 17.6374 76.7349 18.3446L78.0787 17.4415C77.7329 16.9271 77.4558 16.2752 77.263 15.4671L75.6881 15.8429ZM76.7384 18.3498C77.2167 19.0497 77.8141 19.5992 78.5323 19.9765L79.2854 18.5433C78.822 18.2998 78.418 17.9381 78.0752 17.4363L76.7384 18.3498ZM78.5323 19.9765C79.2547 20.3561 80.063 20.5351 80.9366 20.5351V18.916C80.2882 18.916 79.7447 18.7846 79.2854 18.5433L78.5323 19.9765ZM80.9366 20.5351C81.8103 20.5351 82.6186 20.3561 83.3409 19.9765L82.5879 18.5433C82.1286 18.7846 81.585 18.916 80.9366 18.916V20.5351ZM83.3409 19.9765C84.0612 19.5981 84.6557 19.046 85.125 18.3421L83.7778 17.444C83.4461 17.9417 83.0491 18.3009 82.5879 18.5433L83.3409 19.9765ZM85.1284 18.337C85.5909 17.6316 85.9281 16.7941 86.1551 15.8429L84.5802 15.4671C84.3867 16.2783 84.113 16.9329 83.7745 17.4491L85.1284 18.337ZM86.1555 15.8409C86.3833 14.8755 86.4926 13.7897 86.4926 12.5908H84.8736C84.8736 13.695 84.7726 14.652 84.5798 15.4691L86.1555 15.8409ZM112.344 16.2258L111.579 16.4889L111.584 16.5036L111.589 16.518L112.344 16.2258ZM111.714 15.3546L111.182 15.965L111.188 15.97L111.193 15.9748L111.714 15.3546ZM108.229 13.7474L107.98 14.5177L107.986 14.5196L108.229 13.7474ZM105.405 12.6659L105.07 13.4029L105.073 13.4043L105.405 12.6659ZM103.062 11.269L102.554 11.8994L102.564 11.9075L103.062 11.269ZM101.47 9.39146L100.756 9.77348L100.76 9.7812L101.47 9.39146ZM101.5 4.43471L102.212 4.81966L102.214 4.81566L101.5 4.43471ZM103.182 2.51209L103.662 3.16406L103.668 3.15971L103.182 2.51209ZM105.735 1.26539L105.508 0.48851L105.506 0.489142L105.735 1.26539ZM116.009 4.08924L115.332 4.53208L115.335 4.53674L116.009 4.08924ZM117.016 7.55897V8.36849H117.825V7.55897H117.016ZM112.54 7.55897H111.73V8.36849H112.54V7.55897ZM112.134 5.87667L111.419 6.25611L111.424 6.26489L111.429 6.27355L112.134 5.87667ZM110.932 4.7201L110.554 5.43589L110.56 5.43876L110.932 4.7201ZM106.967 4.66002L107.295 5.40045L107.306 5.39503L106.967 4.66002ZM105.795 5.60631L106.469 6.05538L106.474 6.04749L105.795 5.60631ZM105.675 7.93448L104.981 8.35097L104.986 8.35936L104.991 8.36761L105.675 7.93448ZM106.516 8.77562L106.982 8.11328L106.516 8.77562ZM109.761 10.1875L109.521 10.9608L109.526 10.9624L109.761 10.1875ZM112.9 11.4042L112.538 12.1283L112.541 12.1299L112.9 11.4042ZM115.183 12.9213L114.636 13.5176L115.183 12.9213ZM116.565 14.8289L115.823 15.1528L116.565 14.8289ZM114.868 21.7082L114.385 21.0584L114.868 21.7082ZM105.901 22.8798L105.685 23.6602L105.692 23.662L105.901 22.8798ZM103.032 21.5731L102.575 22.2418L102.579 22.2442L103.032 21.5731ZM100.223 16.1507V15.3411H99.4134V16.1507H100.223ZM104.744 16.1507H105.554V15.3411H104.744V16.1507ZM105.946 19.0196L105.455 19.6632L105.463 19.6692L105.946 19.0196ZM107.328 19.6504L107.135 20.4367L107.138 20.4375L107.328 19.6504ZM111.023 19.5153L110.702 18.7719L110.697 18.7743L111.023 19.5153ZM112.149 18.599L111.468 18.1621L111.464 18.1684L111.46 18.1747L112.149 18.599ZM113.334 17.2772C113.334 16.8037 113.261 16.3518 113.099 15.9335L111.589 16.518C111.668 16.7206 111.715 16.9696 111.715 17.2772H113.334ZM113.11 15.9626C112.943 15.478 112.635 15.0706 112.234 14.7343L111.193 15.9748C111.413 16.1593 111.525 16.3327 111.579 16.4889L113.11 15.9626ZM112.245 14.7441C111.856 14.4054 111.347 14.1023 110.748 13.8243L110.066 15.2927C110.588 15.5354 110.95 15.763 111.182 15.965L112.245 14.7441ZM110.748 13.8243C110.143 13.5437 109.381 13.2614 108.472 12.9752L107.986 14.5196C108.859 14.7942 109.549 15.0526 110.066 15.2927L110.748 13.8243ZM108.478 12.9771C107.513 12.6652 106.599 12.3152 105.737 11.9275L105.073 13.4043C105.993 13.8178 106.962 14.1887 107.98 14.5177L108.478 12.9771ZM105.74 11.929C104.91 11.5516 104.185 11.1178 103.559 10.6305L102.564 11.9075C103.301 12.4817 104.138 12.9791 105.07 13.4029L105.74 11.929ZM103.57 10.6387C102.976 10.1601 102.516 9.61446 102.179 9.00172L100.76 9.7812C101.205 10.5904 101.806 11.2965 102.554 11.8993L103.57 10.6387ZM102.183 9.00947C101.875 8.43426 101.708 7.74346 101.708 6.91309H100.089C100.089 7.96528 100.303 8.92673 100.756 9.77346L102.183 9.00947ZM101.708 6.91309C101.708 6.12497 101.88 5.43288 102.212 4.81965L100.787 4.04977C100.318 4.91856 100.089 5.87872 100.089 6.91309H101.708ZM102.214 4.81566C102.555 4.17687 103.033 3.62687 103.662 3.16403L102.702 1.86015C101.889 2.45876 101.246 3.19051 100.785 4.05376L102.214 4.81566ZM103.668 3.15971C104.302 2.684 105.064 2.30839 105.965 2.04164L105.506 0.489142C104.444 0.803188 103.504 1.25871 102.696 1.86447L103.668 3.15971ZM105.963 2.04227C106.871 1.77638 107.879 1.63932 108.995 1.63932V0.0202746C107.747 0.0202746 106.583 0.173614 105.508 0.488513L105.963 2.04227ZM108.995 1.63932C110.51 1.63932 111.792 1.91204 112.863 2.42984L113.568 0.972131C112.236 0.328346 110.704 0.0202746 108.995 0.0202746V1.63932ZM112.863 2.42984C113.947 2.95352 114.76 3.65645 115.332 4.53207L116.687 3.64641C115.937 2.49927 114.888 1.61003 113.568 0.972131L112.863 2.42984ZM115.335 4.53674C115.911 5.40571 116.206 6.40427 116.206 7.55897H117.825C117.825 6.11012 117.449 4.79552 116.684 3.64174L115.335 4.53674ZM117.016 6.74944H112.54V8.36849H117.016V6.74944ZM113.349 7.55897C113.349 6.8018 113.189 6.1 112.84 5.4798L111.429 6.27355C111.62 6.61466 111.73 7.03439 111.73 7.55897H113.349ZM112.849 5.49724C112.504 4.84733 111.977 4.34985 111.305 4.00144L110.56 5.43876C110.969 5.65111 111.243 5.92468 111.419 6.25611L112.849 5.49724ZM111.311 4.00432C110.63 3.64458 109.818 3.49 108.92 3.49V5.10905C109.643 5.10905 110.174 5.23485 110.554 5.43587L111.311 4.00432ZM108.92 3.49C108.062 3.49 107.286 3.6212 106.628 3.925L107.306 5.39503C107.689 5.21818 108.216 5.10905 108.92 5.10905V3.49ZM106.64 3.91968C106.003 4.20116 105.478 4.60941 105.117 5.16512L106.474 6.04749C106.634 5.80211 106.889 5.5795 107.295 5.40035L106.64 3.91968ZM105.122 5.15726C104.769 5.68701 104.595 6.28528 104.595 6.92811H106.214C106.214 6.5896 106.301 6.30667 106.469 6.05535L105.122 5.15726ZM104.595 6.92811C104.595 7.43653 104.721 7.91741 104.981 8.35097L106.369 7.51798C106.269 7.35072 106.214 7.16069 106.214 6.92811H104.595ZM104.991 8.36761C105.252 8.77902 105.616 9.13243 106.051 9.43797L106.982 8.11328C106.676 7.89811 106.479 7.69075 106.359 7.50134L104.991 8.36761ZM106.051 9.43797C106.479 9.73888 106.988 10.0101 107.566 10.2564L108.201 8.76684C107.697 8.55256 107.295 8.33307 106.982 8.11328L106.051 9.43797ZM107.566 10.2564C108.138 10.4999 108.791 10.7344 109.521 10.9608L110 9.41429C109.309 9.20012 108.71 8.98396 108.201 8.76684L107.566 10.2564ZM109.526 10.9624C110.684 11.3126 111.686 11.7023 112.538 12.1283L113.262 10.6801C112.312 10.2049 111.221 9.78351 109.995 9.4127L109.526 10.9624ZM112.541 12.1299C113.399 12.5539 114.092 13.0188 114.636 13.5176L115.731 12.3249C115.052 11.7022 114.224 11.1558 113.259 10.6786L112.541 12.1299ZM114.636 13.5176C115.169 14.0074 115.561 14.5522 115.823 15.1528L117.307 14.5049C116.948 13.6836 116.419 12.9566 115.731 12.3249L114.636 13.5176ZM115.823 15.1528C116.082 15.7464 116.221 16.4396 116.221 17.2472H117.84C117.84 16.2523 117.669 15.3333 117.307 14.5049L115.823 15.1528ZM116.221 17.2472C116.221 18.0912 116.058 18.8171 115.749 19.4425L117.201 20.1588C117.634 19.2821 117.84 18.3057 117.84 17.2472H116.221ZM115.749 19.4425C115.438 20.0734 114.988 20.6109 114.385 21.0584L115.351 22.3581C116.15 21.7642 116.771 21.0299 117.201 20.1588L115.749 19.4425ZM114.385 21.0584C113.775 21.5114 113.032 21.8672 112.142 22.115L112.576 23.6747C113.629 23.3818 114.558 22.9465 115.351 22.3581L114.385 21.0584ZM112.142 22.115C111.254 22.3623 110.242 22.4909 109.1 22.4909V24.1099C110.361 24.1099 111.522 23.9681 112.576 23.6747L112.142 22.115ZM109.1 22.4909C108.089 22.4909 107.093 22.36 106.109 22.0976L105.692 23.662C106.811 23.9604 107.948 24.1099 109.1 24.1099V22.4909ZM106.116 22.0995C105.145 21.8313 104.269 21.4313 103.484 20.9019L102.579 22.2442C103.516 22.8764 104.554 23.3476 105.685 23.6601L106.116 22.0995ZM103.488 20.9044C102.74 20.3937 102.143 19.7451 101.693 18.9509L100.285 19.7491C100.856 20.7574 101.622 21.5908 102.575 22.2417L103.488 20.9044ZM101.693 18.9509C101.263 18.1926 101.032 17.269 101.032 16.1507H99.4134C99.4134 17.4957 99.693 18.705 100.285 19.7491L101.693 18.9509ZM100.223 16.9602H104.744V15.3411H100.223V16.9602ZM103.935 16.1507C103.935 16.9106 104.051 17.6061 104.32 18.2083L105.799 17.5478C105.647 17.2087 105.554 16.7526 105.554 16.1507H103.935ZM104.32 18.2083C104.581 18.7926 104.958 19.2844 105.455 19.6631L106.437 18.376C106.172 18.174 105.958 17.9047 105.799 17.5478L104.32 18.2083ZM105.463 19.6692C105.95 20.0315 106.512 20.2839 107.135 20.4367L107.52 18.8642C107.082 18.7566 106.723 18.5885 106.429 18.37L105.463 19.6692ZM107.138 20.4375C107.749 20.5847 108.405 20.6552 109.1 20.6552V19.0362C108.513 19.0362 107.987 18.9766 107.517 18.8634L107.138 20.4375ZM109.1 20.6552C109.949 20.6552 110.711 20.5367 111.349 20.2562L110.697 18.7743C110.333 18.9344 109.813 19.0362 109.1 19.0362V20.6552ZM111.343 20.2586C111.974 19.9866 112.494 19.5834 112.839 19.0233L111.46 18.1747C111.324 18.3957 111.093 18.6033 110.702 18.7719L111.343 20.2586ZM112.831 19.0359C113.169 18.5073 113.334 17.9134 113.334 17.2772H111.715C111.715 17.6224 111.629 17.9097 111.468 18.1621L112.831 19.0359ZM134.68 10.0373H135.489V9.22782H134.68V10.0373ZM134.68 13.5521V14.3617H135.489V13.5521H134.68ZM123.264 13.5521H122.455V14.3617H123.264V13.5521ZM123.264 10.0373V9.22782H122.455V10.0373H123.264ZM124.601 1.13021H125.411V0.320684H124.601V1.13021ZM124.601 23V23.8095H125.411V23H124.601ZM120.095 23H119.285V23.8095H120.095V23ZM120.095 1.13021V0.320684H119.285V1.13021H120.095ZM137.894 1.13021H138.704V0.320684H137.894V1.13021ZM137.894 23V23.8095H138.704V23H137.894ZM133.403 23H132.594V23.8095H133.403V23ZM133.403 1.13021V0.320684H132.594V1.13021H133.403ZM133.87 10.0373V13.5521H135.489V10.0373H133.87ZM134.68 12.7426H123.264V14.3617H134.68V12.7426ZM124.074 13.5521V10.0373H122.455V13.5521H124.074ZM123.264 10.8469H134.68V9.22782H123.264V10.8469ZM123.792 1.13021V23H125.411V1.13021H123.792ZM124.601 22.1905H120.095V23.8095H124.601V22.1905ZM120.904 23V1.13021H119.285V23H120.904ZM120.095 1.93973H124.601V0.320684H120.095V1.93973ZM137.085 1.13021V23H138.704V1.13021H137.085ZM137.894 22.1905H133.403V23.8095H137.894V22.1905ZM134.213 23V1.13021H132.594V23H134.213ZM133.403 1.93973H137.894V0.320684H133.403V1.93973ZM157.196 20.4465L157.8 20.9852L157.803 20.9819L157.196 20.4465ZM154.251 22.5644L153.932 21.8207L153.929 21.8217L154.251 22.5644ZM146.711 22.5644L146.389 23.3071L146.392 23.3081L146.711 22.5644ZM143.767 20.4465L143.163 20.9856L143.166 20.9888L143.767 20.4465ZM141.83 17.0669L141.063 17.3281L141.065 17.3333L141.83 17.0669ZM141.83 7.07831L142.595 7.34131L142.596 7.33952L141.83 7.07831ZM143.737 3.69871L143.133 3.15967L143.13 3.16332L143.737 3.69871ZM146.681 1.5658L146.362 0.822065L146.359 0.823098L146.681 1.5658ZM154.221 1.5658L153.899 2.30851L153.902 2.30953L154.221 1.5658ZM157.165 3.69871L156.558 4.2341L156.561 4.23773L157.165 3.69871ZM159.088 7.07831L158.322 7.33953L158.324 7.34652L159.088 7.07831ZM154.912 8.46019L154.125 8.6481L154.912 8.46019ZM152.479 4.88532L152.103 5.60201L152.112 5.60692L152.479 4.88532ZM148.424 4.88532L148.795 5.60437L148.8 5.60195L148.424 4.88532ZM146.937 6.23716L146.268 5.78041L146.263 5.78812L146.937 6.23716ZM146.02 15.655L145.232 15.8409L145.233 15.8429L146.02 15.655ZM146.952 17.893L146.28 18.3446L146.283 18.3498L146.952 17.893ZM148.454 19.2599L148.077 19.9765L148.454 19.2599ZM152.509 19.2599L152.886 19.9765L152.509 19.2599ZM153.996 17.893L154.67 18.3421L154.673 18.337L153.996 17.893ZM154.912 15.655L155.7 15.8429L155.7 15.8409L154.912 15.655ZM158.969 11.5544V12.5908H160.589V11.5544H158.969ZM158.969 12.5908C158.969 14.1807 158.754 15.5823 158.337 16.8057L159.869 17.3281C160.353 15.908 160.589 14.3255 160.589 12.5908H158.969ZM158.337 16.8057C157.916 18.0391 157.331 19.0693 156.588 19.9111L157.803 20.9819C158.703 19.9612 159.389 18.7383 159.869 17.3281L158.337 16.8057ZM156.591 19.9079C155.849 20.7402 154.965 21.3764 153.932 21.8207L154.571 23.3081C155.821 22.7711 156.899 21.9954 157.8 20.9852L156.591 19.9079ZM153.929 21.8217C152.911 22.2633 151.766 22.4909 150.481 22.4909V24.1099C151.961 24.1099 153.329 23.8469 154.574 23.3071L153.929 21.8217ZM150.481 22.4909C149.208 22.4909 148.061 22.2636 147.031 21.8207L146.392 23.3081C147.644 23.8465 149.011 24.1099 150.481 24.1099V22.4909ZM147.033 21.8217C146.009 21.3774 145.122 20.74 144.368 19.9043L143.166 20.9888C144.074 21.9955 145.151 22.7701 146.389 23.3071L147.033 21.8217ZM144.371 19.9075C143.619 19.0648 143.024 18.034 142.594 16.8005L141.065 17.3333C141.557 18.7435 142.253 19.9657 143.163 20.9855L144.371 19.9075ZM142.596 16.8057C142.179 15.5823 141.963 14.1807 141.963 12.5908H140.344C140.344 14.3255 140.579 15.908 141.063 17.3281L142.596 16.8057ZM141.963 12.5908V11.5544H140.344V12.5908H141.963ZM141.963 11.5544C141.963 9.95379 142.179 8.5531 142.595 7.34131L141.064 6.81531C140.579 8.2271 140.344 9.81047 140.344 11.5544H141.963ZM142.596 7.33952C143.016 6.10613 143.602 5.07594 144.344 4.23409L143.13 3.16332C142.23 4.18401 141.544 5.40689 141.063 6.8171L142.596 7.33952ZM144.341 4.23773C145.095 3.39289 145.981 2.75193 147.003 2.3085L146.359 0.823098C145.119 1.36101 144.041 2.14199 143.133 3.15968L144.341 4.23773ZM147.001 2.30953C148.031 1.86659 149.178 1.63932 150.451 1.63932V0.0202746C148.981 0.0202746 147.614 0.283674 146.362 0.822069L147.001 2.30953ZM150.451 1.63932C151.736 1.63932 152.881 1.86693 153.899 2.3085L154.544 0.823098C153.299 0.283331 151.931 0.0202746 150.451 0.0202746V1.63932ZM153.902 2.30953C154.933 2.75292 155.816 3.39277 156.558 4.23409L157.773 3.16332C156.872 2.14211 155.793 1.36001 154.541 0.822069L153.902 2.30953ZM156.561 4.23773C157.312 5.07911 157.902 6.10807 158.322 7.33952L159.854 6.8171C159.373 5.40495 158.681 4.18084 157.769 3.15968L156.561 4.23773ZM158.324 7.34652C158.749 8.55665 158.969 9.9555 158.969 11.5544H160.589C160.589 9.80876 160.348 8.22354 159.852 6.81011L158.324 7.34652ZM156.037 12.5908V11.5244H154.418V12.5908H156.037ZM156.037 11.5244C156.037 10.3163 155.928 9.22947 155.7 8.27229L154.125 8.6481C154.317 9.45332 154.418 10.4093 154.418 11.5244H156.037ZM155.7 8.27229C155.472 7.31765 155.128 6.48011 154.65 5.78044L153.313 6.69389C153.656 7.19586 153.932 7.84034 154.125 8.6481L155.7 8.27229ZM154.65 5.78044C154.17 5.07867 153.57 4.53161 152.846 4.16373L152.112 5.60692C152.57 5.83985 152.971 6.19402 153.313 6.69389L154.65 5.78044ZM152.856 4.1687C152.133 3.78917 151.325 3.61016 150.451 3.61016V5.22921C151.1 5.22921 151.643 5.36063 152.103 5.60195L152.856 4.1687ZM150.451 3.61016C149.578 3.61016 148.769 3.78917 148.047 4.1687L148.8 5.60195C149.259 5.36063 149.803 5.22921 150.451 5.22921V3.61016ZM148.052 4.16629C147.339 4.53496 146.746 5.08171 146.268 5.78044L147.605 6.69389C147.949 6.19098 148.347 5.83651 148.795 5.60436L148.052 4.16629ZM146.263 5.78812C145.798 6.48594 145.46 7.32073 145.233 8.27229L146.808 8.6481C147.001 7.83725 147.274 7.19002 147.61 6.68621L146.263 5.78812ZM145.233 8.27229C145.004 9.22947 144.895 10.3163 144.895 11.5244H146.514C146.514 10.4093 146.616 9.45332 146.808 8.6481L145.233 8.27229ZM144.895 11.5244V12.5908H146.514V11.5244H144.895ZM144.895 12.5908C144.895 13.7897 145.005 14.8755 145.232 15.8409L146.808 15.4691C146.615 14.652 146.514 13.695 146.514 12.5908H144.895ZM145.233 15.8429C145.461 16.7972 145.804 17.6374 146.28 18.3446L147.623 17.4415C147.278 16.9271 147.001 16.2752 146.808 15.4671L145.233 15.8429ZM146.283 18.3498C146.761 19.0497 147.359 19.5992 148.077 19.9765L148.83 18.5433C148.367 18.2998 147.963 17.9381 147.62 17.4363L146.283 18.3498ZM148.077 19.9765C148.799 20.3561 149.608 20.5351 150.481 20.5351V18.916C149.833 18.916 149.289 18.7846 148.83 18.5433L148.077 19.9765ZM150.481 20.5351C151.355 20.5351 152.163 20.3561 152.886 19.9765L152.133 18.5433C151.673 18.7846 151.13 18.916 150.481 18.916V20.5351ZM152.886 19.9765C153.606 19.5981 154.2 19.046 154.67 18.3421L153.323 17.444C152.991 17.9417 152.594 18.3009 152.133 18.5433L152.886 19.9765ZM154.673 18.337C155.136 17.6316 155.473 16.7941 155.7 15.8429L154.125 15.4671C153.931 16.2783 153.658 16.9329 153.319 17.4491L154.673 18.337ZM155.7 15.8409C155.928 14.8755 156.037 13.7897 156.037 12.5908H154.418C154.418 13.695 154.317 14.652 154.125 15.4691L155.7 15.8409ZM165.967 15.2044H165.158V16.0139H165.967V15.2044ZM165.967 11.6896V10.8801H165.158V11.6896H165.967ZM173.643 11.269L174.016 11.9878L174.026 11.9822L173.643 11.269ZM174.83 6.52255L175.569 6.19255L174.83 6.52255ZM167.53 4.66002V3.85049H166.72V4.66002H167.53ZM167.53 23V23.8095H168.339V23H167.53ZM163.023 23H162.214V23.8095H163.023V23ZM163.023 1.13021V0.320684H162.214V1.13021H163.023ZM175.941 2.06148L175.574 2.78319L175.581 2.78671L175.941 2.06148ZM175.941 14.3632L175.606 13.6265L175.603 13.6275L175.941 14.3632ZM171.54 14.3949H165.967V16.0139H171.54V14.3949ZM166.777 15.2044V11.6896H165.158V15.2044H166.777ZM165.967 12.4991H171.54V10.8801H165.967V12.4991ZM171.54 12.4991C172.481 12.4991 173.322 12.3473 174.016 11.9877L173.27 10.5504C172.882 10.7515 172.322 10.8801 171.54 10.8801V12.4991ZM174.026 11.9822C174.703 11.6184 175.226 11.0986 175.556 10.4237L174.103 9.71106C173.933 10.0576 173.664 10.3388 173.26 10.5558L174.026 11.9822ZM175.556 10.4237C175.868 9.78875 176.015 9.08865 176.015 8.34003H174.396C174.396 8.87316 174.292 9.32463 174.103 9.71106L175.556 10.4237ZM176.015 8.34003C176.015 7.58236 175.868 6.86331 175.569 6.19255L174.09 6.85256C174.292 7.30333 174.396 7.79593 174.396 8.34003H176.015ZM175.569 6.19255C175.25 5.47946 174.745 4.90777 174.074 4.48567L173.212 5.85576C173.623 6.11458 173.908 6.44412 174.09 6.85256L175.569 6.19255ZM174.074 4.48567C173.367 4.04021 172.502 3.85049 171.54 3.85049V5.46954C172.3 5.46954 172.838 5.62029 173.212 5.85576L174.074 4.48567ZM171.54 3.85049H167.53V5.46954H171.54V3.85049ZM166.72 4.66002V23H168.339V4.66002H166.72ZM167.53 22.1905H163.023V23.8095H167.53V22.1905ZM163.833 23V1.13021H162.214V23H163.833ZM163.023 1.93973H171.54V0.320684H163.023V1.93973ZM171.54 1.93973C173.156 1.93973 174.491 2.23267 175.574 2.78315L176.308 1.3398C174.948 0.64859 173.349 0.320684 171.54 0.320684V1.93973ZM175.581 2.78671C176.687 3.33527 177.507 4.08002 178.071 5.01737L179.458 4.18249C178.721 2.9569 177.658 2.00934 176.301 1.33624L175.581 2.78671ZM178.071 5.01737C178.639 5.96012 178.932 7.04962 178.932 8.30999H180.551C180.551 6.78656 180.193 5.4027 179.458 4.18249L178.071 5.01737ZM178.932 8.30999C178.932 9.5936 178.637 10.6602 178.08 11.543L179.449 12.407C180.194 11.2269 180.551 9.85023 180.551 8.30999H178.932ZM178.08 11.543C177.523 12.4265 176.71 13.1237 175.606 13.6265L176.276 15.1C177.635 14.4813 178.705 13.5863 179.449 12.407L178.08 11.543ZM175.603 13.6275C174.512 14.1283 173.167 14.3949 171.54 14.3949V16.0139C173.338 16.0139 174.926 15.7197 176.279 15.099L175.603 13.6275Z" fill="black"/>
</svg>
