<svg width="249" height="58" viewBox="0 0 249 58" fill="none" xmlns="http://www.w3.org/2000/svg">
<g clip-path="url(#clip0_6_287)">
<rect width="1280" height="2686" transform="translate(-51 -34)" fill="white"/>
<path d="M32.4287 24.9873V29.3291H18.3271V24.9873H32.4287ZM19.9785 13.9844V41H14.4121V13.9844H19.9785ZM36.3994 13.9844V41H30.8516V13.9844H36.3994ZM59.3701 36.6582V41H44.9902V36.6582H59.3701ZM46.8086 13.9844V41H41.2422V13.9844H46.8086ZM57.4961 24.9873V29.2178H44.9902V24.9873H57.4961ZM59.3516 13.9844V18.3447H44.9902V13.9844H59.3516ZM79.9844 36.6582V41H66.3838V36.6582H79.9844ZM68.1836 13.9844V41H62.6172V13.9844H68.1836ZM100.543 36.6582V41H86.9424V36.6582H100.543ZM88.7422 13.9844V41H83.1758V13.9844H88.7422ZM124.701 26.8613V28.1416C124.701 30.195 124.423 32.0381 123.866 33.6709C123.31 35.3037 122.524 36.6953 121.51 37.8457C120.495 38.9837 119.283 39.8558 117.873 40.4619C116.475 41.068 114.923 41.3711 113.216 41.3711C111.521 41.3711 109.969 41.068 108.559 40.4619C107.161 39.8558 105.949 38.9837 104.922 37.8457C103.895 36.6953 103.097 35.3037 102.528 33.6709C101.972 32.0381 101.693 30.195 101.693 28.1416V26.8613C101.693 24.7956 101.972 22.9525 102.528 21.332C103.085 19.6992 103.87 18.3076 104.885 17.1572C105.911 16.0068 107.124 15.1286 108.521 14.5225C109.932 13.9163 111.484 13.6133 113.179 13.6133C114.886 13.6133 116.438 13.9163 117.836 14.5225C119.246 15.1286 120.458 16.0068 121.473 17.1572C122.499 18.3076 123.291 19.6992 123.848 21.332C124.417 22.9525 124.701 24.7956 124.701 26.8613ZM119.079 28.1416V26.8242C119.079 25.3893 118.949 24.1276 118.689 23.0391C118.43 21.9505 118.046 21.0352 117.539 20.293C117.032 19.5508 116.413 18.9941 115.684 18.623C114.954 18.2396 114.119 18.0479 113.179 18.0479C112.239 18.0479 111.404 18.2396 110.674 18.623C109.956 18.9941 109.344 19.5508 108.837 20.293C108.342 21.0352 107.965 21.9505 107.705 23.0391C107.445 24.1276 107.315 25.3893 107.315 26.8242V28.1416C107.315 29.5641 107.445 30.8258 107.705 31.9268C107.965 33.0153 108.348 33.9368 108.855 34.6914C109.363 35.4336 109.981 35.9964 110.711 36.3799C111.441 36.7633 112.276 36.9551 113.216 36.9551C114.156 36.9551 114.991 36.7633 115.721 36.3799C116.451 35.9964 117.063 35.4336 117.558 34.6914C118.052 33.9368 118.43 33.0153 118.689 31.9268C118.949 30.8258 119.079 29.5641 119.079 28.1416Z" fill="#416D50"/>
<path d="M152.236 33.9307C152.236 33.4482 152.162 33.0153 152.014 32.6318C151.878 32.236 151.618 31.8773 151.234 31.5557C150.851 31.2217 150.313 30.8939 149.62 30.5723C148.927 30.2507 148.031 29.9167 146.93 29.5703C145.705 29.1745 144.542 28.7292 143.441 28.2344C142.353 27.7396 141.388 27.1644 140.547 26.5088C139.718 25.8408 139.062 25.0677 138.58 24.1895C138.11 23.3112 137.875 22.2907 137.875 21.1279C137.875 20.0023 138.122 18.9818 138.617 18.0664C139.112 17.1387 139.805 16.347 140.695 15.6914C141.586 15.0234 142.637 14.5101 143.85 14.1514C145.074 13.7926 146.416 13.6133 147.876 13.6133C149.868 13.6133 151.605 13.972 153.09 14.6895C154.574 15.4069 155.725 16.3903 156.541 17.6396C157.37 18.889 157.784 20.3177 157.784 21.9258H152.255C152.255 21.1341 152.088 20.4414 151.754 19.8477C151.432 19.2415 150.938 18.7653 150.27 18.4189C149.614 18.0726 148.785 17.8994 147.783 17.8994C146.818 17.8994 146.014 18.0479 145.371 18.3447C144.728 18.6292 144.245 19.0189 143.924 19.5137C143.602 19.9961 143.441 20.5404 143.441 21.1465C143.441 21.6042 143.553 22.0186 143.775 22.3896C144.01 22.7607 144.357 23.1071 144.814 23.4287C145.272 23.7503 145.835 24.0534 146.503 24.3379C147.171 24.6224 147.944 24.9007 148.822 25.1729C150.294 25.6182 151.587 26.1191 152.7 26.6758C153.826 27.2324 154.766 27.8571 155.521 28.5498C156.275 29.2425 156.844 30.028 157.228 30.9062C157.611 31.7845 157.803 32.7803 157.803 33.8936C157.803 35.0687 157.574 36.1201 157.116 37.0479C156.659 37.9756 155.997 38.7611 155.131 39.4043C154.265 40.0475 153.232 40.5361 152.032 40.8701C150.832 41.2041 149.49 41.3711 148.006 41.3711C146.67 41.3711 145.353 41.1979 144.054 40.8516C142.755 40.4928 141.574 39.9548 140.51 39.2373C139.458 38.5199 138.617 37.6045 137.986 36.4912C137.355 35.3779 137.04 34.0605 137.04 32.5391H142.625C142.625 33.3802 142.755 34.0915 143.015 34.6729C143.274 35.2542 143.639 35.7243 144.109 36.083C144.592 36.4417 145.161 36.7015 145.816 36.8623C146.484 37.0231 147.214 37.1035 148.006 37.1035C148.971 37.1035 149.762 36.9674 150.381 36.6953C151.012 36.4232 151.476 36.0459 151.772 35.5635C152.082 35.0811 152.236 34.5368 152.236 33.9307ZM179.604 24.9873V29.3291H165.503V24.9873H179.604ZM167.154 13.9844V41H161.588V13.9844H167.154ZM183.575 13.9844V41H178.027V13.9844H183.575ZM210.609 26.8613V28.1416C210.609 30.195 210.331 32.0381 209.774 33.6709C209.218 35.3037 208.432 36.6953 207.418 37.8457C206.404 38.9837 205.191 39.8558 203.781 40.4619C202.383 41.068 200.831 41.3711 199.124 41.3711C197.429 41.3711 195.877 41.068 194.467 40.4619C193.069 39.8558 191.857 38.9837 190.83 37.8457C189.803 36.6953 189.006 35.3037 188.437 33.6709C187.88 32.0381 187.602 30.195 187.602 28.1416V26.8613C187.602 24.7956 187.88 22.9525 188.437 21.332C188.993 19.6992 189.779 18.3076 190.793 17.1572C191.82 16.0068 193.032 15.1286 194.43 14.5225C195.84 13.9163 197.392 13.6133 199.087 13.6133C200.794 13.6133 202.346 13.9163 203.744 14.5225C205.154 15.1286 206.367 16.0068 207.381 17.1572C208.408 18.3076 209.199 19.6992 209.756 21.332C210.325 22.9525 210.609 24.7956 210.609 26.8613ZM204.987 28.1416V26.8242C204.987 25.3893 204.857 24.1276 204.598 23.0391C204.338 21.9505 203.954 21.0352 203.447 20.293C202.94 19.5508 202.322 18.9941 201.592 18.623C200.862 18.2396 200.027 18.0479 199.087 18.0479C198.147 18.0479 197.312 18.2396 196.582 18.623C195.865 18.9941 195.252 19.5508 194.745 20.293C194.25 21.0352 193.873 21.9505 193.613 23.0391C193.354 24.1276 193.224 25.3893 193.224 26.8242V28.1416C193.224 29.5641 193.354 30.8258 193.613 31.9268C193.873 33.0153 194.257 33.9368 194.764 34.6914C195.271 35.4336 195.889 35.9964 196.619 36.3799C197.349 36.7633 198.184 36.9551 199.124 36.9551C200.064 36.9551 200.899 36.7633 201.629 36.3799C202.359 35.9964 202.971 35.4336 203.466 34.6914C203.961 33.9368 204.338 33.0153 204.598 31.9268C204.857 30.8258 204.987 29.5641 204.987 28.1416ZM225.138 31.3701H218.254V27.0283H225.138C226.201 27.0283 227.067 26.8551 227.735 26.5088C228.403 26.1501 228.892 25.6553 229.201 25.0244C229.51 24.3936 229.665 23.6823 229.665 22.8906C229.665 22.0866 229.51 21.3382 229.201 20.6455C228.892 19.9528 228.403 19.3962 227.735 18.9756C227.067 18.555 226.201 18.3447 225.138 18.3447H220.184V41H214.617V13.9844H225.138C227.253 13.9844 229.065 14.3678 230.574 15.1348C232.096 15.8893 233.258 16.9346 234.062 18.2705C234.867 19.6064 235.269 21.1341 235.269 22.8535C235.269 24.5977 234.867 26.1068 234.062 27.3809C233.258 28.6549 232.096 29.6383 230.574 30.3311C229.065 31.0238 227.253 31.3701 225.138 31.3701Z" fill="white" fill-opacity="0.97"/>
<path d="M32.4287 24.9873H33.4287V23.9873H32.4287V24.9873ZM32.4287 29.3291V30.3291H33.4287V29.3291H32.4287ZM18.3271 29.3291H17.3271V30.3291H18.3271V29.3291ZM18.3271 24.9873V23.9873H17.3271V24.9873H18.3271ZM19.9785 13.9844H20.9785V12.9844H19.9785V13.9844ZM19.9785 41V42H20.9785V41H19.9785ZM14.4121 41H13.4121V42H14.4121V41ZM14.4121 13.9844V12.9844H13.4121V13.9844H14.4121ZM36.3994 13.9844H37.3994V12.9844H36.3994V13.9844ZM36.3994 41V42H37.3994V41H36.3994ZM30.8516 41H29.8516V42H30.8516V41ZM30.8516 13.9844V12.9844H29.8516V13.9844H30.8516ZM31.4287 24.9873V29.3291H33.4287V24.9873H31.4287ZM32.4287 28.3291H18.3271V30.3291H32.4287V28.3291ZM19.3271 29.3291V24.9873H17.3271V29.3291H19.3271ZM18.3271 25.9873H32.4287V23.9873H18.3271V25.9873ZM18.9785 13.9844V41H20.9785V13.9844H18.9785ZM19.9785 40H14.4121V42H19.9785V40ZM15.4121 41V13.9844H13.4121V41H15.4121ZM14.4121 14.9844H19.9785V12.9844H14.4121V14.9844ZM35.3994 13.9844V41H37.3994V13.9844H35.3994ZM36.3994 40H30.8516V42H36.3994V40ZM31.8516 41V13.9844H29.8516V41H31.8516ZM30.8516 14.9844H36.3994V12.9844H30.8516V14.9844ZM59.3701 36.6582H60.3701V35.6582H59.3701V36.6582ZM59.3701 41V42H60.3701V41H59.3701ZM44.9902 41H43.9902V42H44.9902V41ZM44.9902 36.6582V35.6582H43.9902V36.6582H44.9902ZM46.8086 13.9844H47.8086V12.9844H46.8086V13.9844ZM46.8086 41V42H47.8086V41H46.8086ZM41.2422 41H40.2422V42H41.2422V41ZM41.2422 13.9844V12.9844H40.2422V13.9844H41.2422ZM57.4961 24.9873H58.4961V23.9873H57.4961V24.9873ZM57.4961 29.2178V30.2178H58.4961V29.2178H57.4961ZM44.9902 29.2178H43.9902V30.2178H44.9902V29.2178ZM44.9902 24.9873V23.9873H43.9902V24.9873H44.9902ZM59.3516 13.9844H60.3516V12.9844H59.3516V13.9844ZM59.3516 18.3447V19.3447H60.3516V18.3447H59.3516ZM44.9902 18.3447H43.9902V19.3447H44.9902V18.3447ZM44.9902 13.9844V12.9844H43.9902V13.9844H44.9902ZM58.3701 36.6582V41H60.3701V36.6582H58.3701ZM59.3701 40H44.9902V42H59.3701V40ZM45.9902 41V36.6582H43.9902V41H45.9902ZM44.9902 37.6582H59.3701V35.6582H44.9902V37.6582ZM45.8086 13.9844V41H47.8086V13.9844H45.8086ZM46.8086 40H41.2422V42H46.8086V40ZM42.2422 41V13.9844H40.2422V41H42.2422ZM41.2422 14.9844H46.8086V12.9844H41.2422V14.9844ZM56.4961 24.9873V29.2178H58.4961V24.9873H56.4961ZM57.4961 28.2178H44.9902V30.2178H57.4961V28.2178ZM45.9902 29.2178V24.9873H43.9902V29.2178H45.9902ZM44.9902 25.9873H57.4961V23.9873H44.9902V25.9873ZM58.3516 13.9844V18.3447H60.3516V13.9844H58.3516ZM59.3516 17.3447H44.9902V19.3447H59.3516V17.3447ZM45.9902 18.3447V13.9844H43.9902V18.3447H45.9902ZM44.9902 14.9844H59.3516V12.9844H44.9902V14.9844ZM79.9844 36.6582H80.9844V35.6582H79.9844V36.6582ZM79.9844 41V42H80.9844V41H79.9844ZM66.3838 41H65.3838V42H66.3838V41ZM66.3838 36.6582V35.6582H65.3838V36.6582H66.3838ZM68.1836 13.9844H69.1836V12.9844H68.1836V13.9844ZM68.1836 41V42H69.1836V41H68.1836ZM62.6172 41H61.6172V42H62.6172V41ZM62.6172 13.9844V12.9844H61.6172V13.9844H62.6172ZM78.9844 36.6582V41H80.9844V36.6582H78.9844ZM79.9844 40H66.3838V42H79.9844V40ZM67.3838 41V36.6582H65.3838V41H67.3838ZM66.3838 37.6582H79.9844V35.6582H66.3838V37.6582ZM67.1836 13.9844V41H69.1836V13.9844H67.1836ZM68.1836 40H62.6172V42H68.1836V40ZM63.6172 41V13.9844H61.6172V41H63.6172ZM62.6172 14.9844H68.1836V12.9844H62.6172V14.9844ZM100.543 36.6582H101.543V35.6582H100.543V36.6582ZM100.543 41V42H101.543V41H100.543ZM86.9424 41H85.9424V42H86.9424V41ZM86.9424 36.6582V35.6582H85.9424V36.6582H86.9424ZM88.7422 13.9844H89.7422V12.9844H88.7422V13.9844ZM88.7422 41V42H89.7422V41H88.7422ZM83.1758 41H82.1758V42H83.1758V41ZM83.1758 13.9844V12.9844H82.1758V13.9844H83.1758ZM99.543 36.6582V41H101.543V36.6582H99.543ZM100.543 40H86.9424V42H100.543V40ZM87.9424 41V36.6582H85.9424V41H87.9424ZM86.9424 37.6582H100.543V35.6582H86.9424V37.6582ZM87.7422 13.9844V41H89.7422V13.9844H87.7422ZM88.7422 40H83.1758V42H88.7422V40ZM84.1758 41V13.9844H82.1758V41H84.1758ZM83.1758 14.9844H88.7422V12.9844H83.1758V14.9844ZM121.51 37.8457L122.256 38.5111L122.26 38.5071L121.51 37.8457ZM117.873 40.4619L117.478 39.5432L117.475 39.5445L117.873 40.4619ZM108.559 40.4619L108.161 41.3794L108.164 41.3806L108.559 40.4619ZM104.922 37.8457L104.176 38.5116L104.179 38.5156L104.922 37.8457ZM102.528 33.6709L101.582 33.9936L101.584 34L102.528 33.6709ZM102.528 21.332L103.474 21.6569L103.475 21.6547L102.528 21.332ZM104.885 17.1572L104.139 16.4914L104.135 16.4959L104.885 17.1572ZM108.521 14.5225L108.127 13.6037L108.124 13.605L108.521 14.5225ZM117.836 14.5225L117.438 15.4399L117.441 15.4412L117.836 14.5225ZM121.473 17.1572L120.723 17.8186L120.727 17.8231L121.473 17.1572ZM123.848 21.332L122.901 21.6547L122.904 21.6633L123.848 21.332ZM118.689 23.0391L117.717 23.2712L118.689 23.0391ZM115.684 18.623L115.218 19.5084L115.23 19.5144L115.684 18.623ZM110.674 18.623L111.133 19.5113L111.139 19.5083L110.674 18.623ZM108.837 20.293L108.011 19.7287L108.005 19.7383L108.837 20.293ZM107.705 31.9268L106.732 32.1564L106.732 32.1589L107.705 31.9268ZM108.855 34.6914L108.025 35.2493L108.03 35.2556L108.855 34.6914ZM110.711 36.3799L110.246 37.2651L110.711 36.3799ZM117.558 34.6914L118.39 35.2461L118.394 35.2398L117.558 34.6914ZM118.689 31.9268L119.662 32.1589L119.663 32.1564L118.689 31.9268ZM123.701 26.8613V28.1416H125.701V26.8613H123.701ZM123.701 28.1416C123.701 30.1055 123.435 31.8369 122.92 33.3482L124.813 33.9936C125.411 32.2392 125.701 30.2844 125.701 28.1416H123.701ZM122.92 33.3482C122.4 34.8718 121.677 36.1444 120.76 37.1843L122.26 38.5071C123.372 37.2462 124.219 35.7356 124.813 33.9936L122.92 33.3482ZM120.763 37.1803C119.847 38.2084 118.755 38.9944 117.478 39.5432L118.268 41.3806C119.811 40.7172 121.144 39.759 122.256 38.5111L120.763 37.1803ZM117.475 39.5445C116.217 40.0899 114.802 40.3711 113.216 40.3711V42.3711C115.043 42.3711 116.733 42.0461 118.271 41.3794L117.475 39.5445ZM113.216 40.3711C111.643 40.3711 110.226 40.0904 108.953 39.5432L108.164 41.3806C109.711 42.0457 111.4 42.3711 113.216 42.3711V40.3711ZM108.956 39.5445C107.691 38.9956 106.596 38.2083 105.664 37.1758L104.179 38.5156C105.301 39.7592 106.631 40.716 108.161 41.3794L108.956 39.5445ZM105.668 37.1798C104.739 36.1388 104.004 34.8655 103.473 33.3418L101.584 34C102.191 35.7419 103.051 37.2518 104.176 38.5116L105.668 37.1798ZM103.475 33.3482C102.96 31.8369 102.693 30.1055 102.693 28.1416H100.693C100.693 30.2844 100.984 32.2392 101.582 33.9936L103.475 33.3482ZM102.693 28.1416V26.8613H100.693V28.1416H102.693ZM102.693 26.8613C102.693 24.8841 102.96 23.1538 103.474 21.6569L101.583 21.0072C100.983 22.7511 100.693 24.7071 100.693 26.8613H102.693ZM103.475 21.6547C103.994 20.1311 104.718 18.8585 105.635 17.8186L104.135 16.4959C103.023 17.7567 102.176 19.2673 101.582 21.0094L103.475 21.6547ZM105.631 17.8231C106.562 16.7795 107.656 15.9877 108.919 15.4399L108.124 13.605C106.591 14.2695 105.261 15.2342 104.139 16.4914L105.631 17.8231ZM108.916 15.4412C110.189 14.894 111.606 14.6133 113.179 14.6133V12.6133C111.362 12.6133 109.674 12.9387 108.127 13.6037L108.916 15.4412ZM113.179 14.6133C114.765 14.6133 116.18 14.8944 117.438 15.4399L118.234 13.605C116.696 12.9382 115.006 12.6133 113.179 12.6133V14.6133ZM117.441 15.4412C118.715 15.9889 119.806 16.7793 120.723 17.8186L122.223 16.4959C121.11 15.2344 119.777 14.2683 118.231 13.6037L117.441 15.4412ZM120.727 17.8231C121.654 18.8624 122.383 20.1335 122.901 21.6547L124.794 21.0094C124.199 19.2649 123.345 17.7528 122.219 16.4914L120.727 17.8231ZM122.904 21.6633C123.429 23.1582 123.701 24.8862 123.701 26.8613H125.701C125.701 24.7049 125.404 22.7467 124.791 21.0007L122.904 21.6633ZM120.079 28.1416V26.8242H118.079V28.1416H120.079ZM120.079 26.8242C120.079 25.3319 119.944 23.9893 119.662 22.8069L117.717 23.2712C117.954 24.2659 118.079 25.4468 118.079 26.8242H120.079ZM119.662 22.8069C119.381 21.6277 118.955 20.5931 118.365 19.7288L116.713 20.8572C117.137 21.4772 117.479 22.2734 117.717 23.2712L119.662 22.8069ZM118.365 19.7288C117.772 18.8619 117.031 18.1861 116.137 17.7317L115.23 19.5144C115.796 19.8022 116.291 20.2397 116.713 20.8572L118.365 19.7288ZM116.149 17.7378C115.256 17.269 114.258 17.0479 113.179 17.0479V19.0479C113.98 19.0479 114.651 19.2102 115.218 19.5083L116.149 17.7378ZM113.179 17.0479C112.099 17.0479 111.101 17.269 110.209 17.7378L111.139 19.5083C111.706 19.2102 112.378 19.0479 113.179 19.0479V17.0479ZM110.214 17.7348C109.334 18.1902 108.601 18.8656 108.011 19.7288L109.663 20.8572C110.087 20.2359 110.579 19.798 111.133 19.5113L110.214 17.7348ZM108.005 19.7383C107.43 20.6003 107.013 21.6315 106.732 22.8069L108.678 23.2712C108.917 22.2695 109.254 21.47 109.669 20.8477L108.005 19.7383ZM106.732 22.8069C106.45 23.9893 106.315 25.3319 106.315 26.8242H108.315C108.315 25.4468 108.44 24.2659 108.678 23.2712L106.732 22.8069ZM106.315 26.8242V28.1416H108.315V26.8242H106.315ZM106.315 28.1416C106.315 29.6226 106.45 30.9639 106.732 32.1564L108.678 31.6971C108.44 30.6878 108.315 29.5056 108.315 28.1416H106.315ZM106.732 32.1589C107.014 33.3377 107.438 34.3756 108.026 35.2492L109.685 34.1336C109.258 33.4981 108.916 32.6929 108.678 31.6946L106.732 32.1589ZM108.03 35.2556C108.621 36.1202 109.359 36.799 110.246 37.2651L111.176 35.4946C110.604 35.1939 110.105 34.747 109.681 34.1272L108.03 35.2556ZM110.246 37.2651C111.138 37.734 112.137 37.9551 113.216 37.9551V35.9551C112.415 35.9551 111.743 35.7927 111.176 35.4946L110.246 37.2651ZM113.216 37.9551C114.295 37.9551 115.294 37.734 116.186 37.2651L115.256 35.4946C114.688 35.7927 114.017 35.9551 113.216 35.9551V37.9551ZM116.186 37.2651C117.076 36.7976 117.81 36.1157 118.39 35.2461L116.726 34.1367C116.316 34.7515 115.825 35.1952 115.256 35.4946L116.186 37.2651ZM118.394 35.2398C118.965 34.3684 119.382 33.3339 119.662 32.1589L117.717 31.6946C117.478 32.6967 117.14 33.5053 116.721 34.143L118.394 35.2398ZM119.663 32.1564C119.944 30.9639 120.079 29.6226 120.079 28.1416H118.079C118.079 29.5056 117.954 30.6878 117.716 31.6971L119.663 32.1564ZM152.014 32.6318L151.068 32.9569L151.074 32.975L151.081 32.9928L152.014 32.6318ZM151.234 31.5557L150.578 32.3097L150.585 32.3159L150.592 32.3219L151.234 31.5557ZM146.93 29.5703L146.622 30.5219L146.63 30.5242L146.93 29.5703ZM143.441 28.2344L143.028 29.1448L143.031 29.1465L143.441 28.2344ZM140.547 26.5088L139.919 27.2874L139.926 27.2925L139.932 27.2975L140.547 26.5088ZM138.58 24.1895L137.698 24.6614L137.704 24.6709L138.58 24.1895ZM138.617 18.0664L139.497 18.5419L139.5 18.537L138.617 18.0664ZM140.695 15.6914L141.288 16.4968L141.295 16.4914L140.695 15.6914ZM143.85 14.1514L143.568 13.1917L143.566 13.1925L143.85 14.1514ZM156.541 17.6396L155.704 18.1867L155.708 18.1924L156.541 17.6396ZM157.784 21.9258V22.9258H158.784V21.9258H157.784ZM152.255 21.9258H151.255V22.9258H152.255V21.9258ZM151.754 19.8477L150.871 20.3164L150.876 20.3272L150.882 20.3379L151.754 19.8477ZM150.27 18.4189L149.802 19.3032L149.809 19.3067L150.27 18.4189ZM145.371 18.3447L145.776 19.2593L145.783 19.256L145.79 19.2527L145.371 18.3447ZM143.924 19.5137L144.756 20.0684L144.762 20.0587L143.924 19.5137ZM143.775 22.3896L142.918 22.9041L142.924 22.9145L142.931 22.9247L143.775 22.3896ZM144.814 23.4287L145.389 22.6105L144.814 23.4287ZM148.822 25.1729L148.526 26.1281L148.533 26.13L148.822 25.1729ZM152.7 26.6758L152.253 27.5702L152.257 27.5722L152.7 26.6758ZM157.228 30.9062L156.311 31.3064L157.228 30.9062ZM155.131 39.4043L154.535 38.6016L155.131 39.4043ZM144.054 40.8516L143.787 41.8155L143.796 41.8178L144.054 40.8516ZM140.51 39.2373L139.946 40.0633L139.951 40.0664L140.51 39.2373ZM137.04 32.5391V31.5391H136.04V32.5391H137.04ZM142.625 32.5391H143.625V31.5391H142.625V32.5391ZM144.109 36.083L143.503 36.878L143.513 36.8855L144.109 36.083ZM145.816 36.8623L145.578 37.8335L145.582 37.8345L145.816 36.8623ZM150.381 36.6953L149.985 35.7771L149.978 35.78L150.381 36.6953ZM151.772 35.5635L150.931 35.0238L150.926 35.0315L150.921 35.0394L151.772 35.5635ZM153.236 33.9307C153.236 33.3458 153.146 32.7875 152.946 32.2708L151.081 32.9928C151.178 33.2431 151.236 33.5507 151.236 33.9307H153.236ZM152.959 32.3068C152.754 31.7081 152.372 31.2049 151.877 30.7895L150.592 32.3219C150.863 32.5497 151.002 32.7639 151.068 32.9569L152.959 32.3068ZM151.891 30.8016C151.411 30.3831 150.781 30.0088 150.041 29.6653L149.199 31.4793C149.845 31.779 150.291 32.0602 150.578 32.3097L151.891 30.8016ZM150.041 29.6653C149.295 29.3187 148.353 28.9699 147.23 28.6164L146.63 30.5242C147.708 30.8634 148.56 31.1826 149.199 31.4793L150.041 29.6653ZM147.237 28.6188C146.045 28.2335 144.917 27.8011 143.851 27.3223L143.031 29.1465C144.168 29.6572 145.365 30.1155 146.622 30.5218L147.237 28.6188ZM143.855 27.324C142.83 26.8579 141.934 26.3219 141.162 25.7201L139.932 27.2975C140.842 28.0068 141.876 28.6213 143.028 29.1447L143.855 27.324ZM141.174 25.7302C140.441 25.1389 139.872 24.4649 139.457 23.708L137.704 24.6709C138.253 25.6705 138.995 26.5427 139.919 27.2874L141.174 25.7302ZM139.462 23.7176C139.081 23.007 138.875 22.1537 138.875 21.1279H136.875C136.875 22.4277 137.139 23.6154 137.698 24.6613L139.462 23.7176ZM138.875 21.1279C138.875 20.1544 139.087 19.2994 139.497 18.5419L137.737 17.5909C137.157 18.6641 136.875 19.8502 136.875 21.1279H138.875ZM139.5 18.537C139.92 17.7479 140.511 17.0685 141.288 16.4967L140.102 14.8861C139.098 15.6255 138.304 16.5295 137.735 17.5958L139.5 18.537ZM141.295 16.4914C142.079 15.9038 143.02 15.4398 144.133 15.1103L143.566 13.1925C142.255 13.5804 141.093 14.1431 140.095 14.8914L141.295 16.4914ZM144.131 15.111C145.252 14.7826 146.498 14.6133 147.876 14.6133V12.6133C146.335 12.6133 144.896 12.8027 143.568 13.1917L144.131 15.111ZM147.876 14.6133C149.748 14.6133 151.331 14.9502 152.655 15.5898L153.525 13.7891C151.88 12.9938 149.987 12.6133 147.876 12.6133V14.6133ZM152.655 15.5898C153.993 16.2367 154.997 17.105 155.704 18.1867L157.378 17.0926C156.452 15.6756 155.155 14.5771 153.525 13.7891L152.655 15.5898ZM155.708 18.1924C156.42 19.2659 156.784 20.4994 156.784 21.9258H158.784C158.784 20.136 158.32 18.5121 157.374 17.0869L155.708 18.1924ZM157.784 20.9258H152.255V22.9258H157.784V20.9258ZM153.255 21.9258C153.255 20.9905 153.056 20.1235 152.625 19.3574L150.882 20.3379C151.119 20.7593 151.255 21.2778 151.255 21.9258H153.255ZM152.637 19.3789C152.211 18.5761 151.56 17.9616 150.73 17.5312L149.809 19.3067C150.315 19.569 150.653 19.907 150.871 20.3164L152.637 19.3789ZM150.737 17.5348C149.895 17.0904 148.893 16.8994 147.783 16.8994V18.8994C148.677 18.8994 149.332 19.0548 149.802 19.3031L150.737 17.5348ZM147.783 16.8994C146.723 16.8994 145.765 17.0615 144.952 17.4368L145.79 19.2527C146.264 19.0342 146.914 18.8994 147.783 18.8994V16.8994ZM144.967 17.4302C144.18 17.7779 143.532 18.2822 143.085 18.9687L144.762 20.0587C144.959 19.7555 145.275 19.4806 145.776 19.2593L144.967 17.4302ZM143.092 18.959C142.656 19.6134 142.441 20.3524 142.441 21.1465H144.441C144.441 20.7283 144.549 20.3788 144.756 20.0684L143.092 18.959ZM142.441 21.1465C142.441 21.7745 142.597 22.3686 142.918 22.9041L144.633 21.8752C144.509 21.6685 144.441 21.4338 144.441 21.1465H142.441ZM142.931 22.9247C143.252 23.4329 143.702 23.8695 144.24 24.2469L145.389 22.6105C145.011 22.3447 144.768 22.0886 144.62 21.8546L142.931 22.9247ZM144.24 24.2469C144.768 24.6186 145.397 24.9536 146.111 25.2579L146.895 23.4179C146.273 23.1532 145.776 22.882 145.389 22.6105L144.24 24.2469ZM146.111 25.2579C146.817 25.5587 147.624 25.8483 148.526 26.128L149.118 24.2177C148.264 23.9531 147.524 23.6861 146.895 23.4179L146.111 25.2579ZM148.533 26.13C149.963 26.5626 151.201 27.044 152.253 27.5702L153.147 25.7814C151.973 25.1943 150.626 24.6738 149.112 24.2157L148.533 26.13ZM152.257 27.5722C153.316 28.0959 154.173 28.6703 154.844 29.2865L156.197 27.8132C155.359 27.0439 154.336 26.3689 153.143 25.7794L152.257 27.5722ZM154.844 29.2865C155.503 29.8915 155.987 30.5644 156.311 31.3064L158.144 30.5061C157.701 29.4915 157.047 28.5935 156.197 27.8132L154.844 29.2865ZM156.311 31.3064C156.631 32.0397 156.803 32.8959 156.803 33.8936H158.803C158.803 32.6646 158.591 31.5293 158.144 30.5061L156.311 31.3064ZM156.803 33.8936C156.803 34.9362 156.6 35.8329 156.219 36.6054L158.013 37.4903C158.547 36.4073 158.803 35.2012 158.803 33.8936H156.803ZM156.219 36.6054C155.835 37.3848 155.279 38.0487 154.535 38.6016L155.727 40.207C156.715 39.4734 157.482 38.5664 158.013 37.4903L156.219 36.6054ZM154.535 38.6016C153.781 39.1611 152.864 39.6007 151.764 39.9067L152.3 41.8335C153.601 41.4716 154.749 40.9339 155.727 40.207L154.535 38.6016ZM151.764 39.9067C150.666 40.2123 149.416 40.3711 148.006 40.3711V42.3711C149.564 42.3711 150.998 42.1959 152.3 41.8335L151.764 39.9067ZM148.006 40.3711C146.757 40.3711 145.527 40.2094 144.311 39.8853L143.796 41.8178C145.178 42.1864 146.582 42.3711 148.006 42.3711V40.3711ZM144.32 39.8876C143.12 39.5563 142.039 39.0622 141.069 38.4082L139.951 40.0664C141.109 40.8473 142.39 41.4294 143.787 41.8155L144.32 39.8876ZM141.073 38.4113C140.149 37.7804 139.412 36.9793 138.856 35.9982L137.116 36.9842C137.822 38.2297 138.768 39.2593 139.946 40.0633L141.073 38.4113ZM138.856 35.9982C138.325 35.0614 138.04 33.9205 138.04 32.5391H136.04C136.04 34.2006 136.385 35.6945 137.116 36.9842L138.856 35.9982ZM137.04 33.5391H142.625V31.5391H137.04V33.5391ZM141.625 32.5391C141.625 33.4778 141.769 34.3369 142.102 35.0808L143.928 34.2649C143.74 33.846 143.625 33.2826 143.625 32.5391H141.625ZM142.102 35.0808C142.424 35.8027 142.89 36.4101 143.503 36.878L144.716 35.2881C144.389 35.0384 144.125 34.7058 143.928 34.2649L142.102 35.0808ZM143.513 36.8855C144.115 37.333 144.809 37.6448 145.578 37.8335L146.055 35.8911C145.513 35.7582 145.069 35.5505 144.706 35.2805L143.513 36.8855ZM145.582 37.8345C146.338 38.0163 147.147 38.1035 148.006 38.1035V36.1035C147.281 36.1035 146.631 36.0299 146.05 35.8901L145.582 37.8345ZM148.006 38.1035C149.054 38.1035 149.996 37.9571 150.784 37.6106L149.978 35.78C149.529 35.9778 148.887 36.1035 148.006 36.1035V38.1035ZM150.777 37.6135C151.556 37.2776 152.198 36.7795 152.624 36.0876L150.921 35.0394C150.753 35.3123 150.468 35.5688 149.985 35.7771L150.777 37.6135ZM152.614 36.1031C153.033 35.4502 153.236 34.7165 153.236 33.9307H151.236C151.236 34.3571 151.131 34.7119 150.931 35.0238L152.614 36.1031ZM179.604 24.9873H180.604V23.9873H179.604V24.9873ZM179.604 29.3291V30.3291H180.604V29.3291H179.604ZM165.503 29.3291H164.503V30.3291H165.503V29.3291ZM165.503 24.9873V23.9873H164.503V24.9873H165.503ZM167.154 13.9844H168.154V12.9844H167.154V13.9844ZM167.154 41V42H168.154V41H167.154ZM161.588 41H160.588V42H161.588V41ZM161.588 13.9844V12.9844H160.588V13.9844H161.588ZM183.575 13.9844H184.575V12.9844H183.575V13.9844ZM183.575 41V42H184.575V41H183.575ZM178.027 41H177.027V42H178.027V41ZM178.027 13.9844V12.9844H177.027V13.9844H178.027ZM178.604 24.9873V29.3291H180.604V24.9873H178.604ZM179.604 28.3291H165.503V30.3291H179.604V28.3291ZM166.503 29.3291V24.9873H164.503V29.3291H166.503ZM165.503 25.9873H179.604V23.9873H165.503V25.9873ZM166.154 13.9844V41H168.154V13.9844H166.154ZM167.154 40H161.588V42H167.154V40ZM162.588 41V13.9844H160.588V41H162.588ZM161.588 14.9844H167.154V12.9844H161.588V14.9844ZM182.575 13.9844V41H184.575V13.9844H182.575ZM183.575 40H178.027V42H183.575V40ZM179.027 41V13.9844H177.027V41H179.027ZM178.027 14.9844H183.575V12.9844H178.027V14.9844ZM207.418 37.8457L208.164 38.5111L208.168 38.5071L207.418 37.8457ZM203.781 40.4619L203.386 39.5432L203.383 39.5445L203.781 40.4619ZM194.467 40.4619L194.069 41.3794L194.072 41.3806L194.467 40.4619ZM190.83 37.8457L190.084 38.5116L190.088 38.5156L190.83 37.8457ZM188.437 33.6709L187.49 33.9936L187.492 34L188.437 33.6709ZM188.437 21.332L189.382 21.6569L189.383 21.6547L188.437 21.332ZM190.793 17.1572L190.047 16.4914L190.043 16.4959L190.793 17.1572ZM194.43 14.5225L194.035 13.6037L194.032 13.605L194.43 14.5225ZM203.744 14.5225L203.346 15.4399L203.349 15.4412L203.744 14.5225ZM207.381 17.1572L206.631 17.8186L206.635 17.8231L207.381 17.1572ZM209.756 21.332L208.809 21.6547L208.812 21.6633L209.756 21.332ZM204.598 23.0391L203.625 23.2712L204.598 23.0391ZM201.592 18.623L201.127 19.5084L201.139 19.5144L201.592 18.623ZM196.582 18.623L197.041 19.5113L197.047 19.5083L196.582 18.623ZM194.745 20.293L193.919 19.7287L193.913 19.7383L194.745 20.293ZM193.613 31.9268L192.64 32.1564L192.641 32.1589L193.613 31.9268ZM194.764 34.6914L193.934 35.2493L193.938 35.2556L194.764 34.6914ZM196.619 36.3799L196.154 37.2651L196.619 36.3799ZM203.466 34.6914L204.298 35.2461L204.302 35.2398L203.466 34.6914ZM204.598 31.9268L205.57 32.1589L205.571 32.1564L204.598 31.9268ZM209.609 26.8613V28.1416H211.609V26.8613H209.609ZM209.609 28.1416C209.609 30.1055 209.343 31.8369 208.828 33.3482L210.721 33.9936C211.319 32.2392 211.609 30.2844 211.609 28.1416H209.609ZM208.828 33.3482C208.308 34.8718 207.585 36.1444 206.668 37.1843L208.168 38.5071C209.28 37.2462 210.127 35.7356 210.721 33.9936L208.828 33.3482ZM206.671 37.1803C205.755 38.2084 204.663 38.9944 203.386 39.5432L204.176 41.3806C205.72 40.7172 207.052 39.759 208.164 38.5111L206.671 37.1803ZM203.383 39.5445C202.126 40.0899 200.711 40.3711 199.124 40.3711V42.3711C200.951 42.3711 202.641 42.0461 204.179 41.3794L203.383 39.5445ZM199.124 40.3711C197.551 40.3711 196.135 40.0904 194.862 39.5432L194.072 41.3806C195.619 42.0457 197.308 42.3711 199.124 42.3711V40.3711ZM194.865 39.5445C193.599 38.9956 192.504 38.2083 191.573 37.1758L190.088 38.5156C191.21 39.7592 192.539 40.716 194.069 41.3794L194.865 39.5445ZM191.576 37.1798C190.647 36.1388 189.912 34.8655 189.381 33.3418L187.492 34C188.099 35.7419 188.96 37.2518 190.084 38.5116L191.576 37.1798ZM189.383 33.3482C188.868 31.8369 188.602 30.1055 188.602 28.1416H186.602C186.602 30.2844 186.892 32.2392 187.49 33.9936L189.383 33.3482ZM188.602 28.1416V26.8613H186.602V28.1416H188.602ZM188.602 26.8613C188.602 24.8841 188.868 23.1538 189.382 21.6569L187.491 21.0072C186.892 22.7511 186.602 24.7071 186.602 26.8613H188.602ZM189.383 21.6547C189.902 20.1311 190.626 18.8585 191.543 17.8186L190.043 16.4959C188.931 17.7567 188.084 19.2673 187.49 21.0094L189.383 21.6547ZM191.539 17.8231C192.47 16.7795 193.564 15.9877 194.828 15.4399L194.032 13.605C192.499 14.2695 191.169 15.2342 190.047 16.4914L191.539 17.8231ZM194.825 15.4412C196.098 14.894 197.514 14.6133 199.087 14.6133V12.6133C197.271 12.6133 195.582 12.9387 194.035 13.6037L194.825 15.4412ZM199.087 14.6133C200.674 14.6133 202.088 14.8944 203.346 15.4399L204.142 13.605C202.604 12.9382 200.914 12.6133 199.087 12.6133V14.6133ZM203.349 15.4412C204.624 15.9889 205.714 16.7793 206.631 17.8186L208.131 16.4959C207.019 15.2344 205.685 14.2683 204.139 13.6037L203.349 15.4412ZM206.635 17.8231C207.562 18.8624 208.291 20.1335 208.809 21.6547L210.702 21.0094C210.108 19.2649 209.253 17.7528 208.127 16.4914L206.635 17.8231ZM208.812 21.6633C209.337 23.1582 209.609 24.8862 209.609 26.8613H211.609C211.609 24.7049 211.312 22.7467 210.699 21.0007L208.812 21.6633ZM205.987 28.1416V26.8242H203.987V28.1416H205.987ZM205.987 26.8242C205.987 25.3319 205.853 23.9893 205.57 22.8069L203.625 23.2712C203.862 24.2659 203.987 25.4468 203.987 26.8242H205.987ZM205.57 22.8069C205.289 21.6277 204.864 20.5931 204.273 19.7288L202.622 20.8572C203.045 21.4772 203.387 22.2734 203.625 23.2712L205.57 22.8069ZM204.273 19.7288C203.681 18.8619 202.939 18.1861 202.045 17.7317L201.139 19.5144C201.704 19.8022 202.2 20.2397 202.622 20.8572L204.273 19.7288ZM202.057 17.7378C201.165 17.269 200.166 17.0479 199.087 17.0479V19.0479C199.888 19.0479 200.559 19.2102 201.127 19.5083L202.057 17.7378ZM199.087 17.0479C198.008 17.0479 197.009 17.269 196.117 17.7378L197.047 19.5083C197.615 19.2102 198.286 19.0479 199.087 19.0479V17.0479ZM196.123 17.7348C195.242 18.1902 194.509 18.8656 193.919 19.7288L195.571 20.8572C195.995 20.2359 196.487 19.798 197.041 19.5113L196.123 17.7348ZM193.913 19.7383C193.338 20.6003 192.921 21.6315 192.641 22.8069L194.586 23.2712C194.825 22.2695 195.162 21.47 195.577 20.8477L193.913 19.7383ZM192.641 22.8069C192.358 23.9893 192.224 25.3319 192.224 26.8242H194.224C194.224 25.4468 194.349 24.2659 194.586 23.2712L192.641 22.8069ZM192.224 26.8242V28.1416H194.224V26.8242H192.224ZM192.224 28.1416C192.224 29.6226 192.359 30.9639 192.64 32.1564L194.587 31.6971C194.348 30.6878 194.224 29.5056 194.224 28.1416H192.224ZM192.641 32.1589C192.922 33.3377 193.346 34.3756 193.934 35.2492L195.594 34.1336C195.167 33.4981 194.824 32.6929 194.586 31.6946L192.641 32.1589ZM193.938 35.2556C194.529 36.1202 195.267 36.799 196.154 37.2651L197.084 35.4946C196.512 35.1939 196.013 34.747 195.589 34.1272L193.938 35.2556ZM196.154 37.2651C197.046 37.734 198.045 37.9551 199.124 37.9551V35.9551C198.323 35.9551 197.652 35.7927 197.084 35.4946L196.154 37.2651ZM199.124 37.9551C200.203 37.9551 201.202 37.734 202.094 37.2651L201.164 35.4946C200.596 35.7927 199.925 35.9551 199.124 35.9551V37.9551ZM202.094 37.2651C202.984 36.7976 203.718 36.1157 204.298 35.2461L202.634 34.1367C202.224 34.7515 201.734 35.1952 201.164 35.4946L202.094 37.2651ZM204.302 35.2398C204.873 34.3684 205.29 33.3339 205.57 32.1589L203.625 31.6946C203.386 32.6967 203.048 33.5053 202.63 34.143L204.302 35.2398ZM205.571 32.1564C205.852 30.9639 205.987 29.6226 205.987 28.1416H203.987C203.987 29.5056 203.863 30.6878 203.624 31.6971L205.571 32.1564ZM218.254 31.3701H217.254V32.3701H218.254V31.3701ZM218.254 27.0283V26.0283H217.254V27.0283H218.254ZM227.735 26.5088L228.196 27.3965L228.202 27.3932L228.208 27.3898L227.735 26.5088ZM220.184 18.3447V17.3447H219.184V18.3447H220.184ZM220.184 41V42H221.184V41H220.184ZM214.617 41H213.617V42H214.617V41ZM214.617 13.9844V12.9844H213.617V13.9844H214.617ZM230.574 15.1348L230.121 16.0263L230.13 16.0306L230.574 15.1348ZM230.574 30.3311L230.16 29.4209L230.157 29.4222L230.574 30.3311ZM225.138 30.3701H218.254V32.3701H225.138V30.3701ZM219.254 31.3701V27.0283H217.254V31.3701H219.254ZM218.254 28.0283H225.138V26.0283H218.254V28.0283ZM225.138 28.0283C226.299 28.0283 227.339 27.8408 228.196 27.3965L227.275 25.621C226.796 25.8695 226.104 26.0283 225.138 26.0283V28.0283ZM228.208 27.3898C229.045 26.9404 229.69 26.2983 230.099 25.4646L228.303 24.5843C228.093 25.0123 227.761 25.3597 227.262 25.6278L228.208 27.3898ZM230.099 25.4646C230.484 24.6802 230.665 23.8154 230.665 22.8906H228.665C228.665 23.5492 228.537 24.1069 228.303 24.5843L230.099 25.4646ZM230.665 22.8906C230.665 21.9547 230.484 21.0664 230.114 20.2379L228.288 21.0532C228.537 21.61 228.665 22.2185 228.665 22.8906H230.665ZM230.114 20.2379C229.721 19.357 229.096 18.6508 228.268 18.1294L227.203 19.8218C227.71 20.1415 228.063 20.5486 228.288 21.0532L230.114 20.2379ZM228.268 18.1294C227.394 17.5791 226.326 17.3447 225.138 17.3447V19.3447C226.077 19.3447 226.741 19.5309 227.203 19.8218L228.268 18.1294ZM225.138 17.3447H220.184V19.3447H225.138V17.3447ZM219.184 18.3447V41H221.184V18.3447H219.184ZM220.184 40H214.617V42H220.184V40ZM215.617 41V13.9844H213.617V41H215.617ZM214.617 14.9844H225.138V12.9844H214.617V14.9844ZM225.138 14.9844C227.134 14.9844 228.783 15.3462 230.121 16.0263L231.027 14.2433C229.347 13.3894 227.372 12.9844 225.138 12.9844V14.9844ZM230.13 16.0306C231.496 16.7083 232.509 17.6283 233.206 18.7862L234.919 17.7548C234.008 16.2409 232.695 15.0704 231.019 14.2389L230.13 16.0306ZM233.206 18.7862C233.907 19.9507 234.269 21.2966 234.269 22.8535H236.269C236.269 20.9716 235.826 19.2622 234.919 17.7548L233.206 18.7862ZM234.269 22.8535C234.269 24.4392 233.905 25.7567 233.217 26.8472L234.908 27.9145C235.828 26.4568 236.269 24.7562 236.269 22.8535H234.269ZM233.217 26.8472C232.528 27.9386 231.524 28.7998 230.16 29.4209L230.989 31.2412C232.667 30.4769 233.989 29.3713 234.908 27.9145L233.217 26.8472ZM230.157 29.4222C228.809 30.0408 227.147 30.3701 225.138 30.3701V32.3701C227.359 32.3701 229.321 32.0067 230.991 31.2399L230.157 29.4222Z" fill="black"/>
</g>
<defs>
<clipPath id="clip0_6_287">
<rect width="1280" height="2686" fill="white" transform="translate(-51 -34)"/>
</clipPath>
</defs>
</svg>
