<svg width="138" height="21" viewBox="0 0 138 21" fill="none" xmlns="http://www.w3.org/2000/svg">
<path d="M1.72458 15.4784C1.57462 14.5574 1.57462 14.455 2.02451 14.455C2.24946 14.455 2.4744 14.455 2.69935 14.2504C2.92429 14.0457 3.07426 13.534 3.44917 13.534C3.97404 13.534 4.04902 12.613 4.64888 12.613C5.09877 12.613 5.54866 12.613 5.99855 12.613C6.29848 12.613 6.44844 12.4083 6.67339 12.2036C6.89833 11.999 7.27324 12.1013 7.42321 11.692C7.8731 11.7943 8.02306 11.1803 8.39797 11.1803C8.84786 11.0779 9.07281 10.5663 9.59768 10.6686C9.97259 10.7709 10.3475 10.5663 10.7224 10.6686C11.2473 10.7709 11.4722 10.2592 11.9221 10.1569C12.372 10.1569 12.8219 10.1569 13.2718 10.1569C13.7217 10.1569 14.1716 10.2592 14.6215 10.1569C15.0714 10.0546 15.4463 9.64522 15.9711 9.74756C16.496 9.8499 17.0209 9.74756 17.4708 9.74756C17.9957 9.74756 18.2206 9.0312 18.8205 9.23588C19.3453 9.44055 19.9452 9.23588 20.545 9.23588C21.0699 9.23588 21.5948 9.33821 22.0447 9.23588C22.6445 9.13354 23.1694 8.62186 23.7693 8.72419C24.3691 8.82653 25.044 8.72419 25.6438 8.72419C26.2437 8.72419 26.9185 8.62186 27.5184 8.72419C28.0432 8.82653 28.3432 8.11018 28.868 8.21251C29.3929 8.31485 29.9928 8.21251 30.5926 8.21251C31.1175 8.21251 31.6424 8.21251 32.0922 8.21251C32.7671 8.11018 33.5169 8.51952 34.0418 7.80317H34.1917C34.3417 7.80317 34.4167 7.80317 34.5666 7.80317H36.2912H37.7909C38.2408 7.29148 38.9156 7.59849 39.4405 7.49616C39.5155 7.49616 39.5904 7.39382 39.5904 7.39382C39.5155 7.29148 39.4405 7.08681 39.4405 7.08681C38.7656 7.18915 38.0908 6.88214 37.4909 7.49616C37.341 7.59849 36.9661 7.49616 36.7411 7.49616C35.4664 7.49616 34.1917 7.49616 32.917 7.49616C32.3922 7.49616 32.1672 8.21251 31.5674 8.00784C31.1175 7.9055 30.5926 8.00784 30.0677 8.00784C29.5429 8.00784 29.018 8.00784 28.5681 8.00784C27.8933 8.11018 27.3684 8.62186 26.6186 8.51952C25.9437 8.41718 25.1939 8.51952 24.5191 8.51952C23.8442 8.51952 23.0944 8.62186 22.4196 8.51952C21.8197 8.31485 21.5198 9.03121 20.9949 8.92887C20.4701 8.82653 20.0202 8.92887 19.4953 8.92887H17.9957H16.496H14.9964H13.4967C12.8969 8.92887 12.297 8.82653 11.7722 8.92887C11.0973 9.13354 10.7974 8.41719 10.1975 8.41719C9.59768 8.41719 9.07281 8.41719 8.47295 8.41719C8.39797 8.41719 8.24801 8.31485 8.17303 8.21251C7.79812 7.59849 7.34822 7.49616 6.74837 7.39382C6.29848 7.29148 5.99855 6.7798 5.62364 6.37045C6.37346 5.85877 7.0483 6.37045 7.57317 5.96111C7.57317 5.6541 7.34823 5.55176 7.19826 5.34709C7.0483 5.14241 6.82335 4.93774 6.67339 4.73307C6.44844 4.42606 6.37346 4.22138 6.67339 3.91437C6.97332 3.60737 6.89833 3.19802 6.89833 2.89101C6.89833 2.48166 7.34822 2.27699 7.34822 1.76531C7.34822 1.35596 7.8731 1.56063 8.17303 1.56063C8.62292 1.56063 9.07281 1.56063 9.5227 1.56063C9.67266 1.56063 9.82263 1.35596 9.97259 1.25362C10.2725 1.04895 10.3475 1.04895 10.6474 1.25362C10.8724 1.4583 11.0223 1.56063 11.3223 1.56063C11.4722 1.56063 11.6972 1.56063 11.8471 1.76531C12.222 2.37933 12.6719 2.48166 13.3468 2.48166C13.7967 2.48166 14.0966 2.17465 14.4715 2.07232C14.6964 2.584 15.1463 2.37933 15.5213 2.37933C15.9711 2.37933 16.421 2.37933 16.8709 2.37933H17.9957H19.3453C19.7202 2.37933 20.0951 2.37933 20.4701 2.37933C20.77 2.37933 20.9949 2.37933 21.1449 2.07232C21.2199 1.86764 21.2949 1.96998 21.4448 2.07232C21.9697 2.48166 21.9697 2.48166 22.3446 2.07232C22.4196 1.96998 22.4946 1.86764 22.6445 1.76531C22.4946 1.66297 22.3446 1.56063 22.1946 1.56063C21.6698 1.56063 21.1449 1.56063 20.695 1.56063C20.62 1.56063 20.545 1.4583 20.3951 1.35596C20.4701 1.25362 20.62 1.15129 20.695 1.15129C21.2949 1.15129 21.8197 1.15129 22.4196 1.15129C22.6445 1.15129 22.7945 0.434931 23.0944 0.946614C23.3194 1.35596 23.6943 1.04895 23.9942 1.15129C24.0692 1.15129 24.1442 1.25362 24.1442 1.35596C24.2191 2.78867 25.0439 1.86764 25.5688 2.07232C25.5688 2.07232 25.7188 1.86764 25.7188 1.66297C25.7188 1.4583 25.7188 1.15129 25.9437 1.25362C26.0187 1.25362 26.0937 1.66297 26.0937 1.86764C26.1687 2.48166 26.3186 2.68634 26.7685 2.584C26.9185 2.584 27.0685 2.48166 27.2184 2.37933C27.7433 2.07232 28.2682 1.96998 28.7181 2.48166C28.943 2.68634 29.168 2.584 29.3929 2.68634C29.5429 2.68634 29.7678 2.68634 29.7678 2.37933C29.7678 2.27699 29.5429 2.27699 29.4679 2.17465C29.3929 2.07232 29.168 2.07232 29.168 1.96998C29.168 1.66297 29.3179 1.66297 29.5429 1.66297C29.6178 1.66297 29.6928 1.66297 29.7678 1.66297C30.1427 1.76531 30.2927 1.56063 30.2927 1.04895C30.2927 0.844277 30.4426 0.74194 30.6676 0.946614C30.5176 0.946614 30.7426 1.04895 30.7426 0.946614C31.1175 0.332594 31.6424 0.639604 32.1672 0.537267C32.6171 0.537267 32.992 0.434931 33.3669 0.946614C33.4419 1.04895 33.8168 1.04895 34.1168 0.946614C34.3417 0.844277 34.4167 0.434931 34.7166 0.537267C35.5414 0.537267 36.3662 0.537267 37.191 0.537267C37.266 0.537267 37.341 0.74194 37.4909 0.844277C37.7159 1.25362 38.0908 1.15129 38.2408 1.04895C38.7656 0.537267 39.2155 0.43493 39.7404 1.04895C39.7404 1.04895 39.9653 0.946614 39.9653 0.844277C40.2653 0.537267 40.4902 0.639604 40.7901 0.844277C41.0901 1.15129 41.24 1.15129 41.39 0.844277C41.6899 0.434931 42.0648 0.639604 42.4397 0.537267C42.9646 1.35596 43.7144 0.946614 44.3893 0.946614C44.6892 0.434931 45.0641 0.332594 45.439 0.844277H45.589C45.8889 0.230257 46.4138 0.537267 46.7887 0.434931C47.6885 0.434931 48.5883 0.434931 49.488 0.434931C49.9379 0.434931 50.5378 0.639604 50.8377 0.0255841C51.2876 0.74194 51.8125 0.434931 52.4123 0.434931C52.9372 0.434931 53.4621 0.434931 53.912 0.434931C54.2119 0.434931 54.4369 0.332594 54.5868 0.127921C54.5868 0.127921 54.6618 0.127921 54.8118 0.332594C55.0367 0.639604 55.3366 0.74194 55.5616 0.332594C55.7115 0.127921 55.7865 0.230257 56.0115 0.332594C56.5363 0.639604 57.0612 0.74194 57.5111 0.230257C57.7361 -0.0767525 57.811 0.230257 57.886 0.332594C58.1859 0.537267 58.1859 0.537267 58.5609 0.332594C58.7108 0.230257 58.7858 -0.0767525 58.9358 0.230257C59.2357 0.74194 59.7606 0.74194 59.9855 0.537267C60.4354 0.0255842 60.8853 0.230257 61.4102 0.127921C61.8601 0.127921 62.3099 -0.0767524 62.6099 0.537267C62.6849 0.639604 62.9848 0.537267 63.0598 0.434931C63.2847 0.332594 63.4347 0.127921 63.7346 0.127921C64.4844 0.127921 65.2342 0.127921 65.9841 0.127921C72.9574 0.127921 79.9307 0.127921 86.904 0.127921C87.3539 0.127921 87.8038 0.0255842 88.1037 0.537267C88.1787 0.639604 88.4786 0.537267 88.5536 0.434931C88.7786 0.127921 88.9285 0.230257 89.0785 0.434931C89.3034 0.639604 89.3784 0.127921 89.4534 0.230257C90.3532 0.844277 91.3279 0.537267 92.3027 0.537267C93.3524 0.639604 94.4772 0.537267 95.5269 0.537267H98.6012C99.6509 0.537267 100.626 0.537267 101.675 0.537267C102.2 0.537267 102.8 0.844277 103.25 0.127921C103.4 -0.0767525 103.7 0.0255841 104 0.0255841C109.399 0.0255841 114.797 0.0255841 120.196 0.0255841C120.646 0.0255841 120.946 0.434931 121.396 0.537267C121.771 0.639604 122.145 0.332594 122.52 0.639604C122.595 0.74194 122.67 0.844277 122.82 0.946614C123.195 0.127921 123.57 0.639604 124.02 0.946614C124.47 1.15129 124.995 0.946614 125.52 0.946614C126.045 0.946614 126.344 1.66297 126.869 1.4583C127.244 1.35596 127.769 1.35596 128.219 1.4583C128.519 1.4583 128.744 1.76531 129.044 1.86764C129.344 1.96998 129.719 1.76531 130.019 1.86764C130.319 1.96998 130.468 2.27699 130.843 2.37933C131.068 2.37933 131.293 2.89101 131.668 2.78867L131.743 3.09568C131.443 3.30036 131.518 3.81204 131.368 4.01671C131.143 4.32372 130.843 4.73307 130.393 4.63073C130.244 4.63073 130.094 4.73307 129.944 4.8354C130.244 5.14241 130.468 5.44942 130.693 5.75643C130.693 5.75643 130.693 5.85877 130.693 5.96111C130.244 6.37045 130.019 7.08681 129.344 7.08681C129.044 7.08681 128.744 7.08681 128.369 7.08681C127.994 7.08681 128.069 7.49616 128.069 7.80317C128.069 7.9055 128.069 7.9055 128.069 8.00784C127.694 8.00784 127.469 8.41718 127.094 8.51952C126.719 8.62186 126.494 9.23588 126.12 9.64522C126.344 9.74756 126.494 9.8499 126.644 9.8499C128.519 9.8499 130.468 9.8499 132.343 9.8499C132.868 9.8499 133.468 9.95223 133.993 9.95223C134.368 10.5663 134.892 10.2592 135.417 10.2592C135.867 10.9756 136.917 10.4639 137.292 11.4873C137.442 11.7943 137.742 11.999 137.967 12.306C137.967 12.8177 137.967 13.3293 137.967 13.7387C137.967 13.841 138.042 14.148 137.967 14.148C137.367 14.6597 137.742 15.3761 137.592 15.9901L136.167 16.5018C136.017 16.3994 135.942 15.9901 135.792 16.3994C135.567 16.8088 134.817 16.3994 134.967 17.3205C134.967 17.4228 134.817 17.5251 134.667 17.5251C134.218 17.4228 133.768 17.6275 133.543 18.1392C133.318 18.5485 133.018 18.5485 132.718 18.4462C132.343 18.3438 132.193 19.0602 131.743 18.9579C131.368 18.8555 130.993 18.8555 130.618 18.9579C130.169 19.1625 130.019 18.3438 129.719 18.6508C129.419 18.9579 129.119 18.9579 128.819 18.8555C128.369 18.8555 127.919 19.0602 127.619 18.4462C127.094 18.4462 126.644 18.3438 126.12 18.3438C125.67 18.3438 125.22 18.1392 124.92 18.7532C124.845 18.8555 124.62 18.8555 124.545 18.8555C124.245 18.6508 124.02 18.2415 123.72 18.8555C123.42 18.8555 123.12 18.8555 122.745 18.8555C122.37 18.8555 121.996 18.8555 121.621 18.8555H120.646H119.521C119.221 18.8555 118.846 18.7532 118.546 18.8555C118.246 18.9579 118.021 19.1625 117.722 19.2649C117.422 19.3672 117.122 19.2649 116.747 19.2649C116.222 19.2649 115.622 19.3672 115.172 18.8555C115.022 18.7532 114.572 18.7532 114.497 18.8555C114.122 19.3672 113.748 19.2649 113.298 19.2649C112.923 19.2649 112.548 19.3672 112.248 18.8555C112.098 18.6508 111.798 18.7532 111.498 18.7532C107.374 18.7532 103.25 18.7532 99.1261 18.7532C98.7511 18.7532 98.4512 18.7532 98.0763 19.1625C97.8514 19.3672 97.3265 19.4695 97.1015 18.9579C97.0266 18.7532 96.9516 18.7532 96.8016 18.9579C96.5767 19.4695 96.1268 19.2649 95.7519 19.2649C95.4519 18.6508 95.002 18.7532 94.5522 18.8555C94.1772 18.8555 93.8023 18.7532 93.5024 19.1625C93.3524 19.3672 92.9026 19.2649 92.6026 19.2649C86.829 19.2649 81.0554 19.2649 75.2818 19.2649C74.532 19.2649 73.7822 18.9579 73.1823 19.6742C73.1073 19.7765 72.8824 19.6742 72.8824 19.5719C72.6574 19.0602 72.2076 19.1625 71.8326 19.1625C69.9581 19.1625 68.1585 19.1625 66.284 19.1625C59.5356 19.1625 52.7123 19.1625 45.9639 19.1625C45.514 19.1625 45.1391 19.0602 44.7642 19.5719C44.6142 19.7765 44.3143 19.5719 44.0893 19.3672C43.7144 18.9579 43.2645 18.9579 42.9646 19.4695C42.8147 19.6742 42.8147 19.6742 42.6647 19.4695C42.5897 19.3672 42.3648 19.1625 42.2148 19.1625C41.465 19.1625 40.7152 19.1625 39.9653 19.1625C39.2905 19.1625 38.7656 19.8789 38.0158 19.6742C37.341 19.4695 36.5912 19.6742 35.9163 19.6742H33.8168H31.7173H29.6178H27.5184H25.4938C24.819 19.6742 24.0692 19.6742 23.3943 19.6742C23.0194 19.6742 22.6445 19.5719 22.3446 19.9812C22.2696 20.1859 21.8947 20.0836 21.6698 20.0836C17.6957 20.0836 13.7217 20.0836 9.67266 20.0836C9.29775 20.0836 8.92284 20.1859 8.62292 19.6742C8.62292 19.6742 8.24801 19.9812 8.09804 19.9812C6.44844 19.9812 4.79884 20.0836 3.14924 19.9812C2.69935 19.9812 2.24946 19.5719 1.87455 19.2649C1.72458 19.1625 1.72458 19.1625 1.57462 19.2649C0.674837 20.0836 0.749819 20.1859 0 19.1625C0.149964 19.0602 0.374909 19.0602 0.524873 18.9579C0.749819 18.8555 0.899783 18.5485 0.749819 18.3438C0.674837 18.2415 0.524873 18.1392 0.524873 18.0368C0.299928 17.5251 0.374909 17.3205 0.974764 16.8088C1.19971 16.6041 1.19971 16.2971 1.19971 15.9901C1.19971 15.5807 1.19971 15.2737 1.72458 15.4784C1.87455 15.4784 1.79957 15.3761 1.72458 15.3761H1.57462C1.57462 15.3761 1.57462 15.4784 1.57462 15.5807C1.6496 15.6831 1.72458 15.7854 1.79957 15.7854C1.79957 15.7854 1.87455 15.6831 1.72458 15.4784ZM115.922 9.33821C116.447 9.33821 116.897 9.33821 117.422 9.33821C117.497 9.33821 117.572 9.13354 117.572 9.0312C117.572 9.0312 117.497 8.92887 117.422 8.92887C116.522 8.92887 115.697 8.92887 114.797 8.92887C114.722 8.92887 114.647 9.13354 114.647 9.23588C114.647 9.23588 114.722 9.33821 114.797 9.33821C115.172 9.33821 115.547 9.33821 115.922 9.33821ZM11.3972 4.32372C11.5472 4.22138 11.6972 4.22138 11.7722 4.11905V4.01671C11.6222 3.81204 11.2473 3.81204 11.1723 4.01671C11.0973 4.11905 11.3223 4.22138 11.3972 4.32372Z" fill="#416D50"/>
</svg>
